<svg width="16" height="16" viewBox="0 0 16 16" fill="none" xmlns="http://www.w3.org/2000/svg">
<path d="M11.1457 7.65085V6.86148H15.1058V6.01138H16V3.82543H15.2016V2.97533H14.3074V2.21632H13.6048V1.45731H12.7745V0.728653H12.008V0H10.4112V0.728653H9.5489V1.45731H8.78243V4.58444H7.92016V1.57875H7.21756V0.728653H6.32335V0H4.02395V0.728653H3.16168V1.45731H2.42715V2.24668H1.53293V3.06641H0.798403V6.04175H1.53293V6.86148H4.75848V7.65085H0.798403V8.37951H0V10.6565H0.798403V11.3548H1.53293V12.9943H2.39521V13.723H3.28942V14.4213H5.55689V13.723H6.41916V12.1746H7.18563V10.6565H7.92016V12.9943H7.18563V14.4213H6.41916V15.241H5.55689V16H7.18563V15.1499H7.92016V13.723H8.78243V12.1746H9.58084V13.723H10.4431V14.4213H12.7745V13.723H13.5729V12.8729H14.3074V12.1746H15.2016V11.3548H15.9361V9.16888H15.2016V8.37951H14.3074V7.65085H11.1457Z" fill="black"/>
</svg>
