<svg width="60" height="60" viewBox="0 0 60 60" fill="none" xmlns="http://www.w3.org/2000/svg">
<path d="M20.4511 28.9089V26.4421H8.66204V23.7856H6V16.9545H8.37683V14.2979H11.0389V11.926H13.1305V9.55408H15.6024V7.27704H17.8841V5H22.6378V7.27704H25.2048V9.55408H27.4865V19.3264H30.0535V9.93359H32.1451V7.27704H34.8071V5H41.6524V7.27704H44.2194V9.55408H46.406V12.0209H49.0681V14.5825H51.2548V23.8805H49.0681V26.4421H39.4657V28.9089H51.2548V31.186H53.6316V38.3017H51.2548V40.4839H49.0681V45.6072H46.5011V47.8843H43.8391V50.0664H37.0889V47.8843H34.5219V43.0455H32.2402V38.3017H30.0535V45.6072H32.2402V50.0664H34.5219V52.6281H37.0889V55H32.2402V52.3435H30.0535V47.8843H27.4865V43.0455H25.1097V47.8843H22.5427V50.0664H15.6024V47.8843H13.2255V45.2277H11.0389V43.0455H8.37683V40.4839H6.19015V33.6528H8.37683V31.186H11.0389V28.9089H20.4511Z" fill="#00FD93"/>
</svg>
