<svg width="32" height="32" viewBox="0 0 32 32" fill="none" xmlns="http://www.w3.org/2000/svg">
<path d="M17.3332 2.66675V4.00008H15.9998V12.0001H14.6665V13.3334H11.9998V14.6667H10.6665V16.0001H9.33317V17.3334H6.6665V16.0001H5.33317V14.6667H3.99984V12.0001H2.6665V20.0001H3.99984V21.3334H5.33317V22.6667H6.6665V24.0001H7.99984V29.3334H10.6665V28.0001H9.33317V26.6667H10.6665V25.3334H11.9998V24.0001H13.3332V25.3334H14.6665V29.3334H17.3332V28.0001H15.9998V22.6667H17.3332V21.3334H18.6665V20.0001H19.9998V16.0001H21.3332V17.3334H22.6665V14.6667H19.9998V12.0001H26.6665V10.6667H22.6665V9.33341H29.3332V4.00008H27.9998V2.66675M18.6665 4.00008H19.9998V5.33341H18.6665V4.00008Z" fill="#FF83DC"/>
</svg>
