<svg width="98" height="58" viewBox="0 0 98 58" fill="none" xmlns="http://www.w3.org/2000/svg">
<g filter="url(#filter0_d_1329_7033)">
<path d="M91.555 25C91.555 30.6124 87.4314 36.2076 79.6324 40.5404C71.9163 44.8271 61.0909 47.555 49 47.555C36.9091 47.555 26.0837 44.8271 18.3676 40.5404C10.5686 36.2076 6.44499 30.6124 6.44499 25C6.44499 19.3876 10.5686 13.7924 18.3676 9.45963C26.0837 5.17289 36.9091 2.44499 49 2.44499C61.0909 2.44499 71.9163 5.17289 79.6324 9.45963C87.4314 13.7924 91.555 19.3876 91.555 25Z" fill="#038CD1" stroke="white" stroke-width="4.88998"/>
<path d="M43.3672 19.5122H45.2009V17.6785H47.0347V15.8447H50.7022V34.1821H47.0347V21.346H43.3672V19.5122Z" fill="white"/>
</g>
<defs>
<filter id="filter0_d_1329_7033" x="0" y="0" width="98" height="58" filterUnits="userSpaceOnUse" color-interpolation-filters="sRGB">
<feFlood flood-opacity="0" result="BackgroundImageFix"/>
<feColorMatrix in="SourceAlpha" type="matrix" values="0 0 0 0 0 0 0 0 0 0 0 0 0 0 0 0 0 0 127 0" result="hardAlpha"/>
<feOffset dy="4"/>
<feGaussianBlur stdDeviation="2"/>
<feComposite in2="hardAlpha" operator="out"/>
<feColorMatrix type="matrix" values="0 0 0 0 0 0 0 0 0 0 0 0 0 0 0 0 0 0 0.25 0"/>
<feBlend mode="normal" in2="BackgroundImageFix" result="effect1_dropShadow_1329_7033"/>
<feBlend mode="normal" in="SourceGraphic" in2="effect1_dropShadow_1329_7033" result="shape"/>
</filter>
</defs>
</svg>
