<svg width="90" height="50" viewBox="0 0 90 50" fill="none" xmlns="http://www.w3.org/2000/svg">
<path d="M87.555 25C87.555 30.6124 83.4314 36.2076 75.6324 40.5404C67.9163 44.8271 57.0909 47.555 45 47.555C32.9091 47.555 22.0837 44.8271 14.3676 40.5404C6.56863 36.2076 2.44499 30.6124 2.44499 25C2.44499 19.3876 6.56863 13.7924 14.3676 9.45963C22.0837 5.17289 32.9091 2.44499 45 2.44499C57.0909 2.44499 67.9163 5.17289 75.6324 9.45963C83.4314 13.7924 87.555 19.3876 87.555 25Z" fill="#038CD1" stroke="white" stroke-width="4.88998"/>
<path d="M39.3672 19.5112H41.2009V17.6775H43.0347V15.8438H46.7022V34.1812H43.0347V21.345H39.3672V19.5112Z" fill="white"/>
</svg>
