<svg width="36" height="36" viewBox="0 0 36 36" fill="none" xmlns="http://www.w3.org/2000/svg">
<path d="M23.592 33H12.408C12.0102 32.9999 11.6287 32.8418 11.3475 32.5605L3.4395 24.6525C3.15818 24.3713 3.00008 23.9898 3 23.592V12.408C3.00008 12.0102 3.15818 11.6287 3.4395 11.3475L11.3475 3.4395C11.6287 3.15818 12.0102 3.00008 12.408 3H23.592C23.9898 3.00008 24.3713 3.15818 24.6525 3.4395L32.5605 11.3475C32.8418 11.6287 32.9999 12.0102 33 12.408V23.592C32.9999 23.9898 32.8418 24.3713 32.5605 24.6525L24.6525 32.5605C24.3713 32.8418 23.9898 32.9999 23.592 33Z" fill="#00FD93"/>
<path d="M18 25.5C18.8284 25.5 19.5 24.8284 19.5 24C19.5 23.1716 18.8284 22.5 18 22.5C17.1716 22.5 16.5 23.1716 16.5 24C16.5 24.8284 17.1716 25.5 18 25.5Z" fill="#FF83DC"/>
<path d="M18 19.5C17.6022 19.5 17.2206 19.342 16.9393 19.0607C16.658 18.7794 16.5 18.3978 16.5 18V12C16.5 11.6022 16.658 11.2206 16.9393 10.9393C17.2206 10.658 17.6022 10.5 18 10.5C18.3978 10.5 18.7794 10.658 19.0607 10.9393C19.342 11.2206 19.5 11.6022 19.5 12V18C19.5 18.3978 19.342 18.7794 19.0607 19.0607C18.7794 19.342 18.3978 19.5 18 19.5Z" fill="#FF83DC"/>
</svg>
