<svg width="1000" height="856" viewBox="0 0 1000 856" fill="none" xmlns="http://www.w3.org/2000/svg">
<path d="M-0.00195312 24.4499C-0.00195312 10.9466 10.9446 0 24.4479 0H47.6753C61.1786 0 72.1252 10.9466 72.1252 24.4499V831.296C72.1252 844.799 61.1786 855.746 47.6753 855.746H24.4479C10.9446 855.746 -0.00195312 844.799 -0.00195312 831.296V24.4499Z" fill="#BFC2C6"/>
<path d="M-0.00195312 24.4499C-0.00195312 10.9466 10.9446 0 24.4479 0H34.2279C47.7312 0 58.6778 10.9466 58.6778 24.4499V831.296C58.6778 844.799 47.7312 855.746 34.2279 855.746H24.4479C10.9446 855.746 -0.00195312 844.799 -0.00195312 831.296V24.4499Z" fill="#DEE6ED"/>
<path d="M134.472 81.9072C147.975 81.9072 158.922 92.8538 158.922 106.357L158.922 116.137C158.922 129.64 147.975 140.587 134.472 140.587L79.4598 140.587C65.9565 140.587 55.0099 129.64 55.0099 116.137L55.0099 106.357C55.0099 92.8538 65.9565 81.9072 79.4598 81.9072L134.472 81.9072Z" fill="#BFC2C6"/>
<path d="M134.472 473.105C147.975 473.105 158.922 484.052 158.922 497.555L158.922 507.335C158.922 520.839 147.975 531.785 134.472 531.785L79.4598 531.785C65.9565 531.785 55.0099 520.839 55.0099 507.335L55.0099 497.555C55.0099 484.052 65.9565 473.105 79.4598 473.105L134.472 473.105Z" fill="#BFC2C6"/>
<path d="M134.472 81.9072C147.975 81.9072 158.922 92.8538 158.922 106.357L158.922 107.58C158.922 121.083 147.975 132.029 134.472 132.029L61.1223 132.029C47.619 132.029 36.6725 121.083 36.6725 107.58L36.6725 106.357C36.6725 92.8538 47.6191 81.9072 61.1224 81.9072L134.472 81.9072Z" fill="#DEE6ED"/>
<path d="M134.472 473.105C147.975 473.105 158.922 484.052 158.922 497.555L158.922 498.778C158.922 512.281 147.975 523.228 134.472 523.228L61.1223 523.228C47.619 523.228 36.6725 512.281 36.6725 498.778L36.6725 497.555C36.6725 484.052 47.6191 473.105 61.1224 473.105L134.472 473.105Z" fill="#DEE6ED"/>
<rect x="128.359" y="19.56" width="869.193" height="573.35" fill="#00FD93" stroke="#03A86A" stroke-width="4.88998"/>
<rect x="155.156" y="52.4618" width="815.198" height="507.547" rx="19.5599" fill="#00FD93" stroke="white" stroke-width="4.88998"/>
<path d="M552.67 123.978C553.624 123.024 555.172 123.024 556.127 123.978L619.934 187.785C621.516 189.367 620.319 192.066 618.084 191.956L554.398 188.811L490.712 191.956C488.478 192.066 487.281 189.367 488.863 187.785L552.67 123.978Z" fill="white"/>
<path d="M337.912 279.298C336.958 278.343 336.958 276.795 337.912 275.84L401.719 212.033C403.301 210.452 406 211.649 405.89 213.883L402.745 277.569L405.89 341.255C406 343.489 403.301 344.686 401.719 343.104L337.912 279.298Z" fill="white"/>
<rect x="385.082" y="310.239" width="64.7922" height="201.712" transform="rotate(-90 385.082 310.239)" fill="white"/>
<path d="M789.222 358.97C790.177 359.925 790.177 361.473 789.222 362.428L725.416 426.234C723.834 427.816 721.134 426.619 721.245 424.385L724.39 360.699L721.245 297.013C721.134 294.778 723.834 293.581 725.416 295.163L789.222 358.97Z" fill="white"/>
<path fill-rule="evenodd" clip-rule="evenodd" d="M586.796 190.435C586.796 183.683 581.323 178.21 574.571 178.21H534.229C527.477 178.21 522.004 183.683 522.004 190.435V521.731C522.004 528.483 527.477 533.956 534.229 533.956H574.571C581.323 533.956 586.796 528.483 586.796 521.731V405.045C586.796 398.294 592.269 392.82 599.021 392.82L729.827 392.82C736.578 392.82 742.052 387.347 742.052 380.595V340.253C742.052 333.502 736.578 328.028 729.827 328.028L599.021 328.028C592.269 328.028 586.796 322.555 586.796 315.803V190.435Z" fill="white"/>
</svg>
