<svg width="54" height="22" viewBox="0 0 54 22" fill="none" xmlns="http://www.w3.org/2000/svg">
<ellipse cx="27" cy="11" rx="27" ry="11" fill="#53FFBE"/>
<path d="M7 15.25V6.5H17.5V8.25H19.25V15.25H15.75V8.25H10.5V15.25H7Z" fill="black"/>
<path d="M22.75 15.25V13.5H21V8.25H22.75V6.5H31.5V8.25H33.25V11.75H24.5V13.5H31.5V15.25H22.75ZM24.5 10H29.75V8.25H24.5V10Z" fill="black"/>
<path d="M38.5 13.5H40.25V15.25H36.75V13.5H35V6.5H38.5V13.5ZM42 6.5V13.5H40.25V6.5H42ZM47.25 6.5V13.5H45.5V15.25H42V13.5H43.75V6.5H47.25Z" fill="black"/>
</svg>
