<svg width="274" height="133" viewBox="0 0 274 133" fill="none" xmlns="http://www.w3.org/2000/svg">
<path d="M221.573 116.872H220.578V117.713H219.598V118.553H217.623V119.394H216.644V120.235H214.669V121.076H212.71V121.917H210.735V122.757H207.781V123.598H204.826V124.439H200.893V125.28H158.537V124.439H151.649V123.598H145.74V122.757H140.812V121.917H137.857V121.076H132.944V120.235H129.989V119.394H127.035V118.553H123.086V117.713H112.263V116.031H111.268V116.872H108.314V117.713H102.406V118.553H105.36V119.394H107.335V120.235H109.309V121.076H112.263V121.917H114.223V122.757H117.177V123.598H120.131V124.439H123.086V125.28H129.989V126.121H133.923V126.962H136.878V127.802H140.812V128.643H145.74V129.484H151.649V130.325H157.558V131.166H166.421V132.006H188.08V131.166H194.984V130.325H199.898V129.484H202.852V128.643H205.806V127.802H208.76V126.962H210.735V126.121H212.71V125.28H215.664V124.439H216.644V123.598H218.618V122.757H219.598V121.917H220.578V120.235H221.573V119.394H222.552V118.553H223.532V116.031H221.573V116.872Z" fill="url(#paint0_linear_376_1604)"/>
<path d="M223.532 114.349V115.19V116.031H224.527V115.19V114.349V113.509H223.532V114.349Z" fill="url(#paint1_linear_376_1604)"/>
<path d="M225.507 112.668H224.527V113.509H225.507V112.668Z" fill="url(#paint2_linear_376_1604)"/>
<path d="M187.101 112.668V113.509H180.212V114.349H157.558V113.509H148.695V112.668H152.644V111.827H152.629V110.986H153.624V109.305H154.603V107.623H158.537V110.986H159.532V111.827H160.512V112.668H180.212V111.827H182.172V110.986H184.146V111.827H185.126V112.668H187.101Z" fill="url(#paint3_linear_376_1604)"/>
<path d="M168.395 89.1253V90.8069H167.416V91.6477H167.4V92.4885H158.537V95.0109H157.558V96.6925H156.578V98.3742H155.583V100.897H154.603V102.578H153.624V104.26H152.629V105.941H151.649V107.623H150.669V109.305H140.827V107.623H141.806V106.782H142.786V105.101H143.781V103.419H144.761V100.056H145.74V98.3742H146.735V97.5333H147.715V94.1701H148.695V92.4885H149.69V91.6477H150.669V89.9661H151.649V89.1253H168.395Z" fill="url(#paint4_linear_376_1604)"/>
<path d="M240.278 89.1253V91.6477H239.298V93.3293H238.319V96.6925H237.324V98.3742H236.344V99.215H235.364V100.897H234.369V104.26H233.39V105.941H232.41V107.623H231.415V109.305H221.573V108.464H222.552V107.623H223.532V104.26H224.527V102.578H225.507V100.897H226.486V99.215H227.481V96.6925H228.461V95.0109H229.456V93.3293H230.436V92.4885H227.481V93.3293H226.486V95.0109H225.507V95.8517H224.527V97.5333H223.532V100.056H222.552V101.737H221.573V103.419H220.578V106.782H219.598V107.623H218.618V109.305H209.755V106.782H210.735V105.101H211.73V103.419H212.71V100.056H213.689V98.3742H214.684V97.5333H215.664V95.8517H216.644V92.4885H217.639V90.8069H218.618V89.1253H240.278Z" fill="url(#paint5_linear_376_1604)"/>
<path d="M162.487 95.8517V98.3742H161.492V99.215H160.512V100.897H159.532V102.578H158.537V103.419H157.558V101.737H158.537V98.3742H159.532V97.5334H160.512V95.8517H162.487Z" fill="url(#paint6_linear_376_1604)"/>
<path d="M191.035 89.1253V92.4885H190.055V94.1701H189.075V95.8517H188.096V98.3742H187.101V99.215H186.121V100.897H185.141V102.578H184.146V105.941H183.167V107.623H181.192V108.464H180.212V109.305H162.487V108.464H161.492V105.101H162.487V101.737H163.466V100.056H164.446V98.3742H165.441V97.5333H166.421V94.1701H167.4V92.4885H168.395V90.8069H169.375V89.1253H191.035Z" fill="url(#paint7_linear_376_1604)"/>
<path d="M216.628 89.1253V89.9661H215.649V91.6477H214.669V93.3293H213.674V95.0109H212.694V98.3742H211.715V99.215H210.72V100.897H209.74V104.26H208.76V105.101H207.765V106.782H206.786V107.623H205.806V108.464H203.832V109.305H186.106V108.464H185.111V105.941H186.106V104.26H187.085V102.578H188.08V99.215H189.06V98.3742H190.04V96.6925H191.019V93.3293H192.014V91.6477H192.994V89.9661H193.974V89.1253H202.837V90.8069H201.857V94.1701H200.877V95.8517H199.898V97.5333H198.903V100.056H197.923V101.737H196.943V103.419H195.948V104.26H194.969V106.782H198.903V103.419H199.898V101.737H200.877V100.056H201.857V97.5333H202.852V95.8517H203.832V94.1701H204.811V92.4885H205.806V90.8069H205.791V89.9661H206.786V89.1253H216.628Z" fill="url(#paint8_linear_376_1604)"/>
<path d="M119.152 110.986V112.668H118.172V115.19H132.944V114.349H133.923V113.509H135.898V112.668H136.878V110.986H137.857V108.464H138.852V107.623H139.832V105.941H140.812V102.578H141.806V100.897H142.786V99.215H143.766V98.3741H144.761V95.0109H145.74V93.3293H146.72V91.6477H147.715V89.1253H127.035V89.9661H126.04V90.8069H125.06V92.4885H124.081V94.1701H123.086V97.5333H122.106V98.3741H121.126V100.056H120.131V100.897H119.152V104.26H118.172V106.782H117.177V107.623H118.172V109.305H128.015V110.986H119.152ZM127.035 106.782V105.101H128.015V103.419H128.994V101.737H129.989V98.3741H130.969V97.5333H131.949V95.8517H132.944V94.1701H133.923V92.4885H137.857V93.3293H136.878V95.0109H135.898V96.6925H134.903V98.3741H133.923V100.897H132.944V101.737H131.949V103.419H130.969V105.101H129.989V106.782H127.035Z" fill="url(#paint9_linear_376_1604)"/>
<path d="M108.314 114.349H110.289V113.509H111.268V112.668H112.263V110.986H113.243V109.305H114.223V107.623H115.218V106.782H116.197V103.419H117.177V101.737H118.172V100.056H119.152V97.5333H120.131V95.8517H121.126V94.1701H122.106V92.4885H123.086V89.1253H114.223V90.8069H113.243V92.4885H112.263V95.8517H111.268V97.5333H110.289V98.3741H109.309V100.056H108.314V103.419H107.335V104.26H106.355V105.941H105.36V106.782H102.406V105.941H103.401V104.26H104.38V102.578H105.36V99.215H106.355V98.3741H107.335V96.6925H108.314V93.3293H109.309V91.6477H110.289V89.9661H111.268V89.1253H101.426V91.6477H100.446V93.3293H99.4513V95.0109H98.4716V96.6925H97.4919V99.215H96.497V100.056H95.5173V101.737H94.5376V105.101H93.5427V108.464H94.5376V109.305H104.38V110.145H103.401V110.986H94.5376V113.509H93.5427V115.19H108.314V114.349Z" fill="url(#paint10_linear_376_1604)"/>
<path d="M93.5427 100.897H94.5377V98.3742H95.5173V96.6925H96.497V95.0109H97.492V91.6477H98.4716V89.9661H97.492V89.1253H80.7458V90.8069H79.7661V92.4885H88.6291V93.3293H87.6341V94.1701H76.8118V95.0109H75.8169V95.8517H73.8575V97.5333H72.8626V99.215H71.8829V100.897H70.9032V102.578H69.9083V104.26H68.9286V109.305H89.6087V108.464H90.5884V105.941H91.5834V104.26H92.563V102.578H93.5427V100.897ZM85.6747 99.215H84.6798V100.056H83.7001V103.419H82.7204V105.101H81.7255V106.782H78.7712V105.101H79.7661V101.737H80.7458V100.056H81.7255V98.3742H85.6747V99.215Z" fill="url(#paint11_linear_376_1604)"/>
<path d="M265.887 83.2244H258.999V84.0652H258.019V85.7468H257.04V87.4284H256.06V89.11H243.263V89.9508H242.283V92.4732H241.304V94.1548H240.324V95.8364H239.344V97.518H238.365V99.1997H237.385V100.881H236.405V102.563H235.426V104.244H234.446V109.289H255.126V108.449H256.106V105.926H257.085V104.244H258.065V102.563H259.045V100.881H260.024V98.3588H261.004V96.6772H261.984V94.9956H262.963V93.314H263.943V89.9508H264.923V89.11H265.902V87.4284H266.882V83.2244H265.902H265.887ZM244.227 105.926V105.085H245.207V101.722H246.187V100.04H247.166V98.3588H248.146V97.518H249.126V94.1548H250.105V92.4732H254.039V93.314H253.06V96.6772H252.08V98.3588H251.1V99.1997H250.121V100.04H249.141V103.404H248.161V105.085H247.182V106.767H244.227V105.926Z" fill="url(#paint12_linear_376_1604)"/>
<path d="M68.9286 100.056H69.9083V98.3741H70.9032V97.5333H71.8829V95.8517H72.8626V92.4885H73.8575V90.8069H74.8372V89.1253H75.8169V86.6029H76.8118V84.9213H77.7915V83.2397H68.9286V84.9213H67.9489V86.6029H66.954V88.2845H65.9743V89.1253H64.9946V92.4885H63.9997V94.1701H63.02V95.8517H62.0403V93.3293H63.02V90.8069H63.9997V89.9661H63.02V89.1253H42.3399V90.8069H41.3602V92.4885H40.3653V95.0109H39.3856V96.6925H38.4059V98.3741H37.411V99.2149H36.4313V102.578H35.4516V104.26H34.4566V105.941H33.477V107.623H32.4973V110.145H31.5023V111.827H30.5227V113.509H29.543V115.19H39.3856V113.509H40.3653V110.145H41.3602V109.305H53.1774V108.464H54.1571V107.623H55.1368V106.782H56.1317V105.941H57.1114V104.26H58.0911V105.941H57.1114V107.623H56.1317V109.305H64.9946V107.623H65.9743V106.782H66.954V105.101H67.9489V103.419H68.9286V100.056ZM54.1571 93.3293H53.1774V95.0109H52.1825V95.8517H51.2028V98.3741H50.2231V100.056H49.2282V101.737H48.2485V103.419H47.2688V106.782H43.3196V105.101H44.3145V103.419H45.2942V101.737H46.2739V100.056H47.2688V97.5333H48.2485V95.8517H49.2282V94.1701H50.2231V92.4885H54.1571V93.3293ZM62.0403 98.3741H61.0454V99.2149H60.0657V100.897H59.086V102.578H58.0911V100.897H59.086V99.2149H60.0657V98.3741H61.0454V96.6925H62.0403V98.3741Z" fill="url(#paint13_linear_376_1604)"/>
<path d="M62.0403 84.9213H60.0657V84.0805H58.0911V83.2397H56.1317V85.7621H62.0403V84.9213Z" fill="url(#paint14_linear_376_1604)"/>
<path d="M100.446 86.6029V85.7621H172.329V84.9213H167.4V84.0805H161.492V84.9213H140.812V79.8764H120.131V79.0356H119.152V79.8764H71.8829V79.0356H70.9032V78.1948H68.9286V79.0356H66.954V79.8764H57.1114V80.7172H59.086V81.558H62.0403V82.3988H63.9997V83.2397H64.9946V82.3988H65.9743V80.7172H83.7001V81.558H82.7205V83.2397H81.7255V84.9213H80.7458V85.7621H98.4716V86.6029H100.446Z" fill="url(#paint15_linear_376_1604)"/>
<path d="M51.2028 81.558V80.7172H52.1825V79.8764H47.2688V80.7172H49.2282V81.558H51.2028Z" fill="url(#paint16_linear_376_1604)"/>
<path d="M46.2739 78.1948H45.2942V79.0356H46.2739V78.1948Z" fill="url(#paint17_linear_376_1604)"/>
<path d="M95.5173 71.4684V69.7868H96.497V68.1052H97.492V64.742H98.4716V63.9011H99.4513V63.0603H100.446V61.3787H101.426V55.4931H82.7204V56.3339H80.7458V57.1747H79.7661V59.6971H78.7712V61.3787H77.7915V63.0603H76.8118V63.9011H75.8169V67.2644H74.8372V68.946H73.8575V70.6276H72.8626V76.5132H92.563V75.6724H93.5427V73.9908H94.5377V73.15H81.7255V71.4684H95.5173ZM84.6798 66.4236H85.6747V64.742H86.6544V62.2195H87.6341V60.5379H88.6291V59.6971H91.5834V60.5379H90.5884V63.0603H89.6087V64.742H88.6291V66.4236H87.6341V67.2644H84.6798V66.4236Z" fill="url(#paint18_linear_376_1604)"/>
<path d="M175.283 67.2644V66.4236H174.304V67.2644H173.309V69.7868H172.329V71.4684H171.35V72.3092H173.309V73.15H175.283V73.9908H177.258V74.8316H180.212V75.6724H181.192V76.5132H184.146V77.354H185.126V78.1949H188.08V79.0357H189.075V79.8765H191.035V80.7173H193.989V81.5581H194.984V82.3989H196.943V83.2397H197.938V84.0805H198.918V84.9213H199.898V85.7621H207.781V84.9213H206.801V84.0805H205.806V83.2397H204.826V82.3989H203.847V81.5581H201.872V80.7173H199.898V79.8765H198.918V79.0357H197.938V78.1949H195.964V77.354H194.984V76.5132H193.989V75.6724H192.03V74.8316H191.035V73.9908H190.055V73.15H188.08V72.3092H187.101V71.4684H184.146V70.6276H182.172V69.7868H180.212V68.946H178.238V68.1052H177.258V67.2644H175.283Z" fill="url(#paint19_linear_376_1604)"/>
<path d="M29.543 73.15H31.5023V72.3092H32.4973V71.4684H37.411V72.3092H38.4059V73.15H40.3653V74.8316H41.3602V75.6724H43.3195V77.354H44.3145V78.1948H45.2942V77.354V76.5132H44.3145V71.4684H45.2942V69.7868H46.2739V68.946H47.2688V67.2644H48.2485V66.4236H49.2282V63.9012H50.2231V61.3787H51.2028V58.0155H52.1825V56.3339H53.1774V55.4931H54.1571V53.8115H57.1114V52.9707H62.0403V52.1299H63.02V51.2891H63.9997V50.4483H64.9946V49.6075H65.9743V48.7667H66.954V47.9259H67.9489V47.0851H68.9286V46.2443H69.9083V45.4035H70.9032V44.5626H72.8626V42.881H74.8372V42.0402H75.8169V40.3586H76.8118V38.677H72.8626V37.8362H68.9286V36.9954H64.9946V36.1546H57.1114V31.1098H56.1317V23.5425H55.1368V15.9753H54.1571V13.4529H53.1774V14.2937H52.1825V15.1345H51.2028V17.6569H50.2231V18.4977H49.2282V19.3385H48.2485V20.1793H47.2688V22.7017H46.2739V23.5425H45.2942V24.3833H44.3145V26.0649H43.3195V27.7466H42.3399V28.5874H41.3602V29.4282H40.3653V31.9506H39.3856V32.7914H38.4059V34.473H37.411V35.3138H36.4313V36.1546H25.5937V36.9954H20.6801V37.8362H14.7715V41.1994H15.7512V42.881H16.7308V44.5626H18.7055V47.9259H19.6851V49.6075H20.6801V51.2891H21.6598V53.8115H22.6394V54.6523H23.6344V56.3339H24.6141V57.1747H23.6344V58.8563H22.6394V60.5379H21.6598V63.0604H20.6801V65.5828H19.6851V67.2644H18.7055V70.6276H17.7258V71.4684H16.7308V73.15H15.7512V74.8316H14.7715V79.0356H13.7765V80.7172H12.7969V81.5581H14.7715V80.7172H17.7258V79.8764H18.7055V79.0356H20.6801V78.1948H21.6598V77.354H23.6344V76.5132H25.5937V75.6724H26.5887V74.8316H28.548V73.9908H29.543V73.15Z" fill="url(#paint20_linear_376_1604)"/>
<path d="M122.106 70.6276V71.4684H121.111V75.6724H122.106V76.5132H140.812V75.6724H141.791V74.8316H142.786V73.15H143.766V71.4684H144.745V69.7868H144.761V68.946H145.74V67.2644H146.72V65.5828H147.715V63.0604H148.695V61.3787H149.674V59.6971H150.669V58.0155H151.649V54.6523H153.624V52.1299H154.603V50.4483H144.761V53.8115H143.766V54.6523H142.786V55.4931H130.969V56.3339H129.989V57.1747H128.994V58.8563H128.015V60.5379H127.035V63.0604H126.04V63.9012H125.06V65.5828H124.065V67.2644H123.086V70.6276H122.106ZM129.974 72.3092H130.969V71.4684H131.949V69.7868H132.944V68.1052H133.923V64.742H134.903V63.0604H135.898V62.2196H136.878V60.5379H137.857V59.6971H140.812V61.3787H139.832V62.2196H138.852V63.0604H137.857V66.4236H136.878V68.1052H135.898V69.7868H134.903V71.4684H133.923V73.15H129.974V72.3092Z" fill="url(#paint21_linear_376_1604)"/>
<path d="M65.9743 75.6724H67.9489V74.8316H68.9286V73.15H69.9083V71.4684H70.9032V70.6276H71.8829V68.946H72.8626V64.742H71.8829V63.9011H62.0403V62.2195H63.02V60.5379H63.9997V59.6971H66.954V61.3787H65.9743V63.0603H75.8169V59.6971H76.8118V56.3339H75.8169V55.4931H58.0911V56.3339H57.1114V57.1747H56.1317V58.0155H55.1368V58.8563H54.1571V62.2195H53.1774V63.0603H52.1825V67.2644H53.1774V68.1052H63.02V68.946H62.0403V71.4684H61.0454V73.15H57.1114V72.3092H58.0911V70.6276H49.2282V71.4684H48.2485V72.3092H47.2688V75.6724H48.2485V76.5132H65.9743V75.6724Z" fill="url(#paint22_linear_376_1604)"/>
<path d="M105.36 55.4931V58.8563H104.38V60.5379H103.401V62.2195H102.406V63.0603H101.426V66.4236H100.446V68.1052H99.4513V69.7868H98.4716V71.4684H97.4919V73.15H96.497V74.8316H95.5173V76.5132H105.36V73.9908H106.355V72.3092H107.335V71.4684H108.314V68.1052H109.309V66.4236H110.289V64.742H111.268V63.0603H112.263V60.5379H116.197V63.0603H115.218V63.9011H114.223V65.5828H113.243V67.2644H112.263V70.6276H111.268V71.4684H110.289V73.15H109.309V73.9908H108.314V76.5132H118.172V74.8316H119.152V71.4684H120.131V70.6276H121.126V68.946H122.106V67.2644H123.086V63.9011H124.081V63.0603H125.06V61.3787H126.04V59.6971H127.035V56.3339H126.04V55.4931H105.36Z" fill="url(#paint23_linear_376_1604)"/>
<path d="M154.603 56.3339H153.624V57.1747V58.0155H152.629V58.8563H151.649V62.2195H150.669V63.0603H149.674V63.9012V64.742H148.695V65.5828V66.4236H147.715V67.2644V68.1052V68.946V69.7868H146.72V70.6276V71.4684H145.74V72.3092H144.761V73.15V73.9908V74.8316V75.6724H145.74V76.5132H146.72H147.715H148.695H149.674H150.669H151.649H152.629H153.624H154.603H155.583V77.354V78.1948H154.603H153.624H152.629H151.649H150.669H149.674H148.695H147.715H146.72V79.0356V79.8764H145.74V80.7172H144.761V81.558H145.74H146.72H147.715H148.695H149.674H150.669H151.649H152.629H153.624H154.603H155.583H156.578H157.558H158.537H159.532H160.512V80.7172H161.492H162.487H163.466V79.8764H164.446V79.0356V78.1948H165.441V77.354V76.5132H166.421V75.6724V74.8316V73.9908H167.4V73.15V72.3092H168.395V71.4684H169.375V70.6276V69.7868V68.946V68.1052H170.355V67.2644V66.4236H171.35V65.5828V64.742H172.329V63.9012V63.0603H173.309V62.2195V61.3787V60.5379H174.304V59.6971V58.8563H175.283V58.0155V57.1747H176.263V56.3339V55.4931H175.283H174.304H173.309H172.329H171.35H170.355H169.375H168.395H167.4H166.421V56.3339V57.1747V58.0155V58.8563H165.441V59.6971V60.5379H164.446V61.3787H163.466V62.2195V63.0603H162.487V63.9012V64.742V65.5828H161.492V66.4236V67.2644H160.512V68.1052V68.946H159.532V69.7868V70.6276H158.537V71.4684V72.3092V73.15H157.558H156.578H155.583V72.3092V71.4684V70.6276H156.578V69.7868V68.946H157.558V68.1052V67.2644H158.537V66.4236V65.5828V64.742V63.9012H159.532V63.0603H160.512V62.2195V61.3787H161.492V60.5379V59.6971H162.487V58.8563V58.0155V57.1747V56.3339H163.466V55.4931H162.487H161.492H160.512H159.532H158.537H157.558H156.578H155.583H154.603V56.3339Z" fill="url(#paint24_linear_376_1604)"/>
<path d="M72.8626 49.6075V51.2891H71.8829V52.1299H70.9032V52.9707H101.426V53.8115H104.38V52.9707H112.263V52.1299H108.314V51.2891H101.426V50.4483H94.5377V49.6075H72.8626Z" fill="url(#paint25_linear_376_1604)"/>
<path d="M252.095 92.4885H251.1H250.121V93.3293V94.1701H249.141V95.0109V95.8517V96.6925V97.5333H248.146V98.3741H247.166V99.2149V100.056H246.187V100.897V101.737H245.192V102.578V103.419V104.26V105.101H244.212V105.941V106.782H245.192H246.187H247.166V105.941V105.101H248.146V104.26V103.419H249.141V102.578V101.737V100.897V100.056H250.121V99.2149H251.1V98.3741H252.095V97.5333V96.6925H253.075V95.8517V95.0109V94.1701V93.3293H254.055V92.4885H253.075H252.095Z" fill="#FF83DC"/>
<path d="M256.029 80.7172V83.2397H255.034V84.9213H254.055V85.7621H244.212V86.6029H240.263V85.7621H199.898V84.9213H198.918V84.0805H197.938V83.2397H196.943V82.3988H194.984V81.558H193.989V80.7172H191.035V79.8764H189.075V79.0356H188.08V78.1948H185.126V77.354H184.146V76.5132H181.192V75.6724H180.212V74.8316H177.258V73.9908H175.283V73.15H173.309V72.3092H171.349V71.4684H172.329V69.7868H173.309V67.2644H174.304V65.5828H175.283V63.9011H176.263V63.0603H177.258V59.6971H178.238V58.0155H179.217V56.3339H180.212V53.8115H181.192V52.9707H157.558V51.2891H158.537V48.7667H159.532V47.9259H142.786V49.6075H141.806V51.2891H140.811V52.9707H127.02V52.1299H123.086V51.2891H119.152V50.4483H114.223V49.6075H108.314V48.7667H102.406V47.9259H89.6087V47.0851H76.8118V46.2443H77.7915V45.4035H79.7661V44.5626H80.7458V43.7218H81.7255V42.881H82.7204V42.0402H83.7001V41.1994H84.6798V40.3586H85.6747V39.5178H86.6544V37.8362H88.6291V36.9954H89.6087V36.1546H84.6798V35.3138H79.7661V34.473H75.8169V33.6322H72.8626V32.7914H68.9286V31.9506H64.9946V31.1098H62.0403V29.4282H61.0454V21.8609H60.0657V14.2937H59.086V6.72644H58.0911V0H56.1317V1.68161H55.1368V2.52241H54.1571V5.04483H53.1774V5.88563H52.1825V6.72644H51.2028V9.24885H49.2282V10.9305H48.2485V11.7713H47.2688V14.2937H46.2739V15.9753H45.2942V16.8161H44.3145V17.6569H43.3195V19.3385H42.3399V20.1793H41.3602V21.0201H40.3652V23.5425H39.3856V24.3833H38.4059V26.0649H37.4109V26.9057H36.4313V28.5874H35.4516V29.4282H34.4566V30.269H32.4973V31.1098H28.548V31.9506H22.6394V32.7914H18.7055V33.6322H12.7969V34.473H7.86793V35.3138H2.9543V36.1546H3.93397V37.8362H4.91363V40.3586H5.9086V42.0402H6.88827V43.7218H7.86793V45.4035H8.8629V47.0851H9.84257V48.7667H10.8222V52.1299H11.8172V53.8115H13.7765V55.4931H14.7715V58.8563H15.7512V63.0603H14.7715V65.5828H13.7765V67.2644H12.7969V68.946H11.8172V70.6276H10.8222V73.9908H9.84257V75.6724H8.8629V77.354H7.86793V80.7172H6.88827V81.558H5.9086V84.0805H4.91363V85.7621H3.93397V89.1253H2.9543V89.9661H1.95933V91.6477H0.979665V93.3293H0V95.0109H2.9543V94.1701H3.93397V93.3293H5.9086V92.4885H7.86793V91.6477H8.8629V90.8069H9.84257V89.9661H10.8222V89.1253H14.7715V88.2845H15.7512V87.4437H17.7258V86.6029H18.7055V85.7621H20.6801V84.9213H21.6598V84.0805H23.6344V83.2397H25.5937V82.3988H26.5887V81.558H28.548V80.7172H35.4516V81.558H36.4313V83.2397H37.4109V84.0805H39.3856V84.9213H40.3652V88.2845H39.3856V89.1253H38.4059V90.8069H37.4109V92.4885H36.4313V95.8364H35.4363V97.5181H34.4413V98.3588H33.4617V100.04H32.482V103.404H31.487V105.085H30.5074V106.767H29.5277V109.289H28.5327V110.971H27.5531V112.653H26.5734V114.334H25.5784V116.857H24.5988V117.697H41.3449V116.016H42.3246V115.175H43.3042V112.653H66.9387V111.812H68.9133V112.653H76.7965V109.289H68.9286V104.26H69.9083V102.578H70.9032V100.897H71.8829V99.2149H72.8626V97.5333H73.8575V95.8517H75.8169V95.0109H76.8118V94.1701H87.6341V93.3293H88.6137V92.4885H79.7661V90.8069H80.7458V89.1253H97.492V89.9661H98.4716V91.6477H97.492V95.0109H96.497V96.6925H95.5173V98.3741H94.5376V100.897H93.5427V102.578H92.563V104.26H91.5834V105.941H90.5884V108.464H89.6087V109.305H76.8118V112.668H90.5884V114.349H89.6087V116.031H87.6341V117.713H108.314V116.872H111.268V116.031H112.263V117.713H123.086V118.553H127.035V119.394H129.989V120.235H132.944V121.076H137.857V121.917H140.811V122.757H145.74V123.598H151.649V124.439H158.537V125.28H200.893V124.439H204.826V123.598H207.781V122.757H210.735V121.917H212.71V121.076H214.669V120.235H216.644V119.394H217.623V118.553H219.598V117.713H220.578V116.872H221.573V116.031H223.532V113.509H224.527V112.668H233.375V111.827H234.354V112.668H257.009V110.986H257.989V109.305H258.984V107.623H259.963V105.101H260.943V103.419H261.938V101.737H262.918V100.056H263.897V97.5333H264.892V95.8517H265.872V94.1701H266.852V90.8069H267.846V89.1253H268.826V88.2845H269.806V87.4437H270.801V84.0805H271.78V82.3988H272.76V80.7172H256.029ZM163.466 55.4931V56.3339H162.487V59.6971H161.492V61.3787H160.512V63.0603H159.532V63.9011H158.537V67.2644H157.558V68.946H156.578V70.6276H155.583V73.15H158.537V70.6276H159.532V68.946H160.512V67.2644H161.492V65.5828H162.487V63.0603H163.466V61.3787H164.446V60.5379H165.441V58.8563H166.421V55.4931H176.263V57.1747H175.283V58.8563H174.304V60.5379H173.309V63.0603H172.329V64.742H171.349V66.4236H170.355V68.1052H169.375V71.4684H168.395V72.3092H167.4V73.9908H166.421V76.5132H165.441V78.1948H164.446V79.8764H163.466V80.7172H160.512V81.558H144.761V80.702H145.74V79.8612H146.72V78.1795H155.583V76.4979H145.74V75.6724H144.761V72.3092H145.74V71.4684H146.72V69.7868H147.715V66.4236H148.695V64.742H149.674V63.0603H150.669V62.2195H151.649V58.8563H152.629V58.0155H153.624V56.3339H154.603V55.4931H163.466ZM126.04 55.4931V56.3339H127.035V59.6971H126.04V61.3787H125.06V63.0603H124.081V63.9011H123.086V67.2644H124.081V65.5828H125.06V63.9011H126.04V63.0603H127.035V60.5379H128.015V58.8563H128.994V57.1747H129.989V56.3339H130.969V55.4931H142.786V54.6523H143.766V53.8115H144.761V50.4483H154.603V52.1299H153.624V54.6523H151.649V58.0155H150.669V59.6971H149.674V61.3787H148.695V63.0603H147.715V65.5828H146.72V67.2644H145.74V68.946H144.761V71.4684H143.766V73.15H142.786V74.8316H141.806V75.6724H140.811V76.5132H122.106V75.6724H121.126V71.4684H122.106V70.6276H123.086V67.2644H122.106V68.946H121.126V70.6276H120.131V71.4684H119.152V74.8316H118.172V76.5132H108.314V73.9908H109.309V73.15H110.289V71.4684H111.268V70.6276H112.263V67.2644H113.243V65.5828H114.223V63.9011H115.218V63.0603H116.197V60.5379H112.263V63.0603H111.268V64.742H110.289V66.4236H109.309V68.1052H108.314V71.4684H107.335V72.3092H106.355V73.9908H105.36V76.5132H95.5173V74.8316H96.497V73.15H97.492V71.4684H98.4716V69.7868H99.4513V68.1052H100.446V66.4236H101.426V63.0603H102.406V62.2195H103.401V60.5379H104.38V58.8563H105.36V55.4931H126.04ZM94.5376 73.15V73.9908H93.5427V75.6724H92.563V76.5132H72.8626V70.6276H73.8575V68.946H74.8372V67.2644H75.8169V63.9011H76.8118V63.0603H77.7915V61.3787H78.7712V59.6971H79.7661V57.1747H80.7458V56.3339H82.7204V55.4931H101.426V61.3787H100.446V63.0603H99.4513V63.9011H98.4716V64.742H97.492V68.1052H96.497V69.7868H95.5173V71.4684H81.7255V73.15H94.5376ZM60.0657 84.0805V84.9213H62.0403V85.7621H56.1317V83.2397H58.0911V84.0805H60.0657ZM48.2485 76.5132V75.6724H47.2688V72.3092H48.2485V71.4684H49.2282V70.6276H58.0911V72.3092H57.1114V73.15H61.0454V71.4684H62.0403V68.946H63.02V68.1052H53.1774V67.2644H52.1825V63.0603H53.1774V62.2195H54.1571V58.8563H55.1368V58.0155H56.1317V57.1747H57.1114V56.3339H58.0911V55.4931H75.8169V56.3339H76.8118V59.6971H75.8169V63.0603H65.9743V61.3787H66.954V59.6971H63.9997V60.5379H63.02V62.2195H62.0403V63.9011H71.8829V64.742H72.8626V68.946H71.8829V70.6276H70.9032V71.4684H69.9083V73.15H68.9286V74.8316H67.9489V75.6724H65.9743V76.5132H48.2485ZM47.2688 80.7172V79.8764H52.1825V80.7172H51.2028V81.558H49.2282V80.7172H47.2688ZM94.5376 49.6075V50.4483H101.426V51.2891H108.314V52.1299H112.248V52.9707H104.38V53.8115H101.426V52.9707H70.9032V52.1299H71.8829V51.2891H72.8626V49.6075H94.5376ZM38.4059 73.15V72.3092H37.4109V71.4684H32.4973V72.3092H31.5023V73.15H29.543V73.9908H28.548V74.8316H26.5887V75.6724H25.5937V76.5132H23.6344V77.354H21.6598V78.1948H20.6801V79.0356H18.7055V79.8764H17.7258V80.7172H14.7715V81.558H12.7969V80.7172H13.7765V79.0356H14.7715V74.8316H15.7512V73.15H16.7308V71.4684H17.7258V70.6276H18.7055V67.2644H19.6851V65.5828H20.6801V63.0603H21.6598V60.5379H22.6394V58.8563H23.6344V57.1747H24.6141V56.3339H23.6344V54.6523H22.6394V53.8115H21.6598V51.2891H20.6801V49.6075H19.6851V47.9259H18.7055V44.5626H16.7308V42.881H15.7512V41.1994H14.7715V37.8362H20.6801V36.9954H25.5937V36.1546H36.4313V35.3138H37.4109V34.473H38.4059V32.7914H39.3856V31.9506H40.3652V29.4282H41.3602V28.5874H42.3399V27.7466H43.3195V26.0649H44.3145V24.3833H45.2942V23.5425H46.2739V22.7017H47.2688V20.1793H48.2485V19.3385H49.2282V18.4977H50.2231V17.6569H51.2028V15.1345H52.1825V14.2937H53.1774V13.4529H54.1571V15.9753H55.1368V23.5425H56.1317V31.1098H57.1114V36.1546H64.9946V36.9954H68.9286V37.8362H72.8626V38.677H76.8118V40.3586H75.8169V42.0402H74.8372V42.881H72.8626V44.5626H70.9032V45.4035H69.9083V46.2443H68.9286V47.0851H67.9489V47.9259H66.954V48.7667H65.9743V49.6075H64.9946V50.4483H63.9997V51.2891H63.02V52.1299H62.0403V52.9707H57.1114V53.8115H54.1571V55.4931H53.1774V56.3339H52.1825V58.0155H51.2028V61.3787H50.2231V63.9011H49.2282V66.4236H48.2485V63.0603H49.2282V58.8563H50.2231V53.8115H51.2028V52.9707H52.1825V52.1299H53.1774V51.2891H54.1571V50.4483H55.1368V49.6075H56.1317V48.7667H57.1114V47.9259H58.0911V47.0851H59.086V46.2443H60.0657V45.4035H61.0454V44.5626H62.0403V43.7218H59.086V42.881H55.1368V42.0402H52.1825V39.5178H51.2028V36.1546H50.2231V28.5874H48.2485V30.269H47.2688V31.9506H46.2739V33.6322H45.2942V34.473H44.3145V35.3138H43.3195V36.9954H42.3399V37.8362H41.3602V39.5178H40.3652V41.1994H38.4059V42.0402H33.477V42.881H28.548V43.7218H27.5684V44.5626H28.548V46.2443H29.543V49.6075H30.5227V51.2891H31.5023V52.1299H32.4973V54.6523H31.5023V56.3339H30.5227V58.0155H29.543V61.3787H28.548V63.0603H27.5684V64.742H26.5887V66.4236H25.5937V67.2644H28.548V66.4236H29.543V65.5828H31.5023V64.742H32.4973V63.9011H34.4566V63.0603H37.4109V62.2195H40.3652V63.0603H42.3399V63.9011H43.3195V65.5828H45.2942V66.4236H46.2739V67.2644H47.2688V68.946H46.2739V69.7868H45.2942V71.4684H44.3145V76.5132H45.2942V78.1948H46.2739V79.0356H45.2942V78.1948H44.3145V77.354H43.3195V75.6724H41.3602V74.8316H40.3652V73.15H38.4059ZM77.7915 84.9213H76.8118V86.6029H75.8169V89.1253H74.8372V90.8069H73.8575V92.4885H72.8626V95.8517H71.8829V97.5333H70.9032V98.3741H69.9083V100.056H68.9286V103.419H67.9489V105.101H66.954V106.782H65.9743V107.623H64.9946V109.289H56.1164V107.608H57.0961V105.926H58.0604V104.244H57.0808V105.926H56.1164V106.767H55.1214V107.608H54.1418V108.449H53.1621V109.289H41.3449V110.13H40.3499V113.493H39.3703V115.175H29.5277V113.493H30.5074V111.812H31.487V110.13H32.482V107.608H33.4617V105.926H34.4413V104.244H35.4363V102.563H36.416V99.1997H37.3956V98.3588H38.3906V96.6772H39.3703V95.8517V95.0109H40.3499V92.4885H41.3449V90.8069H42.3246V89.1253H63.0047V89.9661H63.9844V90.8069H63.0047V93.3293H62.025V95.8517H63.0047V94.1701H63.9844V92.4885H64.9793V89.1253H65.959V88.2845H66.9387V86.6029H67.9336V84.9213H68.9133V83.2397H77.7762V84.9213H77.7915ZM80.7458 85.7621V84.9213H81.7255V83.2397H82.7204V81.558H83.7001V80.7172H65.9743V82.3988H64.9946V83.2397H63.9997V82.3988H62.0403V81.558H59.086V80.7172H57.1114V79.8764H66.954V79.0356H68.9286V78.1948H70.9032V79.0356H71.8829V79.8764H119.152V79.0356H120.131V79.8764H140.811V84.9213H161.492V84.0805H167.4V84.9213H172.329V85.7621H100.446V86.6029H98.4716V85.7621H80.7458ZM116.197 106.782H115.218V107.623H114.223V109.305H113.243V110.986H112.263V112.668H111.268V113.509H110.289V114.349H108.314V115.19H93.5427V113.509H94.5376V110.986H103.401V110.145H104.38V109.305H94.5376V108.464H93.5427V105.101H94.5376V101.737H95.5173V100.056H96.497V99.2149H97.492V96.6925H98.4716V95.0109H99.4513V93.3293H100.446V91.6477H101.426V89.1253H111.268V89.9661H110.289V91.6477H109.309V93.3293H108.314V96.6925H107.335V98.3741H106.355V99.2149H105.36V102.578H104.38V104.26H103.401V105.941H102.406V106.782H105.36V105.941H106.355V104.26H107.335V103.419H108.314V100.056H109.309V98.3741H110.289V97.5333H111.268V95.8517H112.263V92.4885H113.243V90.8069H114.223V89.1253H123.086V92.4885H122.106V94.1701H121.126V95.8517H120.131V97.5333H119.152V100.056H118.172V101.737H117.177V103.419H116.197V106.782ZM139.832 105.941V107.623H138.852V108.464H137.857V110.986H136.878V112.668H135.898V113.509H133.923V114.349H132.944V115.19H118.172V112.668H119.152V110.986H128.015V109.305H118.172V107.623H117.177V106.782H118.172V104.26H119.152V100.897H120.131V100.056H121.126V98.3741H122.106V97.5333H123.086V94.1701H124.081V92.4885H125.06V90.8069H126.04V89.9661H127.035V89.1253H147.715V91.6477H146.72V93.3293H145.74V95.0109H144.761V98.3741H143.766V99.2149H142.786V100.897H141.806V102.578H140.811V105.941H139.832ZM140.811 109.305V107.623H141.806V106.782H142.786V105.101H143.766V103.419H144.761V100.056H145.74V98.3741H146.72V97.5333H147.715V94.1701H148.695V92.4885H149.674V91.6477H150.669V89.9661H151.649V89.1253H168.38V90.8069H169.36V89.1253H191.035V90.8069H191.019V92.4885H190.04V94.1701H189.06V95.8517H188.065V98.3741H187.085V99.2149H186.106V100.897H185.111V102.578H184.131V105.941H183.151V107.623H181.177V108.464H180.197V109.305H162.471V108.464H161.476V105.101H162.471V101.737H163.451V100.056H164.431V98.3741H165.426V97.5333H166.405V94.1701H167.385V92.4885H158.522V95.0109H157.542V96.6925H156.563V98.3741H155.568V100.897H154.588V102.578H153.608V104.26H152.613V105.941H151.634V107.623H150.654V109.305H140.811ZM160.497 99.2149V100.897H159.517V102.578H158.522V103.419H157.542V101.737H158.522V98.3741H159.517V97.5333H160.497V95.8517H162.471V98.3741H161.476V99.2149H160.497ZM266.852 87.4437H265.872V89.1253H264.892V89.9661H263.897V93.3293H262.918V95.0109H261.938V96.6925H260.943V98.3741H259.963V100.897H258.984V102.578H257.989V104.26H257.009V105.941H256.029V109.305H256.014V108.464H255.034V109.305H234.354V104.26H233.375V105.941H232.38V107.623H231.4V109.305H221.557V108.464H222.537V107.623H223.517V104.26H224.512V102.578H225.491V100.897H226.471V99.2149H227.466V96.6925H228.446V95.0109H229.425V93.3293H230.42V92.4885H227.466V93.3293H226.471V95.0109H225.491V95.8517H224.512V97.5333H223.517V100.056H222.537V101.737H221.557V103.419H220.562V106.782H219.583V107.623H218.603V109.305H187.085V113.509H180.197V114.349H157.558V113.509H148.695V112.668H152.613V110.986H153.608V109.305H154.588V107.623H158.522V110.986H159.517V111.827H160.497V112.668H180.197V111.827H182.156V110.986H184.131V111.827H185.111V112.668H187.085V109.305H186.106V108.464H185.111V105.941H186.106V104.26H187.085V102.578H188.065V99.2149H189.06V98.3741H190.04V96.6925H191.019V93.3293H192.014V91.6477H192.994V90.8069H193.009V89.9661H193.989V89.1253H202.852V90.8069H201.857V94.1701H200.877V95.8517H199.898V97.5333H198.918V100.056H197.938V101.737H196.959V103.419H195.979V104.26H194.999V106.782H198.933V103.419H199.913V101.737H200.893V100.056H201.872V97.5333H202.852V95.8517H203.832V94.1701H204.811V92.4885H205.791V90.8069V89.9661H206.786V89.1253H216.613V89.9661H215.633V91.6477H214.638V93.3293H213.659V95.0109H212.679V97.5333V98.3741H211.699V99.2149H210.72V100.897H209.74V104.26H208.76V105.101H207.781V106.782H206.801V107.623H205.821V108.464H203.847V109.305H209.755V106.782H210.735V105.101H211.715V103.419H212.694V100.056H213.674V98.3741H214.654V97.5333H215.649V95.8517H216.628V92.4885H217.608V90.8069H218.603V89.1253H240.263V91.6477H239.283V93.3293H238.288V96.6925H237.308V98.3741H236.329V99.2149H235.334V100.897H234.354V104.26H235.334V102.578H236.329V100.897H237.308V99.2149H238.288V97.5333H239.283V95.8517H240.263V94.1701H241.242V92.4885H242.237V89.9661H243.217V89.1253H256.029V87.4437H257.009V85.7621H257.989V84.0805H258.984V83.2397H266.852V87.4437Z" fill="#FF83DC"/>
<path d="M169.36 100.056H172.314V100.897H173.294V103.419H172.314V105.941H171.334V107.623H172.314V106.782H173.294V104.26H174.288V103.419H175.268V102.578H176.248V101.737H177.243V100.056H180.197V99.2149H184.131V98.3741H179.202V97.5333H178.222V95.0109H179.202V92.4885H180.197V91.6477H179.202H178.222V92.4885H177.243V95.0109H176.248V95.8517H175.268V96.6925H174.288V97.5333H173.294V98.3741H167.385V99.2149H169.36V100.056Z" fill="#FF83DC"/>
<path d="M168.38 91.6477V90.8069H167.385V91.6477V92.4885H168.38V91.6477Z" fill="#FF83DC"/>
<path d="M82.7051 105.101V103.419H83.6848V100.056H84.6645V99.215H85.6594V98.3741H81.7102V100.056H80.7305V101.737H79.7508V105.101H78.7559V106.782H81.7102V105.101H82.7051Z" fill="#FF83DC"/>
<path d="M133.908 94.1701H132.928V95.8517H131.933V97.5333H130.954V98.3741H129.974V101.737H128.979V103.419H127.999V105.101H127.02V106.782H129.974V105.101H130.954V103.419H131.933V101.737H132.928V100.897H133.908V98.3741H134.888V96.6925H135.883V95.0109H136.862V93.3293H137.842V92.4885H133.908V94.1701Z" fill="#FF83DC"/>
<path d="M58.0758 101.722V102.563H59.0707V101.722V100.881H58.0758V101.722Z" fill="#FF83DC"/>
<path d="M59.0707 100.04V100.881H60.0504V100.04V99.1996H59.0707V100.04Z" fill="#FF83DC"/>
<path d="M61.0301 98.3588H60.0504V99.1996H61.0301V98.3588Z" fill="#FF83DC"/>
<path d="M61.0301 97.518V98.3588H62.025V97.518V96.6772H61.0301V97.518Z" fill="#FF83DC"/>
<path d="M50.2078 94.1701H49.2129V95.8517H48.2332V97.5333H47.2535V100.056H46.2585V101.737H45.2789V103.419H44.2992V105.101H43.3042V106.782H47.2535V103.419H48.2332V101.737H49.2129V100.056H50.2078V98.3741H51.1875V95.8517H52.1672V95.0109H53.1621V93.3293H54.1418V92.4885H50.2078V94.1701Z" fill="#FF83DC"/>
<path d="M87.6188 66.4236H88.6137V64.7419H89.5934V63.0603H90.5731V60.5379H91.568V59.6971H88.6137V60.5379H87.6188V62.2195H86.6391V64.7419H85.6594V66.4236H84.6645V67.2644H87.6188V66.4236Z" fill="#FF83DC"/>
<path d="M131.933 73.1347H132.928H133.908V72.2939V71.4531H134.888V70.6123V69.7868H135.883V68.946V68.1052H136.862V66.4236H137.842V63.0603H138.837V62.2195H139.817V61.3787H140.796V59.6971H137.842V60.5379H136.862V62.2195H135.883V63.0603H134.888V64.742H133.908V68.0899V68.1052H132.928V68.946V69.7715H131.933V70.6123V71.4531H130.954V72.2939H129.974V73.1347H130.954H131.933Z" fill="#FF83DC"/>
<defs>
<linearGradient id="paint0_linear_376_1604" x1="162.969" y1="116.031" x2="162.969" y2="132.006" gradientUnits="userSpaceOnUse">
<stop stop-color="#75FFC5"/>
<stop offset="0.796925" stop-color="#A9DEF9"/>
</linearGradient>
<linearGradient id="paint1_linear_376_1604" x1="224.029" y1="113.509" x2="224.029" y2="116.031" gradientUnits="userSpaceOnUse">
<stop stop-color="#75FFC5"/>
<stop offset="0.796925" stop-color="#A9DEF9"/>
</linearGradient>
<linearGradient id="paint2_linear_376_1604" x1="225.017" y1="112.668" x2="225.017" y2="113.509" gradientUnits="userSpaceOnUse">
<stop stop-color="#75FFC5"/>
<stop offset="0.796925" stop-color="#A9DEF9"/>
</linearGradient>
<linearGradient id="paint3_linear_376_1604" x1="167.898" y1="107.623" x2="167.898" y2="114.349" gradientUnits="userSpaceOnUse">
<stop stop-color="#75FFC5"/>
<stop offset="0.796925" stop-color="#A9DEF9"/>
</linearGradient>
<linearGradient id="paint4_linear_376_1604" x1="154.611" y1="89.1253" x2="154.611" y2="109.305" gradientUnits="userSpaceOnUse">
<stop stop-color="#75FFC5"/>
<stop offset="0.796925" stop-color="#A9DEF9"/>
</linearGradient>
<linearGradient id="paint5_linear_376_1604" x1="225.017" y1="89.1253" x2="225.017" y2="109.305" gradientUnits="userSpaceOnUse">
<stop stop-color="#75FFC5"/>
<stop offset="0.796925" stop-color="#A9DEF9"/>
</linearGradient>
<linearGradient id="paint6_linear_376_1604" x1="160.022" y1="95.8517" x2="160.022" y2="103.419" gradientUnits="userSpaceOnUse">
<stop stop-color="#75FFC5"/>
<stop offset="0.796925" stop-color="#A9DEF9"/>
</linearGradient>
<linearGradient id="paint7_linear_376_1604" x1="176.263" y1="89.1253" x2="176.263" y2="109.305" gradientUnits="userSpaceOnUse">
<stop stop-color="#75FFC5"/>
<stop offset="0.796925" stop-color="#A9DEF9"/>
</linearGradient>
<linearGradient id="paint8_linear_376_1604" x1="200.87" y1="89.1253" x2="200.87" y2="109.305" gradientUnits="userSpaceOnUse">
<stop stop-color="#75FFC5"/>
<stop offset="0.796925" stop-color="#A9DEF9"/>
</linearGradient>
<linearGradient id="paint9_linear_376_1604" x1="132.446" y1="89.1253" x2="132.446" y2="115.19" gradientUnits="userSpaceOnUse">
<stop stop-color="#75FFC5"/>
<stop offset="0.796925" stop-color="#A9DEF9"/>
</linearGradient>
<linearGradient id="paint10_linear_376_1604" x1="108.314" y1="89.1253" x2="108.314" y2="115.19" gradientUnits="userSpaceOnUse">
<stop stop-color="#75FFC5"/>
<stop offset="0.796925" stop-color="#A9DEF9"/>
</linearGradient>
<linearGradient id="paint11_linear_376_1604" x1="83.7001" y1="89.1253" x2="83.7001" y2="109.305" gradientUnits="userSpaceOnUse">
<stop stop-color="#75FFC5"/>
<stop offset="0.796925" stop-color="#A9DEF9"/>
</linearGradient>
<linearGradient id="paint12_linear_376_1604" x1="250.664" y1="83.2244" x2="250.664" y2="109.289" gradientUnits="userSpaceOnUse">
<stop stop-color="#75FFC5"/>
<stop offset="0.796925" stop-color="#A9DEF9"/>
</linearGradient>
<linearGradient id="paint13_linear_376_1604" x1="53.6673" y1="83.2397" x2="53.6673" y2="115.19" gradientUnits="userSpaceOnUse">
<stop stop-color="#75FFC5"/>
<stop offset="0.796925" stop-color="#A9DEF9"/>
</linearGradient>
<linearGradient id="paint14_linear_376_1604" x1="59.086" y1="83.2397" x2="59.086" y2="85.7621" gradientUnits="userSpaceOnUse">
<stop stop-color="#75FFC5"/>
<stop offset="0.796925" stop-color="#A9DEF9"/>
</linearGradient>
<linearGradient id="paint15_linear_376_1604" x1="114.72" y1="78.1948" x2="114.72" y2="86.6029" gradientUnits="userSpaceOnUse">
<stop stop-color="#75FFC5"/>
<stop offset="0.796925" stop-color="#A9DEF9"/>
</linearGradient>
<linearGradient id="paint16_linear_376_1604" x1="49.7256" y1="79.8764" x2="49.7256" y2="81.558" gradientUnits="userSpaceOnUse">
<stop stop-color="#75FFC5"/>
<stop offset="0.796925" stop-color="#A9DEF9"/>
</linearGradient>
<linearGradient id="paint17_linear_376_1604" x1="45.784" y1="78.1948" x2="45.784" y2="79.0356" gradientUnits="userSpaceOnUse">
<stop stop-color="#75FFC5"/>
<stop offset="0.796925" stop-color="#A9DEF9"/>
</linearGradient>
<linearGradient id="paint18_linear_376_1604" x1="87.1442" y1="55.4931" x2="87.1442" y2="76.5132" gradientUnits="userSpaceOnUse">
<stop stop-color="#75FFC5"/>
<stop offset="0.796925" stop-color="#A9DEF9"/>
</linearGradient>
<linearGradient id="paint19_linear_376_1604" x1="189.565" y1="66.4236" x2="189.565" y2="85.7621" gradientUnits="userSpaceOnUse">
<stop stop-color="#75FFC5"/>
<stop offset="0.796925" stop-color="#A9DEF9"/>
</linearGradient>
<linearGradient id="paint20_linear_376_1604" x1="44.8044" y1="13.4529" x2="44.8044" y2="81.5581" gradientUnits="userSpaceOnUse">
<stop stop-color="#75FFC5"/>
<stop offset="0.796925" stop-color="#A9DEF9"/>
</linearGradient>
<linearGradient id="paint21_linear_376_1604" x1="137.857" y1="50.4483" x2="137.857" y2="76.5132" gradientUnits="userSpaceOnUse">
<stop stop-color="#75FFC5"/>
<stop offset="0.796925" stop-color="#A9DEF9"/>
</linearGradient>
<linearGradient id="paint22_linear_376_1604" x1="62.0403" y1="55.4931" x2="62.0403" y2="76.5132" gradientUnits="userSpaceOnUse">
<stop stop-color="#75FFC5"/>
<stop offset="0.796925" stop-color="#A9DEF9"/>
</linearGradient>
<linearGradient id="paint23_linear_376_1604" x1="111.276" y1="55.4931" x2="111.276" y2="76.5132" gradientUnits="userSpaceOnUse">
<stop stop-color="#75FFC5"/>
<stop offset="0.796925" stop-color="#A9DEF9"/>
</linearGradient>
<linearGradient id="paint24_linear_376_1604" x1="160.512" y1="55.4931" x2="160.512" y2="81.558" gradientUnits="userSpaceOnUse">
<stop stop-color="#75FFC5"/>
<stop offset="0.796925" stop-color="#A9DEF9"/>
</linearGradient>
<linearGradient id="paint25_linear_376_1604" x1="91.5834" y1="49.6075" x2="91.5834" y2="53.8115" gradientUnits="userSpaceOnUse">
<stop stop-color="#75FFC5"/>
<stop offset="0.796925" stop-color="#A9DEF9"/>
</linearGradient>
</defs>
</svg>
