<svg width="179" height="88" viewBox="0 0 179 88" fill="none" xmlns="http://www.w3.org/2000/svg">
<g clip-path="url(#clip0_636_1210)">
<path d="M144.75 76.95H144.1V77.5H143.46V78.05H142.17V78.6H141.53V79.15H140.24V79.7H138.96V80.25H137.67V80.8H135.74V81.35H133.81V81.9H131.24V82.45H103.57V81.9H99.07V81.35H95.21V80.8H91.99V80.25H90.06V79.7H86.85V79.15H84.92V78.6H82.99V78.05H80.41V77.5H73.34V76.4H72.69V76.95H70.76V77.5H66.9V78.05H68.83V78.6H70.12V79.15H71.41V79.7H73.34V80.25H74.62V80.8H76.55V81.35H78.48V81.9H80.41V82.45H84.92V83H87.49V83.55H89.42V84.1H91.99V84.65H95.21V85.2H99.07V85.75H102.93V86.3H108.72V86.85H122.87V86.3H127.38V85.75H130.59V85.2H132.52V84.65H134.45V84.1H136.38V83.55H137.67V83H138.96V82.45H140.89V81.9H141.53V81.35H142.82V80.8H143.46V80.25H144.1V79.15H144.75V78.6H145.39V78.05H146.03V76.4H144.75V76.95Z" fill="url(#paint0_linear_636_1210)"/>
<path d="M146.03 75.3V75.85V76.4H146.68V75.85V75.3V74.75H146.03V75.3Z" fill="url(#paint1_linear_636_1210)"/>
<path d="M147.32 74.2001H146.68V74.7501H147.32V74.2001Z" fill="url(#paint2_linear_636_1210)"/>
<path d="M122.23 74.2V74.75H117.73V75.3H102.93V74.75H97.14V74.2H99.72V73.65H99.71V73.1H100.36V72H101V70.9H103.57V73.1H104.22V73.65H104.86V74.2H117.73V73.65H119.01V73.1H120.3V73.65H120.94V74.2H122.23Z" fill="url(#paint3_linear_636_1210)"/>
<path d="M110.01 58.8V59.9001H109.37V60.4501H109.36V61H103.57V62.6501H102.93V63.75H102.29V64.85H101.64V66.5H101V67.6H100.36V68.7H99.71V69.8001H99.07V70.9001H98.43V72H92V70.9001H92.64V70.35H93.28V69.25H93.93V68.1501H94.57V65.95H95.21V64.85H95.86V64.3H96.5V62.1H97.14V61H97.79V60.4501H98.43V59.35H99.07V58.8H110.01Z" fill="url(#paint4_linear_636_1210)"/>
<path d="M156.97 58.8V60.4501H156.33V61.55H155.69V63.75H155.04V64.85H154.4V65.4001H153.76V66.5H153.11V68.7H152.47V69.8001H151.83V70.9001H151.18V72H144.75V71.45H145.39V70.9001H146.03V68.7H146.68V67.6H147.32V66.5H147.96V65.4001H148.61V63.75H149.25V62.6501H149.9V61.55H150.54V61H148.61V61.55H147.96V62.6501H147.32V63.2001H146.68V64.3H146.03V65.95H145.39V67.0501H144.75V68.1501H144.1V70.35H143.46V70.9001H142.82V72H137.03V70.35H137.67V69.25H138.32V68.1501H138.96V65.95H139.6V64.85H140.25V64.3H140.89V63.2001H141.53V61H142.18V59.9001H142.82V58.8H156.97Z" fill="url(#paint5_linear_636_1210)"/>
<path d="M106.15 63.2001V64.8501H105.5V65.4001H104.86V66.5001H104.22V67.6001H103.57V68.1501H102.93V67.0501H103.57V64.8501H104.22V64.3001H104.86V63.2001H106.15Z" fill="url(#paint6_linear_636_1210)"/>
<path d="M124.8 58.8V61H124.16V62.1H123.52V63.2001H122.88V64.85H122.23V65.4001H121.59V66.5H120.95V67.6H120.3V69.8001H119.66V70.9001H118.37V71.45H117.73V72H106.15V71.45H105.5V69.25H106.15V67.0501H106.79V65.95H107.43V64.85H108.08V64.3H108.72V62.1H109.36V61H110.01V59.9001H110.65V58.8H124.8Z" fill="url(#paint7_linear_636_1210)"/>
<path d="M141.52 58.8V59.35H140.88V60.4501H140.24V61.55H139.59V62.6501H138.95V64.85H138.31V65.4001H137.66V66.5H137.02V68.7H136.38V69.25H135.73V70.35H135.09V70.9001H134.45V71.45H133.16V72H121.58V71.45H120.93V69.8001H121.58V68.7H122.22V67.6H122.87V65.4001H123.51V64.85H124.15V63.75H124.79V61.55H125.44V60.4501H126.08V59.35H126.72V58.8H132.51V59.9001H131.87V62.1H131.23V63.2001H130.59V64.3H129.94V65.95H129.3V67.0501H128.66V68.1501H128.01V68.7H127.37V70.35H129.94V68.1501H130.59V67.0501H131.23V65.95H131.87V64.3H132.52V63.2001H133.16V62.1H133.8V61H134.45V59.9001H134.44V59.35H135.09V58.8H141.52Z" fill="url(#paint8_linear_636_1210)"/>
<path d="M77.84 73.1V74.2H77.2V75.85H86.85V75.3H87.49V74.75H88.78V74.2H89.42V73.1H90.06V71.45H90.71V70.9H91.35V69.8H91.99V67.6H92.64V66.5H93.28V65.4H93.92V64.85H94.57V62.65H95.21V61.55H95.85V60.45H96.5V58.8H82.99V59.35H82.34V59.9001H81.7V61H81.06V62.1H80.41V64.3H79.77V64.85H79.13V65.95H78.48V66.5H77.84V68.7H77.2V70.35H76.55V70.9H77.2V72H83.63V73.1H77.84ZM82.99 70.35V69.25H83.63V68.15H84.27V67.05H84.92V64.85H85.56V64.3H86.2V63.2H86.85V62.1H87.49V61H90.06V61.55H89.42V62.65H88.78V63.75H88.13V64.85H87.49V66.5H86.85V67.05H86.2V68.15H85.56V69.25H84.92V70.35H82.99Z" fill="url(#paint9_linear_636_1210)"/>
<path d="M70.76 75.3H72.05V74.75H72.69V74.2H73.34V73.1H73.98V72H74.62V70.9H75.27V70.35H75.91V68.15H76.55V67.05H77.2V65.95H77.84V64.3H78.48V63.2H79.13V62.1H79.77V61H80.41V58.8H74.62V59.9001H73.98V61H73.34V63.2H72.69V64.3H72.05V64.85H71.41V65.95H70.76V68.15H70.12V68.7H69.48V69.8H68.83V70.35H66.9V69.8H67.55V68.7H68.19V67.6H68.83V65.4H69.48V64.85H70.12V63.75H70.76V61.55H71.41V60.45H72.05V59.35H72.69V58.8H66.26V60.45H65.62V61.55H64.97V62.65H64.33V63.75H63.69V65.4H63.04V65.95H62.4V67.05H61.76V69.25H61.11V71.45H61.76V72H68.19V72.55H67.55V73.1H61.76V74.75H61.11V75.85H70.76V75.3Z" fill="url(#paint10_linear_636_1210)"/>
<path d="M61.11 66.5H61.76V64.85H62.4V63.75H63.04V62.6501H63.69V60.4501H64.33V59.35H63.69V58.8H52.75V59.9001H52.11V61H57.9V61.55H57.25V62.1H50.18V62.6501H49.53V63.2001H48.25V64.3H47.6V65.4001H46.96V66.5H46.32V67.6H45.67V68.7H45.03V72H58.54V71.45H59.18V69.8001H59.83V68.7H60.47V67.6H61.11V66.5ZM55.97 65.4001H55.32V65.95H54.68V68.1501H54.04V69.25H53.39V70.35H51.46V69.25H52.11V67.0501H52.75V65.95H53.39V64.85H55.97V65.4001Z" fill="url(#paint11_linear_636_1210)"/>
<path d="M173.7 54.9401H169.2V55.4901H168.56V56.5901H167.92V57.6901H167.28V58.7901H158.92V59.3401H158.28V60.9901H157.64V62.0901H157V63.1901H156.36V64.2901H155.72V65.3901H155.08V66.4901H154.44V67.5901H153.8V68.6901H153.16V71.9901H166.67V71.4401H167.31V69.7901H167.95V68.6901H168.59V67.5901H169.23V66.4901H169.87V64.8401H170.51V63.7401H171.15V62.6401H171.79V61.5401H172.43V59.3401H173.07V58.7901H173.71V57.6901H174.35V54.9401H173.71H173.7ZM159.55 69.7901V69.2401H160.19V67.0401H160.83V65.9401H161.47V64.8401H162.11V64.2901H162.75V62.0901H163.39V60.9901H165.96V61.5401H165.32V63.7401H164.68V64.8401H164.04V65.3901H163.4V65.9401H162.76V68.1401H162.12V69.2401H161.48V70.3401H159.55V69.7901Z" fill="url(#paint12_linear_636_1210)"/>
<path d="M45.03 65.9501H45.67V64.8501H46.32V64.3001H46.96V63.2001H47.6V61.0001H48.25V59.9001H48.89V58.8001H49.53V57.1501H50.18V56.0501H50.82V54.9501H45.03V56.0501H44.39V57.1501H43.74V58.2501H43.1V58.8001H42.46V61.0001H41.81V62.1001H41.17V63.2001H40.53V61.5501H41.17V59.9001H41.81V59.3501H41.17V58.8001H27.66V59.9001H27.02V61.0001H26.37V62.6501H25.73V63.7501H25.09V64.8501H24.44V65.4001H23.8V67.6001H23.16V68.7001H22.51V69.8001H21.87V70.9001H21.23V72.5501H20.58V73.6501H19.94V74.7501H19.3V75.8501H25.73V74.7501H26.37V72.5501H27.02V72.0001H34.74V71.4501H35.38V70.9001H36.02V70.3501H36.67V69.8001H37.31V68.7001H37.95V69.8001H37.31V70.9001H36.67V72.0001H42.46V70.9001H43.1V70.3501H43.74V69.2501H44.39V68.1501H45.03V65.9501ZM35.38 61.5501H34.74V62.6501H34.09V63.2001H33.45V64.8501H32.81V65.9501H32.16V67.0501H31.52V68.1501H30.88V70.3501H28.3V69.2501H28.95V68.1501H29.59V67.0501H30.23V65.9501H30.88V64.3001H31.52V63.2001H32.16V62.1001H32.81V61.0001H35.38V61.5501ZM40.53 64.8501H39.88V65.4001H39.24V66.5001H38.6V67.6001H37.95V66.5001H38.6V65.4001H39.24V64.8501H39.88V63.7501H40.53V64.8501Z" fill="url(#paint13_linear_636_1210)"/>
<path d="M40.53 56.0501H39.24V55.5001H37.95V54.9501H36.67V56.6001H40.53V56.0501Z" fill="url(#paint14_linear_636_1210)"/>
<path d="M65.62 57.15V56.6H112.58V56.05H109.36V55.5H105.5V56.05H91.99V52.75H78.48V52.2H77.84V52.75H46.96V52.2H46.32V51.65H45.03V52.2H43.74V52.75H37.31V53.3H38.6V53.85H40.53V54.4H41.81V54.95H42.46V54.4H43.1V53.3H54.68V53.85H54.04V54.95H53.39V56.05H52.75V56.6H64.33V57.15H65.62Z" fill="url(#paint15_linear_636_1210)"/>
<path d="M33.45 53.85V53.3H34.09V52.75H30.88V53.3H32.16V53.85H33.45Z" fill="url(#paint16_linear_636_1210)"/>
<path d="M30.23 51.65H29.59V52.2H30.23V51.65Z" fill="url(#paint17_linear_636_1210)"/>
<path d="M62.4 47.25V46.15H63.04V45.05H63.69V42.85H64.33V42.3H64.97V41.75H65.62V40.65H66.26V36.8H54.04V37.35H52.75V37.9001H52.11V39.55H51.46V40.65H50.82V41.75H50.18V42.3H49.53V44.5H48.89V45.6H48.25V46.7H47.6V50.55H60.47V50H61.11V48.9H61.76V48.35H53.39V47.25H62.4ZM55.32 43.95H55.97V42.85H56.61V41.2H57.25V40.1H57.9V39.55H59.83V40.1H59.18V41.75H58.54V42.85H57.9V43.95H57.25V44.5H55.32V43.95Z" fill="url(#paint18_linear_636_1210)"/>
<path d="M114.51 44.5001V43.9501H113.87V44.5001H113.22V46.1501H112.58V47.2501H111.94V47.8001H113.22V48.3501H114.51V48.9001H115.8V49.4501H117.73V50.0001H118.37V50.5501H120.3V51.1001H120.94V51.6501H122.87V52.2001H123.52V52.7501H124.8V53.3001H126.73V53.8501H127.38V54.4001H128.66V54.9501H129.31V55.5001H129.95V56.0501H130.59V56.6001H135.74V56.0501H135.1V55.5001H134.45V54.9501H133.81V54.4001H133.17V53.8501H131.88V53.3001H130.59V52.7501H129.95V52.2001H129.31V51.6501H128.02V51.1001H127.38V50.5501H126.73V50.0001H125.45V49.4501H124.8V48.9001H124.16V48.3501H122.87V47.8001H122.23V47.2501H120.3V46.7001H119.01V46.1501H117.73V45.6001H116.44V45.0501H115.8V44.5001H114.51Z" fill="url(#paint19_linear_636_1210)"/>
<path d="M19.3 48.35H20.58V47.8H21.23V47.25H24.44V47.8H25.09V48.35H26.37V49.45H27.02V50H28.3V51.1H28.95V51.65H29.59V51.1V50.55H28.95V47.25H29.59V46.15H30.23V45.6H30.88V44.5H31.52V43.95H32.16V42.3H32.81V40.65H33.45V38.45H34.09V37.35H34.74V36.8H35.38V35.7H37.31V35.15H40.53V34.6H41.17V34.05H41.81V33.5H42.46V32.95H43.1V32.4H43.74V31.85H44.39V31.3H45.03V30.75H45.67V30.2H46.32V29.65H47.6V28.55H48.89V28H49.53V26.9H50.18V25.8H47.6V25.25H45.03V24.7H42.46V24.15H37.31V20.85H36.67V15.9H36.02V10.95H35.38V9.30005H34.74V9.85005H34.09V10.4H33.45V12.05H32.81V12.6H32.16V13.15H31.52V13.7H30.88V15.35H30.23V15.9H29.59V16.45H28.95V17.55H28.3V18.65H27.66V19.2H27.02V19.75H26.37V21.4H25.73V21.95H25.09V23.05H24.44V23.6H23.8V24.15H16.72V24.7H13.51V25.25H9.64999V27.45H10.29V28.55H10.93V29.65H12.22V31.85H12.86V32.95H13.51V34.05H14.15V35.7H14.79V36.25H15.44V37.35H16.08V37.9H15.44V39H14.79V40.1H14.15V41.75H13.51V43.4H12.86V44.5H12.22V46.7H11.58V47.25H10.93V48.35H10.29V49.45H9.64999V52.2H8.99999V53.3H8.35999V53.85H9.64999V53.3H11.58V52.75H12.22V52.2H13.51V51.65H14.15V51.1H15.44V50.55H16.72V50H17.37V49.45H18.65V48.9H19.3V48.35Z" fill="url(#paint20_linear_636_1210)"/>
<path d="M79.77 46.7V47.25H79.12V50H79.77V50.55H91.99V50H92.63V49.45H93.28V48.35H93.92V47.25H94.56V46.15H94.57V45.6H95.21V44.5H95.85V43.4H96.5V41.75H97.14V40.65H97.78V39.55H98.43V38.45H99.07V36.25H100.36V34.6H101V33.5H94.57V35.7H93.92V36.25H93.28V36.8H85.56V37.35H84.92V37.9H84.27V39H83.63V40.1H82.99V41.75H82.34V42.3H81.7V43.4H81.05V44.5H80.41V46.7H79.77ZM84.91 47.8H85.56V47.25H86.2V46.15H86.85V45.05H87.49V42.85H88.13V41.75H88.78V41.2H89.42V40.1H90.06V39.55H91.99V40.65H91.35V41.2H90.71V41.75H90.06V43.95H89.42V45.05H88.78V46.15H88.13V47.25H87.49V48.35H84.91V47.8Z" fill="url(#paint21_linear_636_1210)"/>
<path d="M43.1 50H44.39V49.45H45.03V48.35H45.67V47.25H46.32V46.7H46.96V45.6H47.6V42.85H46.96V42.3H40.53V41.2H41.17V40.1H41.81V39.55H43.74V40.65H43.1V41.75H49.53V39.55H50.18V37.35H49.53V36.8H37.95V37.35H37.31V37.9001H36.67V38.45H36.02V39H35.38V41.2H34.74V41.75H34.09V44.5H34.74V45.05H41.17V45.6H40.53V47.25H39.88V48.35H37.31V47.8H37.95V46.7H32.16V47.25H31.52V47.8H30.88V50H31.52V50.55H43.1V50Z" fill="url(#paint22_linear_636_1210)"/>
<path d="M68.83 36.8V39H68.19V40.1H67.55V41.2H66.9V41.75H66.26V43.95H65.62V45.05H64.97V46.15H64.33V47.25H63.69V48.35H63.04V49.45H62.4V50.55H68.83V48.9H69.48V47.8H70.12V47.25H70.76V45.05H71.41V43.95H72.05V42.85H72.69V41.75H73.34V40.1H75.91V41.75H75.27V42.3H74.62V43.4H73.98V44.5H73.34V46.7H72.69V47.25H72.05V48.35H71.41V48.9H70.76V50.55H77.2V49.45H77.84V47.25H78.48V46.7H79.13V45.6H79.77V44.5H80.41V42.3H81.06V41.75H81.7V40.65H82.34V39.55H82.99V37.35H82.34V36.8H68.83Z" fill="url(#paint23_linear_636_1210)"/>
<path d="M101 37.35H100.36V37.9001V38.4501H99.71V39H99.07V41.2001H98.43V41.75H97.78V42.3V42.85H97.14V43.4001V43.9501H96.5V44.5V45.05V45.6V46.1501H95.85V46.7001V47.25H95.21V47.8H94.57V48.35V48.9001V49.4501V50H95.21V50.55H95.85H96.5H97.14H97.78H98.43H99.07H99.71H100.36H101H101.64V51.1V51.6501H101H100.36H99.71H99.07H98.43H97.78H97.14H96.5H95.85V52.2001V52.75H95.21V53.3H94.57V53.85H95.21H95.85H96.5H97.14H97.78H98.43H99.07H99.71H100.36H101H101.64H102.29H102.93H103.57H104.22H104.86V53.3H105.5H106.15H106.79V52.75H107.43V52.2001V51.6501H108.08V51.1V50.55H108.72V50V49.4501V48.9001H109.36V48.35V47.8H110.01V47.25H110.65V46.7001V46.1501V45.6V45.05H111.29V44.5V43.9501H111.94V43.4001V42.85H112.58V42.3V41.75H113.22V41.2001V40.6501V40.1H113.87V39.55V39H114.51V38.4501V37.9001H115.15V37.35V36.8H114.51H113.87H113.22H112.58H111.94H111.29H110.65H110.01H109.36H108.72V37.35V37.9001V38.4501V39H108.08V39.55V40.1H107.43V40.6501H106.79V41.2001V41.75H106.15V42.3V42.85V43.4001H105.5V43.9501V44.5H104.86V45.05V45.6H104.22V46.1501V46.7001H103.57V47.25V47.8V48.35H102.93H102.29H101.64V47.8V47.25V46.7001H102.29V46.1501V45.6H102.93V45.05V44.5H103.57V43.9501V43.4001V42.85V42.3H104.22V41.75H104.86V41.2001V40.6501H105.5V40.1V39.55H106.15V39V38.4501V37.9001V37.35H106.79V36.8H106.15H105.5H104.86H104.22H103.57H102.93H102.29H101.64H101V37.35Z" fill="url(#paint24_linear_636_1210)"/>
<path d="M47.6 32.9501V34.0501H46.96V34.6001H46.32V35.1501H66.26V35.7001H68.19V35.1501H73.34V34.6001H70.76V34.0501H66.26V33.5001H61.76V32.9501H47.6Z" fill="url(#paint25_linear_636_1210)"/>
<path d="M164.69 61H164.04H163.4V61.55V62.1H162.76V62.65V63.2V63.75V64.3H162.11V64.85H161.47V65.4V65.95H160.83V66.5V67.05H160.18V67.6V68.15V68.7V69.25H159.54V69.8V70.35H160.18H160.83H161.47V69.8V69.25H162.11V68.7V68.15H162.76V67.6V67.05V66.5V65.95H163.4V65.4H164.04V64.85H164.69V64.3V63.75H165.33V63.2V62.65V62.1V61.55H165.97V61H165.33H164.69Z" fill="#FF83DC"/>
<path d="M167.26 53.3V54.95H166.61V56.05H165.97V56.6H159.54V57.15H156.96V56.6H130.59V56.05H129.95V55.5H129.31V54.95H128.66V54.4H127.38V53.85H126.73V53.3H124.8V52.75H123.52V52.2H122.87V51.65H120.94V51.1H120.3V50.55H118.37V50H117.73V49.45H115.8V48.9H114.51V48.35H113.22V47.8H111.94V47.25H112.58V46.15H113.22V44.5H113.87V43.4H114.51V42.3H115.15V41.75H115.8V39.55H116.44V38.45H117.08V37.35H117.73V35.7H118.37V35.15H102.93V34.05H103.57V32.4H104.22V31.85H93.28V32.95H92.64V34.05H91.99V35.15H82.98V34.6H80.41V34.05H77.84V33.5H74.62V32.95H70.76V32.4H66.9V31.85H58.54V31.3H50.18V30.75H50.82V30.2H52.11V29.65H52.75V29.1H53.39V28.55H54.04V28H54.68V27.45H55.32V26.9H55.97V26.35H56.61V25.25H57.9V24.7H58.54V24.15H55.32V23.6H52.11V23.05H49.53V22.5H47.6V21.95H45.03V21.4H42.46V20.85H40.53V19.75H39.88V14.8H39.24V9.85H38.6V4.9H37.95V0.5H36.67V1.6H36.02V2.15H35.38V3.8H34.74V4.35H34.09V4.9H33.45V6.55H32.16V7.65H31.52V8.2H30.88V9.85H30.23V10.95H29.59V11.5H28.95V12.05H28.3V13.15H27.66V13.7H27.02V14.25H26.37V15.9H25.73V16.45H25.09V17.55H24.44V18.1H23.8V19.2H23.16V19.75H22.51V20.3H21.23V20.85H18.65V21.4H14.79V21.95H12.22V22.5H8.36V23.05H5.14V23.6H1.93V24.15H2.57V25.25H3.21V26.9H3.86V28H4.5V29.1H5.14V30.2H5.79V31.3H6.43V32.4H7.07V34.6H7.72V35.7H9V36.8H9.65V39H10.29V41.75H9.65V43.4H9V44.5H8.36V45.6H7.72V46.7H7.07V48.9H6.43V50H5.79V51.1H5.14V53.3H4.5V53.85H3.86V55.5H3.21V56.6H2.57V58.8H1.93V59.35H1.28V60.45H0.64V61.55H0V62.65H1.93V62.1H2.57V61.55H3.86V61H5.14V60.45H5.79V59.9H6.43V59.35H7.07V58.8H9.65V58.25H10.29V57.7H11.58V57.15H12.22V56.6H13.51V56.05H14.15V55.5H15.44V54.95H16.72V54.4H17.37V53.85H18.65V53.3H23.16V53.85H23.8V54.95H24.44V55.5H25.73V56.05H26.37V58.25H25.73V58.8H25.09V59.9H24.44V61H23.8V63.19H23.15V64.29H22.5V64.84H21.86V65.94H21.22V68.14H20.57V69.24H19.93V70.34H19.29V71.99H18.64V73.09H18V74.19H17.36V75.29H16.71V76.94H16.07V77.49H27.01V76.39H27.65V75.84H28.29V74.19H43.73V73.64H45.02V74.19H50.17V71.99H45.03V68.7H45.67V67.6H46.32V66.5H46.96V65.4H47.6V64.3H48.25V63.2H49.53V62.65H50.18V62.1H57.25V61.55H57.89V61H52.11V59.9H52.75V58.8H63.69V59.35H64.33V60.45H63.69V62.65H63.04V63.75H62.4V64.85H61.76V66.5H61.11V67.6H60.47V68.7H59.83V69.8H59.18V71.45H58.54V72H50.18V74.2H59.18V75.3H58.54V76.4H57.25V77.5H70.76V76.95H72.69V76.4H73.34V77.5H80.41V78.05H82.99V78.6H84.92V79.15H86.85V79.7H90.06V80.25H91.99V80.8H95.21V81.35H99.07V81.9H103.57V82.45H131.24V81.9H133.81V81.35H135.74V80.8H137.67V80.25H138.96V79.7H140.24V79.15H141.53V78.6H142.17V78.05H143.46V77.5H144.1V76.95H144.75V76.4H146.03V74.75H146.68V74.2H152.46V73.65H153.1V74.2H167.9V73.1H168.54V72H169.19V70.9H169.83V69.25H170.47V68.15H171.12V67.05H171.76V65.95H172.4V64.3H173.05V63.2H173.69V62.1H174.33V59.9H174.98V58.8H175.62V58.25H176.26V57.7H176.91V55.5H177.55V54.4H178.19V53.3H167.26ZM106.79 36.8V37.35H106.15V39.55H105.5V40.65H104.86V41.75H104.22V42.3H103.57V44.5H102.93V45.6H102.29V46.7H101.64V48.35H103.57V46.7H104.22V45.6H104.86V44.5H105.5V43.4H106.15V41.75H106.79V40.65H107.43V40.1H108.08V39H108.72V36.8H115.15V37.9H114.51V39H113.87V40.1H113.22V41.75H112.58V42.85H111.94V43.95H111.29V45.05H110.65V47.25H110.01V47.8H109.36V48.9H108.72V50.55H108.08V51.65H107.43V52.75H106.79V53.3H104.86V53.85H94.57V53.29H95.21V52.74H95.85V51.64H101.64V50.54H95.21V50H94.57V47.8H95.21V47.25H95.85V46.15H96.5V43.95H97.14V42.85H97.78V41.75H98.43V41.2H99.07V39H99.71V38.45H100.36V37.35H101V36.8H106.79ZM82.34 36.8V37.35H82.99V39.55H82.34V40.65H81.7V41.75H81.06V42.3H80.41V44.5H81.06V43.4H81.7V42.3H82.34V41.75H82.99V40.1H83.63V39H84.27V37.9H84.92V37.35H85.56V36.8H93.28V36.25H93.92V35.7H94.57V33.5H101V34.6H100.36V36.25H99.07V38.45H98.43V39.55H97.78V40.65H97.14V41.75H96.5V43.4H95.85V44.5H95.21V45.6H94.57V47.25H93.92V48.35H93.28V49.45H92.64V50H91.99V50.55H79.77V50H79.13V47.25H79.77V46.7H80.41V44.5H79.77V45.6H79.13V46.7H78.48V47.25H77.84V49.45H77.2V50.55H70.76V48.9H71.41V48.35H72.05V47.25H72.69V46.7H73.34V44.5H73.98V43.4H74.62V42.3H75.27V41.75H75.91V40.1H73.34V41.75H72.69V42.85H72.05V43.95H71.41V45.05H70.76V47.25H70.12V47.8H69.48V48.9H68.83V50.55H62.4V49.45H63.04V48.35H63.69V47.25H64.33V46.15H64.97V45.05H65.62V43.95H66.26V41.75H66.9V41.2H67.55V40.1H68.19V39H68.83V36.8H82.34ZM61.76 48.35V48.9H61.11V50H60.47V50.55H47.6V46.7H48.25V45.6H48.89V44.5H49.53V42.3H50.18V41.75H50.82V40.65H51.46V39.55H52.11V37.9H52.75V37.35H54.04V36.8H66.26V40.65H65.62V41.75H64.97V42.3H64.33V42.85H63.69V45.05H63.04V46.15H62.4V47.25H53.39V48.35H61.76ZM39.24 55.5V56.05H40.53V56.6H36.67V54.95H37.95V55.5H39.24ZM31.52 50.55V50H30.88V47.8H31.52V47.25H32.16V46.7H37.95V47.8H37.31V48.35H39.88V47.25H40.53V45.6H41.17V45.05H34.74V44.5H34.09V41.75H34.74V41.2H35.38V39H36.02V38.45H36.67V37.9H37.31V37.35H37.95V36.8H49.53V37.35H50.18V39.55H49.53V41.75H43.1V40.65H43.74V39.55H41.81V40.1H41.17V41.2H40.53V42.3H46.96V42.85H47.6V45.6H46.96V46.7H46.32V47.25H45.67V48.35H45.03V49.45H44.39V50H43.1V50.55H31.52ZM30.88 53.3V52.75H34.09V53.3H33.45V53.85H32.16V53.3H30.88ZM61.76 32.95V33.5H66.26V34.05H70.76V34.6H73.33V35.15H68.19V35.7H66.26V35.15H46.32V34.6H46.96V34.05H47.6V32.95H61.76ZM25.09 48.35V47.8H24.44V47.25H21.23V47.8H20.58V48.35H19.3V48.9H18.65V49.45H17.37V50H16.72V50.55H15.44V51.1H14.15V51.65H13.51V52.2H12.22V52.75H11.58V53.3H9.65V53.85H8.36V53.3H9V52.2H9.65V49.45H10.29V48.35H10.93V47.25H11.58V46.7H12.22V44.5H12.86V43.4H13.51V41.75H14.15V40.1H14.79V39H15.44V37.9H16.08V37.35H15.44V36.25H14.79V35.7H14.15V34.05H13.51V32.95H12.86V31.85H12.22V29.65H10.93V28.55H10.29V27.45H9.65V25.25H13.51V24.7H16.72V24.15H23.8V23.6H24.44V23.05H25.09V21.95H25.73V21.4H26.37V19.75H27.02V19.2H27.66V18.65H28.3V17.55H28.95V16.45H29.59V15.9H30.23V15.35H30.88V13.7H31.52V13.15H32.16V12.6H32.81V12.05H33.45V10.4H34.09V9.85H34.74V9.3H35.38V10.95H36.02V15.9H36.67V20.85H37.31V24.15H42.46V24.7H45.03V25.25H47.6V25.8H50.18V26.9H49.53V28H48.89V28.55H47.6V29.65H46.32V30.2H45.67V30.75H45.03V31.3H44.39V31.85H43.74V32.4H43.1V32.95H42.46V33.5H41.81V34.05H41.17V34.6H40.53V35.15H37.31V35.7H35.38V36.8H34.74V37.35H34.09V38.45H33.45V40.65H32.81V42.3H32.16V43.95H31.52V41.75H32.16V39H32.81V35.7H33.45V35.15H34.09V34.6H34.74V34.05H35.38V33.5H36.02V32.95H36.67V32.4H37.31V31.85H37.95V31.3H38.6V30.75H39.24V30.2H39.88V29.65H40.53V29.1H38.6V28.55H36.02V28H34.09V26.35H33.45V24.15H32.81V19.2H31.52V20.3H30.88V21.4H30.23V22.5H29.59V23.05H28.95V23.6H28.3V24.7H27.66V25.25H27.02V26.35H26.37V27.45H25.09V28H21.87V28.55H18.65V29.1H18.01V29.65H18.65V30.75H19.3V32.95H19.94V34.05H20.58V34.6H21.23V36.25H20.58V37.35H19.94V38.45H19.3V40.65H18.65V41.75H18.01V42.85H17.37V43.95H16.72V44.5H18.65V43.95H19.3V43.4H20.58V42.85H21.23V42.3H22.51V41.75H24.44V41.2H26.37V41.75H27.66V42.3H28.3V43.4H29.59V43.95H30.23V44.5H30.88V45.6H30.23V46.15H29.59V47.25H28.95V50.55H29.59V51.65H30.23V52.2H29.59V51.65H28.95V51.1H28.3V50H27.02V49.45H26.37V48.35H25.09ZM50.82 56.05H50.18V57.15H49.53V58.8H48.89V59.9H48.25V61H47.6V63.2H46.96V64.3H46.32V64.85H45.67V65.95H45.03V68.15H44.39V69.25H43.74V70.35H43.1V70.9H42.46V71.99H36.66V70.89H37.3V69.79H37.93V68.69H37.29V69.79H36.66V70.34H36.01V70.89H35.37V71.44H34.73V71.99H27.01V72.54H26.36V74.74H25.72V75.84H19.29V74.74H19.93V73.64H20.57V72.54H21.22V70.89H21.86V69.79H22.5V68.69H23.15V67.59H23.79V65.39H24.43V64.84H25.08V63.74H25.72V63.2V62.65H26.36V61H27.01V59.9H27.65V58.8H41.16V59.35H41.8V59.9H41.16V61.55H40.52V63.2H41.16V62.1H41.8V61H42.45V58.8H43.09V58.25H43.73V57.15H44.38V56.05H45.02V54.95H50.81V56.05H50.82ZM52.75 56.6V56.05H53.39V54.95H54.04V53.85H54.68V53.3H43.1V54.4H42.46V54.95H41.81V54.4H40.53V53.85H38.6V53.3H37.31V52.75H43.74V52.2H45.03V51.65H46.32V52.2H46.96V52.75H77.84V52.2H78.48V52.75H91.99V56.05H105.5V55.5H109.36V56.05H112.58V56.6H65.62V57.15H64.33V56.6H52.75ZM75.91 70.35H75.27V70.9H74.62V72H73.98V73.1H73.34V74.2H72.69V74.75H72.05V75.3H70.76V75.85H61.11V74.75H61.76V73.1H67.55V72.55H68.19V72H61.76V71.45H61.11V69.25H61.76V67.05H62.4V65.95H63.04V65.4H63.69V63.75H64.33V62.65H64.97V61.55H65.62V60.45H66.26V58.8H72.69V59.35H72.05V60.45H71.41V61.55H70.76V63.75H70.12V64.85H69.48V65.4H68.83V67.6H68.19V68.7H67.55V69.8H66.9V70.35H68.83V69.8H69.48V68.7H70.12V68.15H70.76V65.95H71.41V64.85H72.05V64.3H72.69V63.2H73.34V61H73.98V59.9H74.62V58.8H80.41V61H79.77V62.1H79.13V63.2H78.48V64.3H77.84V65.95H77.2V67.05H76.55V68.15H75.91V70.35ZM91.35 69.8V70.9H90.71V71.45H90.06V73.1H89.42V74.2H88.78V74.75H87.49V75.3H86.85V75.85H77.2V74.2H77.84V73.1H83.63V72H77.2V70.9H76.55V70.35H77.2V68.7H77.84V66.5H78.48V65.95H79.13V64.85H79.77V64.3H80.41V62.1H81.06V61H81.7V59.9H82.34V59.35H82.99V58.8H96.5V60.45H95.85V61.55H95.21V62.65H94.57V64.85H93.92V65.4H93.28V66.5H92.64V67.6H91.99V69.8H91.35ZM91.99 72V70.9H92.64V70.35H93.28V69.25H93.92V68.15H94.57V65.95H95.21V64.85H95.85V64.3H96.5V62.1H97.14V61H97.78V60.45H98.43V59.35H99.07V58.8H110V59.9H110.64V58.8H124.8V59.9H124.79V61H124.15V62.1H123.51V63.2H122.86V64.85H122.22V65.4H121.58V66.5H120.93V67.6H120.29V69.8H119.65V70.9H118.36V71.45H117.72V72H106.14V71.45H105.49V69.25H106.14V67.05H106.78V65.95H107.42V64.85H108.07V64.3H108.71V62.1H109.35V61H103.56V62.65H102.92V63.75H102.28V64.85H101.63V66.5H100.99V67.6H100.35V68.7H99.7V69.8H99.06V70.9H98.42V72H91.99ZM104.85 65.4V66.5H104.21V67.6H103.56V68.15H102.92V67.05H103.56V64.85H104.21V64.3H104.85V63.2H106.14V64.85H105.49V65.4H104.85ZM174.33 57.7H173.69V58.8H173.05V59.35H172.4V61.55H171.76V62.65H171.12V63.75H170.47V64.85H169.83V66.5H169.19V67.6H168.54V68.7H167.9V69.8H167.26V72H167.25V71.45H166.61V72H153.1V68.7H152.46V69.8H151.81V70.9H151.17V72H144.74V71.45H145.38V70.9H146.02V68.7H146.67V67.6H147.31V66.5H147.95V65.4H148.6V63.75H149.24V62.65H149.88V61.55H150.53V61H148.6V61.55H147.95V62.65H147.31V63.2H146.67V64.3H146.02V65.95H145.38V67.05H144.74V68.15H144.09V70.35H143.45V70.9H142.81V72H122.22V74.75H117.72V75.3H102.93V74.75H97.14V74.2H99.7V73.1H100.35V72H100.99V70.9H103.56V73.1H104.21V73.65H104.85V74.2H117.72V73.65H119V73.1H120.29V73.65H120.93V74.2H122.22V72H121.58V71.45H120.93V69.8H121.58V68.7H122.22V67.6H122.86V65.4H123.51V64.85H124.15V63.75H124.79V61.55H125.44V60.45H126.08V59.9H126.09V59.35H126.73V58.8H132.52V59.9H131.87V62.1H131.23V63.2H130.59V64.3H129.95V65.95H129.31V67.05H128.67V68.15H128.03V68.7H127.39V70.35H129.96V68.15H130.6V67.05H131.24V65.95H131.88V64.3H132.52V63.2H133.16V62.1H133.8V61H134.44V59.9V59.35H135.09V58.8H141.51V59.35H140.87V60.45H140.22V61.55H139.58V62.65H138.94V64.3V64.85H138.3V65.4H137.66V66.5H137.02V68.7H136.38V69.25H135.74V70.35H135.1V70.9H134.46V71.45H133.17V72H137.03V70.35H137.67V69.25H138.31V68.15H138.95V65.95H139.59V64.85H140.23V64.3H140.88V63.2H141.52V61H142.16V59.9H142.81V58.8H156.96V60.45H156.32V61.55H155.67V63.75H155.03V64.85H154.39V65.4H153.74V66.5H153.1V68.7H153.74V67.6H154.39V66.5H155.03V65.4H155.67V64.3H156.32V63.2H156.96V62.1H157.6V61H158.25V59.35H158.89V58.8H167.26V57.7H167.9V56.6H168.54V55.5H169.19V54.95H174.33V57.7Z" fill="#FF83DC"/>
<path d="M110.64 65.9499H112.57V66.5H113.21V68.15H112.57V69.8H111.93V70.9H112.57V70.35H113.21V68.7H113.86V68.15H114.5V67.6H115.14V67.05H115.79V65.9499H117.72V65.4H120.29V64.85H117.07V64.3H116.43V62.65H117.07V61H117.72V60.45H117.07H116.43V61H115.79V62.65H115.14V63.2H114.5V63.75H113.86V64.3H113.21V64.85H109.35V65.4H110.64V65.9499Z" fill="#FF83DC"/>
<path d="M110 60.45V59.9H109.35V60.45V61H110V60.45Z" fill="#FF83DC"/>
<path d="M54.03 69.25V68.15H54.67V65.95H55.31V65.4H55.96V64.85H53.38V65.95H52.74V67.05H52.1V69.25H51.45V70.35H53.38V69.25H54.03Z" fill="#FF83DC"/>
<path d="M87.48 62.1H86.84V63.2H86.19V64.3H85.55V64.85H84.91V67.05H84.26V68.15H83.62V69.25H82.98V70.35H84.91V69.25H85.55V68.15H86.19V67.05H86.84V66.5H87.48V64.85H88.12V63.75H88.77V62.65H89.41V61.55H90.05V61H87.48V62.1Z" fill="#FF83DC"/>
<path d="M37.94 67.04V67.59H38.59V67.04V66.49H37.94V67.04Z" fill="#FF83DC"/>
<path d="M38.59 65.94V66.49H39.23V65.94V65.39H38.59V65.94Z" fill="#FF83DC"/>
<path d="M39.87 64.84H39.23V65.39H39.87V64.84Z" fill="#FF83DC"/>
<path d="M39.87 64.29V64.84H40.52V64.29V63.74H39.87V64.29Z" fill="#FF83DC"/>
<path d="M32.8 62.1H32.15V63.2H31.51V64.3H30.87V65.95H30.22V67.05H29.58V68.15H28.94V69.25H28.29V70.35H30.87V68.15H31.51V67.05H32.15V65.95H32.8V64.85H33.44V63.2H34.08V62.65H34.73V61.55H35.37V61H32.8V62.1Z" fill="#FF83DC"/>
<path d="M57.24 43.95H57.89V42.85H58.53V41.75H59.17V40.1H59.82V39.55H57.89V40.1H57.24V41.2H56.6V42.85H55.96V43.95H55.31V44.5H57.24V43.95Z" fill="#FF83DC"/>
<path d="M86.19 48.34H86.84H87.48V47.79V47.24H88.12V46.69V46.15H88.77V45.6V45.05H89.41V43.95H90.05V41.75H90.7V41.2H91.34V40.6501H91.98V39.55H90.05V40.1H89.41V41.2H88.77V41.75H88.12V42.85H87.48V45.04V45.05H86.84V45.6V46.14H86.19V46.69V47.24H85.55V47.79H84.91V48.34H85.55H86.19Z" fill="#FF83DC"/>
</g>
<defs>
<linearGradient id="paint0_linear_636_1210" x1="106.465" y1="76.4" x2="106.465" y2="86.85" gradientUnits="userSpaceOnUse">
<stop stop-color="#75FFC5"/>
<stop offset="0.796925" stop-color="#A9DEF9"/>
</linearGradient>
<linearGradient id="paint1_linear_636_1210" x1="146.355" y1="74.75" x2="146.355" y2="76.4" gradientUnits="userSpaceOnUse">
<stop stop-color="#75FFC5"/>
<stop offset="0.796925" stop-color="#A9DEF9"/>
</linearGradient>
<linearGradient id="paint2_linear_636_1210" x1="147" y1="74.2001" x2="147" y2="74.7501" gradientUnits="userSpaceOnUse">
<stop stop-color="#75FFC5"/>
<stop offset="0.796925" stop-color="#A9DEF9"/>
</linearGradient>
<linearGradient id="paint3_linear_636_1210" x1="109.685" y1="70.9" x2="109.685" y2="75.3" gradientUnits="userSpaceOnUse">
<stop stop-color="#75FFC5"/>
<stop offset="0.796925" stop-color="#A9DEF9"/>
</linearGradient>
<linearGradient id="paint4_linear_636_1210" x1="101.005" y1="58.8" x2="101.005" y2="72" gradientUnits="userSpaceOnUse">
<stop stop-color="#75FFC5"/>
<stop offset="0.796925" stop-color="#A9DEF9"/>
</linearGradient>
<linearGradient id="paint5_linear_636_1210" x1="147" y1="58.8" x2="147" y2="72" gradientUnits="userSpaceOnUse">
<stop stop-color="#75FFC5"/>
<stop offset="0.796925" stop-color="#A9DEF9"/>
</linearGradient>
<linearGradient id="paint6_linear_636_1210" x1="104.54" y1="63.2001" x2="104.54" y2="68.1501" gradientUnits="userSpaceOnUse">
<stop stop-color="#75FFC5"/>
<stop offset="0.796925" stop-color="#A9DEF9"/>
</linearGradient>
<linearGradient id="paint7_linear_636_1210" x1="115.15" y1="58.8" x2="115.15" y2="72" gradientUnits="userSpaceOnUse">
<stop stop-color="#75FFC5"/>
<stop offset="0.796925" stop-color="#A9DEF9"/>
</linearGradient>
<linearGradient id="paint8_linear_636_1210" x1="131.225" y1="58.8" x2="131.225" y2="72" gradientUnits="userSpaceOnUse">
<stop stop-color="#75FFC5"/>
<stop offset="0.796925" stop-color="#A9DEF9"/>
</linearGradient>
<linearGradient id="paint9_linear_636_1210" x1="86.525" y1="58.8" x2="86.525" y2="75.85" gradientUnits="userSpaceOnUse">
<stop stop-color="#75FFC5"/>
<stop offset="0.796925" stop-color="#A9DEF9"/>
</linearGradient>
<linearGradient id="paint10_linear_636_1210" x1="70.76" y1="58.8" x2="70.76" y2="75.85" gradientUnits="userSpaceOnUse">
<stop stop-color="#75FFC5"/>
<stop offset="0.796925" stop-color="#A9DEF9"/>
</linearGradient>
<linearGradient id="paint11_linear_636_1210" x1="54.68" y1="58.8" x2="54.68" y2="72" gradientUnits="userSpaceOnUse">
<stop stop-color="#75FFC5"/>
<stop offset="0.796925" stop-color="#A9DEF9"/>
</linearGradient>
<linearGradient id="paint12_linear_636_1210" x1="163.755" y1="54.9401" x2="163.755" y2="71.9901" gradientUnits="userSpaceOnUse">
<stop stop-color="#75FFC5"/>
<stop offset="0.796925" stop-color="#A9DEF9"/>
</linearGradient>
<linearGradient id="paint13_linear_636_1210" x1="35.06" y1="54.9501" x2="35.06" y2="75.8501" gradientUnits="userSpaceOnUse">
<stop stop-color="#75FFC5"/>
<stop offset="0.796925" stop-color="#A9DEF9"/>
</linearGradient>
<linearGradient id="paint14_linear_636_1210" x1="38.6" y1="54.9501" x2="38.6" y2="56.6001" gradientUnits="userSpaceOnUse">
<stop stop-color="#75FFC5"/>
<stop offset="0.796925" stop-color="#A9DEF9"/>
</linearGradient>
<linearGradient id="paint15_linear_636_1210" x1="74.945" y1="51.65" x2="74.945" y2="57.15" gradientUnits="userSpaceOnUse">
<stop stop-color="#75FFC5"/>
<stop offset="0.796925" stop-color="#A9DEF9"/>
</linearGradient>
<linearGradient id="paint16_linear_636_1210" x1="32.485" y1="52.75" x2="32.485" y2="53.85" gradientUnits="userSpaceOnUse">
<stop stop-color="#75FFC5"/>
<stop offset="0.796925" stop-color="#A9DEF9"/>
</linearGradient>
<linearGradient id="paint17_linear_636_1210" x1="29.91" y1="51.65" x2="29.91" y2="52.2" gradientUnits="userSpaceOnUse">
<stop stop-color="#75FFC5"/>
<stop offset="0.796925" stop-color="#A9DEF9"/>
</linearGradient>
<linearGradient id="paint18_linear_636_1210" x1="56.93" y1="36.8" x2="56.93" y2="50.55" gradientUnits="userSpaceOnUse">
<stop stop-color="#75FFC5"/>
<stop offset="0.796925" stop-color="#A9DEF9"/>
</linearGradient>
<linearGradient id="paint19_linear_636_1210" x1="123.84" y1="43.9501" x2="123.84" y2="56.6001" gradientUnits="userSpaceOnUse">
<stop stop-color="#75FFC5"/>
<stop offset="0.796925" stop-color="#A9DEF9"/>
</linearGradient>
<linearGradient id="paint20_linear_636_1210" x1="29.27" y1="9.30005" x2="29.27" y2="53.85" gradientUnits="userSpaceOnUse">
<stop stop-color="#75FFC5"/>
<stop offset="0.796925" stop-color="#A9DEF9"/>
</linearGradient>
<linearGradient id="paint21_linear_636_1210" x1="90.06" y1="33.5" x2="90.06" y2="50.55" gradientUnits="userSpaceOnUse">
<stop stop-color="#75FFC5"/>
<stop offset="0.796925" stop-color="#A9DEF9"/>
</linearGradient>
<linearGradient id="paint22_linear_636_1210" x1="40.53" y1="36.8" x2="40.53" y2="50.55" gradientUnits="userSpaceOnUse">
<stop stop-color="#75FFC5"/>
<stop offset="0.796925" stop-color="#A9DEF9"/>
</linearGradient>
<linearGradient id="paint23_linear_636_1210" x1="72.695" y1="36.8" x2="72.695" y2="50.55" gradientUnits="userSpaceOnUse">
<stop stop-color="#75FFC5"/>
<stop offset="0.796925" stop-color="#A9DEF9"/>
</linearGradient>
<linearGradient id="paint24_linear_636_1210" x1="104.86" y1="36.8" x2="104.86" y2="53.85" gradientUnits="userSpaceOnUse">
<stop stop-color="#75FFC5"/>
<stop offset="0.796925" stop-color="#A9DEF9"/>
</linearGradient>
<linearGradient id="paint25_linear_636_1210" x1="59.83" y1="32.9501" x2="59.83" y2="35.7001" gradientUnits="userSpaceOnUse">
<stop stop-color="#75FFC5"/>
<stop offset="0.796925" stop-color="#A9DEF9"/>
</linearGradient>
<clipPath id="clip0_636_1210">
<rect width="179" height="87" fill="white" transform="translate(0 0.5)"/>
</clipPath>
</defs>
</svg>
