<svg width="204" height="99" viewBox="0 0 204 99" fill="none" xmlns="http://www.w3.org/2000/svg">
<g clip-path="url(#clip0_1148_4856)">
<path d="M164.966 86.995H164.225V87.6209H163.496V88.2467H162.026V88.8726H161.296V89.4985H159.826V90.1243H158.367V90.7502H156.897V91.376H154.698V92.0019H152.498V92.6278H149.569V93.2536H118.035V92.6278H112.906V92.0019H108.507V91.376H104.837V90.7502H102.638V90.1243H98.9795V89.4985H96.7799V88.8726H94.5804V88.2467H91.64V87.6209H83.5826V86.3691H82.8418V86.995H80.6423V87.6209H76.2432V88.2467H78.4427V88.8726H79.9129V89.4985H81.3831V90.1243H83.5826V90.7502H85.0414V91.376H87.2409V92.0019H89.4405V92.6278H91.64V93.2536H96.7799V93.8795H99.7089V94.5054H101.908V95.1312H104.837V95.7571H108.507V96.3829H112.906V97.0088H117.305V97.6347H123.904V98.2605H140.03V97.6347H145.17V97.0088H148.828V96.3829H151.028V95.7571H153.228V95.1312H155.427V94.5054H156.897V93.8795H158.367V93.2536H160.567V92.6278H161.296V92.0019H162.767V91.376H163.496V90.7502H164.225V89.4985H164.966V88.8726H165.695V88.2467H166.425V86.3691H164.966V86.995Z" fill="url(#paint0_linear_1148_4856)"/>
<path d="M166.425 85.1171V85.7429V86.3688H167.166V85.7429V85.1171V84.4912H166.425V85.1171Z" fill="url(#paint1_linear_1148_4856)"/>
<path d="M167.895 83.8652H167.166V84.4911H167.895V83.8652Z" fill="url(#paint2_linear_1148_4856)"/>
<path d="M139.301 83.8655V84.4914H134.173V85.1172H117.306V84.4914H110.707V83.8655H113.647V83.2397H113.636V82.6138H114.377V81.3621H115.106V80.1104H118.035V82.6138H118.776V83.2397H119.505V83.8655H134.173V83.2397H135.631V82.6138H137.102V83.2397H137.831V83.8655H139.301Z" fill="url(#paint3_linear_1148_4856)"/>
<path d="M125.374 66.3408V67.5925H124.645V68.2184H124.633V68.8443H118.035V70.7219H117.305V71.9736H116.576V73.2253H115.835V75.1029H115.106V76.3546H114.376V77.6063H113.635V78.8581H112.906V80.1098H112.177V81.3615H104.849V80.1098H105.578V79.4839H106.307V78.2322H107.048V76.9805H107.778V74.477H108.507V73.2253H109.248V72.5994H109.977V70.096H110.707V68.8443H111.447V68.2184H112.177V66.9667H112.906V66.3408H125.374Z" fill="url(#paint4_linear_1148_4856)"/>
<path d="M178.893 66.3408V68.2184H178.163V69.4701H177.434V71.9736H176.693V73.2253H175.964V73.8512H175.235V75.1029H174.494V77.6063H173.764V78.8581H173.035V80.1098H172.294V81.3615H164.966V80.7356H165.696V80.1098H166.425V77.6063H167.166V76.3546H167.895V75.1029H168.625V73.8512H169.365V71.9736H170.095V70.7219H170.835V69.4701H171.565V68.8443H169.365V69.4701H168.625V70.7219H167.895V71.3477H167.166V72.5994H166.425V74.477H165.696V75.7288H164.966V76.9805H164.225V79.4839H163.496V80.1098H162.767V81.3615H156.168V79.4839H156.897V78.2322H157.638V76.9805H158.368V74.477H159.097V73.2253H159.838V72.5994H160.567V71.3477H161.296V68.8443H162.037V67.5925H162.767V66.3408H178.893Z" fill="url(#paint5_linear_1148_4856)"/>
<path d="M120.975 71.3486V73.2262H120.235V73.8521H119.505V75.1038H118.776V76.3555H118.035V76.9814H117.306V75.7297H118.035V73.2262H118.776V72.6004H119.505V71.3486H120.975Z" fill="url(#paint6_linear_1148_4856)"/>
<path d="M142.23 66.3408V68.8443H141.501V70.096H140.771V71.3477H140.042V73.2253H139.301V73.8512H138.572V75.1029H137.842V76.3546H137.101V78.8581H136.372V80.1098H134.902V80.7356H134.172V81.3615H120.975V80.7356H120.234V78.2322H120.975V75.7288H121.705V74.477H122.434V73.2253H123.175V72.5994H123.904V70.096H124.633V68.8443H125.374V67.5925H126.104V66.3408H142.23Z" fill="url(#paint7_linear_1148_4856)"/>
<path d="M161.285 66.3408V66.9667H160.556V68.2184H159.826V69.4701H159.085V70.7219H158.356V73.2253H157.627V73.8512H156.886V75.1029H156.157V77.6063H155.427V78.2322H154.686V79.4839H153.957V80.1098H153.228V80.7356H151.757V81.3615H138.56V80.7356H137.819V78.8581H138.56V77.6063H139.29V76.3546H140.03V73.8512H140.76V73.2253H141.489V71.9736H142.218V69.4701H142.959V68.2184H143.689V66.9667H144.418V66.3408H151.017V67.5925H150.287V70.096H149.558V71.3477H148.828V72.5994H148.088V74.477H147.358V75.7288H146.629V76.9805H145.888V77.6063H145.159V79.4839H148.088V76.9805H148.828V75.7288H149.558V74.477H150.287V72.5994H151.028V71.3477H151.757V70.096H152.487V68.8443H153.228V67.5925H153.216V66.9667H153.957V66.3408H161.285Z" fill="url(#paint8_linear_1148_4856)"/>
<path d="M88.7114 82.6132V83.865H87.982V85.7425H98.9798V85.1167H99.7091V84.4908H101.179V83.865H101.909V82.6132H102.638V80.7356H103.379V80.1098H104.108V78.8581H104.838V76.3546H105.578V75.1029H106.308V73.8512H107.037V73.2253H107.778V70.7219H108.507V69.4701H109.237V68.2184H109.978V66.3408H94.5806V66.9667H93.8399V67.5925H93.1105V68.8443H92.3811V70.096H91.6403V72.5994H90.9109V73.2253H90.1815V74.477H89.4408V75.1029H88.7114V77.6063H87.982V79.4839H87.2412V80.1098H87.982V81.3615H95.31V82.6132H88.7114ZM94.5806 79.4839V78.2322H95.31V76.9805H96.0394V75.7288H96.7802V73.2253H97.5096V72.5994H98.239V71.3477H98.9798V70.096H99.7091V68.8443H102.638V69.4701H101.909V70.7219H101.179V71.9736H100.439V73.2253H99.7091V75.1029H98.9798V75.7288H98.239V76.9805H97.5096V78.2322H96.7802V79.4839H94.5806Z" fill="url(#paint9_linear_1148_4856)"/>
<path d="M80.6423 85.1167H82.1125V84.4908H82.8418V83.865H83.5826V82.6132H84.312V81.3615H85.0414V80.1098H85.7822V79.4839H86.5116V76.9805H87.241V75.7288H87.9817V74.477H88.7111V72.5994H89.4405V71.3477H90.1813V70.096H90.9107V68.8443H91.6401V66.3408H85.0414V67.5925H84.312V68.8443H83.5826V71.3477H82.8418V72.5994H82.1125V73.2253H81.3831V74.477H80.6423V76.9805H79.9129V77.6063H79.1835V78.8581H78.4427V79.4839H76.2432V78.8581H76.984V77.6063H77.7134V76.3546H78.4427V73.8512H79.1835V73.2253H79.9129V71.9736H80.6423V69.4701H81.3831V68.2184H82.1125V66.9667H82.8418V66.3408H75.5138V68.2184H74.7844V69.4701H74.0436V70.7219H73.3143V71.9736H72.5849V73.8512H71.8441V74.477H71.1147V75.7288H70.3853V78.2322H69.6445V80.7356H70.3853V81.3615H77.7134V81.9874H76.984V82.6132H70.3853V84.4908H69.6445V85.7425H80.6423V85.1167Z" fill="url(#paint10_linear_1148_4856)"/>
<path d="M69.6442 75.1029H70.385V73.2253H71.1143V71.9736H71.8437V70.7219H72.5845V68.2184H73.3139V66.9667H72.5845V66.3408H60.1166V67.5925H59.3872V68.8443H65.9858V69.4701H65.2451V70.096H57.1876V70.7219H56.4469V71.3477H54.9881V72.5994H54.2473V73.8512H53.5179V75.1029H52.7885V76.3546H52.0477V77.6063H51.3184V81.3615H66.7152V80.7356H67.4446V78.8581H68.1854V77.6063H68.9148V76.3546H69.6442V75.1029ZM63.7863 73.8512H63.0455V74.477H62.3161V76.9805H61.5867V78.2322H60.846V79.4839H58.6464V78.2322H59.3872V75.7288H60.1166V74.477H60.846V73.2253H63.7863V73.8512Z" fill="url(#paint11_linear_1148_4856)"/>
<path d="M197.959 61.9492H192.831V62.5751H192.102V63.8268H191.372V65.0785H190.643V66.3303H181.115V66.9561H180.386V68.8337H179.656V70.0854H178.927V71.3371H178.198V72.5889H177.468V73.8406H176.739V75.0923H176.01V76.344H175.28V77.5958H174.551V81.3509H189.948V80.7251H190.677V78.8475H191.406V77.5958H192.136V76.344H192.865V75.0923H193.595V73.2147H194.324V71.963H195.053V70.7113H195.783V69.4596H196.512V66.9561H197.242V66.3303H197.971V65.0785H198.7V61.9492H197.971H197.959ZM181.833 78.8475V78.2216H182.563V75.7182H183.292V74.4665H184.021V73.2147H184.751V72.5889H185.48V70.0854H186.21V68.8337H189.138V69.4596H188.409V71.963H187.68V73.2147H186.95V73.8406H186.221V74.4665H185.492V76.9699H184.762V78.2216H184.033V79.4734H181.833V78.8475Z" fill="url(#paint12_linear_1148_4856)"/>
<path d="M51.3187 74.4772H52.0481V73.2255H52.7889V72.5996H53.5182V71.3479H54.2476V68.8444H54.9884V67.5927H55.7178V66.341H56.4472V64.4634H57.188V63.2117H57.9174V61.96H51.3187V63.2117H50.5893V64.4634H49.8485V65.7151H49.1191V66.341H48.3898V68.8444H47.649V70.0962H46.9196V71.3479H46.1902V69.4703H46.9196V67.5927H47.649V66.9669H46.9196V66.341H31.5227V67.5927H30.7933V68.8444H30.0525V70.722H29.3232V71.9738H28.5938V73.2255H27.853V73.8513H27.1236V76.3548H26.3942V77.6065H25.6534V78.8582H24.9241V80.11H24.1947V81.9876H23.4539V83.2393H22.7245V84.491H21.9951V85.7427H29.3232V84.491H30.0525V81.9876H30.7933V81.3617H39.5915V80.7358H40.3209V80.11H41.0503V79.4841H41.7911V78.8582H42.5205V77.6065H43.2499V78.8582H42.5205V80.11H41.7911V81.3617H48.3898V80.11H49.1191V79.4841H49.8485V78.2324H50.5893V76.9807H51.3187V74.4772ZM40.3209 69.4703H39.5915V70.722H38.8508V71.3479H38.1214V73.2255H37.392V74.4772H36.6512V75.7289H35.9218V76.9807H35.1924V79.4841H32.2521V78.2324H32.9929V76.9807H33.7223V75.7289H34.4517V74.4772H35.1924V72.5996H35.9218V71.3479H36.6512V70.0962H37.392V68.8444H40.3209V69.4703ZM46.1902 73.2255H45.4494V73.8513H44.72V75.1031H43.9906V76.3548H43.2499V75.1031H43.9906V73.8513H44.72V73.2255H45.4494V71.9738H46.1902V73.2255Z" fill="url(#paint13_linear_1148_4856)"/>
<path d="M46.1901 63.2117H44.72V62.5858H43.2498V61.96H41.791V63.8375H46.1901V63.2117Z" fill="url(#paint14_linear_1148_4856)"/>
<path d="M74.7844 64.4637V63.8378H128.303V63.212H124.633V62.5861H120.234V63.212H104.837V59.4568H89.4405V58.8309H88.7111V59.4568H53.5183V58.8309H52.7889V58.2051H51.3187V58.8309H49.8486V59.4568H42.5205V60.0827H43.9907V60.7085H46.1902V61.3344H47.649V61.9602H48.3898V61.3344H49.1192V60.0827H62.3165V60.7085H61.5871V61.9602H60.8463V63.212H60.1169V63.8378H73.3143V64.4637H74.7844Z" fill="url(#paint15_linear_1148_4856)"/>
<path d="M38.1213 60.7088V60.0829H38.8507V59.457H35.1924V60.0829H36.6512V60.7088H38.1213Z" fill="url(#paint16_linear_1148_4856)"/>
<path d="M34.452 58.2051H33.7227V58.8309H34.452V58.2051Z" fill="url(#paint17_linear_1148_4856)"/>
<path d="M71.1151 53.198V51.9463H71.8445V50.6946H72.5853V48.1911H73.3147V47.5653H74.044V46.9394H74.7848V45.6877H75.5142V41.3066H61.5875V41.9325H60.1173V42.5584H59.3879V44.436H58.6472V45.6877H57.9178V46.9394H57.1884V47.5653H56.4476V50.0687H55.7182V51.3204H54.9888V52.5722H54.248V56.9532H68.9155V56.3273H69.6449V55.0756H70.3857V54.4497H60.8467V53.198H71.1151ZM63.0463 49.4428H63.787V48.1911H64.5164V46.3135H65.2458V45.0618H65.9866V44.436H68.1862V45.0618H67.4454V46.9394H66.716V48.1911H65.9866V49.4428H65.2458V50.0687H63.0463V49.4428Z" fill="url(#paint18_linear_1148_4856)"/>
<path d="M130.503 50.0692V49.4434H129.774V50.0692H129.033V51.9468H128.304V53.1985H127.574V53.8244H129.033V54.4503H130.503V55.0761H131.973V55.702H134.173V56.3278H134.902V56.9537H137.102V57.5796H137.831V58.2054H140.031V58.8313H140.772V59.4572H142.23V60.083H144.43V60.7089H145.171V61.3347H146.629V61.9606H147.37V62.5865H148.1V63.2123H148.829V63.8382H154.698V63.2123H153.969V62.5865H153.228V61.9606H152.499V61.3347H151.769V60.7089H150.299V60.083H148.829V59.4572H148.1V58.8313H147.37V58.2054H145.9V57.5796H145.171V56.9537H144.43V56.3278H142.971V55.702H142.23V55.0761H141.501V54.4503H140.031V53.8244H139.301V53.1985H137.102V52.5727H135.632V51.9468H134.173V51.3209H132.703V50.6951H131.973V50.0692H130.503Z" fill="url(#paint19_linear_1148_4856)"/>
<path d="M21.9953 54.4499H23.454V53.824H24.1948V53.1982H27.8532V53.824H28.5939V54.4499H30.0527V55.7016H30.7935V56.3275H32.2523V57.5792H32.993V58.2051H33.7224V57.5792V56.9533H32.993V53.1982H33.7224V51.9464H34.4518V51.3206H35.1926V50.0688H35.922V49.443H36.6514V47.5654H37.3921V45.6878H38.1215V43.1844H38.8509V41.9326H39.5917V41.3068H40.3211V40.0551H42.5206V39.4292H46.1904V38.8033H46.9197V38.1775H47.6491V37.5516H48.3899V36.9257H49.1193V36.2999H49.8487V35.674H50.5895V35.0482H51.3188V34.4223H52.0482V33.7964H52.789V33.1706H54.2478V31.9188H55.718V31.293H56.4473V30.0413H57.1881V28.7895H54.2478V28.1637H51.3188V27.5378H48.3899V26.9119H42.5206V23.1568H41.7913V17.524H41.0505V11.8913H40.3211V10.0137H39.5917V10.6395H38.8509V11.2654H38.1215V13.143H37.3921V13.7688H36.6514V14.3947H35.922V15.0206H35.1926V16.8982H34.4518V17.524H33.7224V18.1499H32.993V19.4016H32.2523V20.6533H31.5229V21.2792H30.7935V21.9051H30.0527V23.7826H29.3233V24.4085H28.5939V25.6602H27.8532V26.2861H27.1238V26.9119H19.0549V27.5378H15.3966V28.1637H10.9975V30.6671H11.7269V31.9188H12.4563V33.1706H13.9265V35.674H14.6558V36.9257H15.3966V38.1775H16.126V40.0551H16.8554V40.6809H17.5962V41.9326H18.3256V42.5585H17.5962V43.8102H16.8554V45.0619H16.126V46.9395H15.3966V48.8171H14.6558V50.0688H13.9265V52.5723H13.1971V53.1982H12.4563V54.4499H11.7269V55.7016H10.9975V58.8309H10.2567V60.0826H9.52734V60.7085H10.9975V60.0826H13.1971V59.4568H13.9265V58.8309H15.3966V58.2051H16.126V57.5792H17.5962V56.9533H19.0549V56.3275H19.7957V55.7016H21.2545V55.0757H21.9953V54.4499Z" fill="url(#paint20_linear_1148_4856)"/>
<path d="M90.9107 52.5724V53.1983H90.1699V56.3276H90.9107V56.9535H104.837V56.3276H105.567V55.7018H106.308V54.45H107.037V53.1983H107.766V51.9466H107.778V51.3207H108.507V50.069H109.237V48.8173H109.977V46.9397H110.707V45.688H111.436V44.4362H112.177V43.1845H112.906V40.6811H114.376V38.8035H115.106V37.5518H107.778V40.0552H107.037V40.6811H106.308V41.3069H97.5094V41.9328H96.78V42.5587H96.0392V43.8104H95.3098V45.0621H94.5804V46.9397H93.8396V47.5655H93.1102V48.8173H92.3695V50.069H91.6401V52.5724H90.9107ZM96.7686 53.8242H97.5094V53.1983H98.2387V51.9466H98.9795V50.6949H99.7089V48.1914H100.438V46.9397H101.179V46.3138H101.908V45.0621H102.638V44.4362H104.837V45.688H104.108V46.3138H103.379V46.9397H102.638V49.4431H101.908V50.6949H101.179V51.9466H100.438V53.1983H99.7089V54.45H96.7686V53.8242Z" fill="url(#paint21_linear_1148_4856)"/>
<path d="M49.1191 56.3273H50.5893V55.7015H51.3186V54.4497H52.048V53.198H52.7888V52.5722H53.5182V51.3204H54.2476V48.1911H53.5182V47.5653H46.1901V46.3135H46.9195V45.0618H47.6489V44.436H49.8485V45.6877H49.1191V46.9394H56.4471V44.436H57.1879V41.9325H56.4471V41.3066H43.2498V41.9325H42.5204V42.5584H41.791V43.1842H41.0503V43.8101H40.3209V46.3135H39.5915V46.9394H38.8507V50.0687H39.5915V50.6946H46.9195V51.3204H46.1901V53.198H45.4494V54.4497H42.5204V53.8239H43.2498V52.5722H36.6512V53.198H35.9218V53.8239H35.1924V56.3273H35.9218V56.9532H49.1191V56.3273Z" fill="url(#paint22_linear_1148_4856)"/>
<path d="M78.4433 41.3066V43.8101H77.7139V45.0618H76.9845V46.3135H76.2437V46.9394H75.5143V49.4428H74.785V50.6946H74.0442V51.9463H73.3148V53.198H72.5854V54.4497H71.8446V55.7015H71.1152V56.9532H78.4433V55.0756H79.1841V53.8239H79.9134V53.198H80.6428V50.6946H81.3836V49.4428H82.113V48.1911H82.8424V46.9394H83.5832V45.0618H86.5121V46.9394H85.7827V47.5653H85.0419V48.817H84.3126V50.0687H83.5832V52.5722H82.8424V53.198H82.113V54.4497H81.3836V55.0756H80.6428V56.9532H87.9823V55.7015H88.7117V53.198H89.441V52.5722H90.1818V51.3204H90.9112V50.0687H91.6406V47.5653H92.3814V46.9394H93.1108V45.6877H93.8401V44.436H94.5809V41.9325H93.8401V41.3066H78.4433Z" fill="url(#paint23_linear_1148_4856)"/>
<path d="M115.106 41.9325H114.377V42.5584V43.1842H113.636V43.8101H112.907V46.3135H112.177V46.9394H111.437V47.5653V48.1911H110.707V48.817V49.4428H109.978V50.0687V50.6946V51.3204V51.9463H109.237V52.5722V53.198H108.508V53.8239H107.778V54.4497V55.0756V55.7015V56.3273H108.508V56.9532H109.237H109.978H110.707H111.437H112.177H112.907H113.636H114.377H115.106H115.836V57.5791V58.2049H115.106H114.377H113.636H112.907H112.177H111.437H110.707H109.978H109.237V58.8308V59.4566H108.508V60.0825H107.778V60.7084H108.508H109.237H109.978H110.707H111.437H112.177H112.907H113.636H114.377H115.106H115.836H116.577H117.306H118.035H118.776H119.505V60.0825H120.235H120.976H121.705V59.4566H122.434V58.8308V58.2049H123.175V57.5791V56.9532H123.905V56.3273V55.7015V55.0756H124.634V54.4497V53.8239H125.375V53.198H126.104V52.5722V51.9463V51.3204V50.6946H126.834V50.0687V49.4428H127.574V48.817V48.1911H128.304V47.5653V46.9394H129.033V46.3135V45.6877V45.0618H129.774V44.436V43.8101H130.503V43.1842V42.5584H131.233V41.9325V41.3066H130.503H129.774H129.033H128.304H127.574H126.834H126.104H125.375H124.634H123.905V41.9325V42.5584V43.1842V43.8101H123.175V44.436V45.0618H122.434V45.6877H121.705V46.3135V46.9394H120.976V47.5653V48.1911V48.817H120.235V49.4428V50.0687H119.505V50.6946V51.3204H118.776V51.9463V52.5722H118.035V53.198V53.8239V54.4497H117.306H116.577H115.836V53.8239V53.198V52.5722H116.577V51.9463V51.3204H117.306V50.6946V50.0687H118.035V49.4428V48.817V48.1911V47.5653H118.776V46.9394H119.505V46.3135V45.6877H120.235V45.0618V44.436H120.976V43.8101V43.1842V42.5584V41.9325H121.705V41.3066H120.976H120.235H119.505H118.776H118.035H117.306H116.577H115.836H115.106V41.9325Z" fill="url(#paint24_linear_1148_4856)"/>
<path d="M54.2478 36.9258V38.1775H53.5184V38.8034H52.7891V39.4292H75.514V40.0551H77.7135V39.4292H83.5828V38.8034H80.6425V38.1775H75.514V37.5516H70.3855V36.9258H54.2478Z" fill="url(#paint25_linear_1148_4856)"/>
<path d="M187.692 68.8447H186.951H186.221V69.4706V70.0964H185.492V70.7223V71.3482V71.974V72.5999H184.751V73.2258H184.022V73.8516V74.4775H183.292V75.1033V75.7292H182.552V76.3551V76.9809V77.6068V78.2327H181.822V78.8585V79.4844H182.552H183.292H184.022V78.8585V78.2327H184.751V77.6068V76.9809H185.492V76.3551V75.7292V75.1033V74.4775H186.221V73.8516H186.951V73.2258H187.692V72.5999V71.974H188.421V71.3482V70.7223V70.0964V69.4706H189.15V68.8447H188.421H187.692Z" fill="#FF83DC"/>
<path d="M190.62 60.0828V61.9603H189.88V63.2121H189.15V63.8379H181.822V64.4638H178.882V63.8379H148.829V63.2121H148.099V62.5862H147.37V61.9603H146.629V61.3345H145.17V60.7086H144.43V60.0828H142.23V59.4569H140.771V58.831H140.031V58.2052H137.831V57.5793H137.102V56.9535H134.902V56.3276H134.173V55.7017H131.973V55.0759H130.503V54.45H129.033V53.8241H127.574V53.1983H128.303V51.9466H129.033V50.069H129.774V48.8172H130.503V47.5655H131.232V46.9397H131.973V44.4362H132.703V43.1845H133.432V41.9328H134.173V40.0552H134.902V39.4293H117.306V38.1776H118.035V36.3H118.776V35.6741H106.308V36.9259H105.579V38.1776H104.838V39.4293H94.5694V38.8034H91.6404V38.1776H88.7115V37.5517H85.0418V36.9259H80.6427V36.3H76.2436V35.6741H66.716V35.0483H57.1884V34.4224H57.9178V33.7966H59.3879V33.1707H60.1173V32.5448H60.8467V31.919H61.5875V31.2931H62.3169V30.6672H63.0463V30.0414H63.787V29.4155H64.5164V28.1638H65.9866V27.5379H66.716V26.9121H63.0463V26.2862H59.3879V25.6603H56.4476V25.0345H54.248V24.4086H51.3191V23.7828H48.3902V23.1569H46.1906V21.9052H45.4498V16.2724H44.7204V10.6397H43.9911V5.0069H43.2503V0H41.7915V1.25172H41.0507V1.87759H40.3213V3.75517H39.592V4.38103H38.8512V5.0069H38.1218V6.88448H36.6516V8.13621H35.9222V8.76207H35.1928V10.6397H34.4521V11.8914H33.7227V12.5172H32.9933V13.1431H32.2525V14.3948H31.5231V15.0207H30.7937V15.6466H30.053V17.5241H29.3236V18.15H28.5942V19.4017H27.8534V20.0276H27.124V21.2793H26.3946V21.9052H25.6539V22.531H24.1951V23.1569H21.2547V23.7828H16.8556V24.4086H13.9267V25.0345H9.5276V25.6603H5.85788V26.2862H2.19955V26.9121H2.92894V28.1638H3.65832V30.0414H4.39911V31.2931H5.12849V32.5448H5.85788V33.7966H6.59866V35.0483H7.32804V36.3H8.05743V38.8034H8.79821V40.0552H10.257V41.3069H10.9978V43.8103H11.7272V46.9397H10.9978V48.8172H10.257V50.069H9.5276V51.3207H8.79821V52.5724H8.05743V55.0759H7.32804V56.3276H6.59866V57.5793H5.85788V60.0828H5.12849V60.7086H4.39911V62.5862H3.65832V63.8379H2.92894V66.3414H2.19955V66.9672H1.45877V68.219H0.729385V69.4707H0V70.7224H2.19955V70.0966H2.92894V69.4707H4.39911V68.8448H5.85788V68.219H6.59866V67.5931H7.32804V66.9672H8.05743V66.3414H10.9978V65.7155H11.7272V65.0897H13.1973V64.4638H13.9267V63.8379H15.3969V63.2121H16.1263V62.5862H17.5964V61.9603H19.0552V61.3345H19.796V60.7086H21.2547V60.0828H26.3946V60.7086H27.124V61.9603H27.8534V62.5862H29.3236V63.2121H30.053V65.7155H29.3236V66.3414H28.5942V67.5931H27.8534V68.8448H27.124V71.3369H26.3832V72.5886H25.6425V73.2145H24.9131V74.4662H24.1837V76.9697H23.4429V78.2214H22.7135V79.4731H21.9841V81.3507H21.2434V82.6024H20.514V83.8541H19.7846V85.1059H19.0438V86.9835H18.3144V87.6093H30.7823V86.3576H31.5117V85.7317H32.2411V83.8541H49.8375V83.2283H51.3077V83.8541H57.177V81.3507H51.3191V77.6069H52.0485V76.3552H52.7893V75.1035H53.5187V73.8517H54.248V72.6H54.9888V71.3483H56.4476V70.7224H57.1884V70.0966H65.2458V69.4707H65.9752V68.8448H59.3879V67.5931H60.1173V66.3414H72.5852V66.9672H73.3146V68.219H72.5852V70.7224H71.8445V71.9741H71.1151V73.2259H70.3857V75.1035H69.6449V76.3552H68.9155V77.6069H68.1861V78.8586H67.4454V80.7362H66.716V81.3621H57.1884V83.8655H67.4454V85.1173H66.716V86.369H65.2458V87.6207H80.6427V86.9948H82.8422V86.369H83.583V87.6207H91.6404V88.2466H94.5808V88.8724H96.7803V89.4983H98.9799V90.1241H102.638V90.75H104.838V91.3759H108.507V92.0017H112.907V92.6276H118.035V93.2535H149.57V92.6276H152.499V92.0017H154.698V91.3759H156.898V90.75H158.368V90.1241H159.827V89.4983H161.297V88.8724H162.026V88.2466H163.496V87.6207H164.226V86.9948H164.966V86.369H166.425V84.4914H167.166V83.8655H173.753V83.2397H174.483V83.8655H191.35V82.6138H192.079V81.3621H192.82V80.1104H193.549V78.2328H194.279V76.981H195.019V75.7293H195.749V74.4776H196.478V72.6H197.219V71.3483H197.948V70.0966H198.678V67.5931H199.419V66.3414H200.148V65.7155H200.877V65.0897H201.618V62.5862H202.347V61.3345H203.077V60.0828H190.62ZM121.705 41.3069V41.9328H120.975V44.4362H120.235V45.6879H119.505V46.9397H118.776V47.5655H118.035V50.069H117.306V51.3207H116.576V52.5724H115.836V54.45H118.035V52.5724H118.776V51.3207H119.505V50.069H120.235V48.8172H120.975V46.9397H121.705V45.6879H122.434V45.0621H123.175V43.8103H123.904V41.3069H131.232V42.5586H130.503V43.8103H129.774V45.0621H129.033V46.9397H128.303V48.1914H127.574V49.4431H126.833V50.6948H126.104V53.1983H125.375V53.8241H124.634V55.0759H123.904V56.9535H123.175V58.2052H122.434V59.4569H121.705V60.0828H119.505V60.7086H107.778V60.0714H108.507V59.4455H109.237V58.1938H115.836V56.9421H108.507V56.3276H107.778V53.8241H108.507V53.1983H109.237V51.9466H109.978V49.4431H110.707V48.1914H111.436V46.9397H112.177V46.3138H112.907V43.8103H113.636V43.1845H114.377V41.9328H115.106V41.3069H121.705ZM93.84 41.3069V41.9328H94.5808V44.4362H93.84V45.6879H93.1106V46.9397H92.3812V47.5655H91.6404V50.069H92.3812V48.8172H93.1106V47.5655H93.84V46.9397H94.5808V45.0621H95.3102V43.8103H96.0395V42.5586H96.7803V41.9328H97.5097V41.3069H106.308V40.681H107.037V40.0552H107.778V37.5517H115.106V38.8034H114.377V40.681H112.907V43.1845H112.177V44.4362H111.436V45.6879H110.707V46.9397H109.978V48.8172H109.237V50.069H108.507V51.3207H107.778V53.1983H107.037V54.45H106.308V55.7017H105.579V56.3276H104.838V56.9535H90.9111V56.3276H90.1817V53.1983H90.9111V52.5724H91.6404V50.069H90.9111V51.3207H90.1817V52.5724H89.4409V53.1983H88.7115V55.7017H87.9821V56.9535H80.6427V55.0759H81.3835V54.45H82.1129V53.1983H82.8422V52.5724H83.583V50.069H84.3124V48.8172H85.0418V47.5655H85.7826V46.9397H86.512V45.0621H83.583V46.9397H82.8422V48.1914H82.1129V49.4431H81.3835V50.6948H80.6427V53.1983H79.9133V53.8241H79.1839V55.0759H78.4431V56.9535H71.1151V55.7017H71.8445V54.45H72.5852V53.1983H73.3146V51.9466H74.044V50.6948H74.7848V49.4431H75.5142V46.9397H76.2436V46.3138H76.9844V45.0621H77.7137V43.8103H78.4431V41.3069H93.84ZM70.3857 54.45V55.0759H69.6449V56.3276H68.9155V56.9535H54.248V52.5724H54.9888V51.3207H55.7182V50.069H56.4476V47.5655H57.1884V46.9397H57.9178V45.6879H58.6471V44.4362H59.3879V42.5586H60.1173V41.9328H61.5875V41.3069H75.5142V45.6879H74.7848V46.9397H74.044V47.5655H73.3146V48.1914H72.5852V50.6948H71.8445V51.9466H71.1151V53.1983H60.8467V54.45H70.3857ZM44.7204 62.5862V63.2121H46.1906V63.8379H41.7915V61.9603H43.2503V62.5862H44.7204ZM35.9222 56.9535V56.3276H35.1928V53.8241H35.9222V53.1983H36.6516V52.5724H43.2503V53.8241H42.5209V54.45H45.4498V53.1983H46.1906V51.3207H46.92V50.6948H39.592V50.069H38.8512V46.9397H39.592V46.3138H40.3213V43.8103H41.0507V43.1845H41.7915V42.5586H42.5209V41.9328H43.2503V41.3069H56.4476V41.9328H57.1884V44.4362H56.4476V46.9397H49.1195V45.6879H49.8489V44.4362H47.6494V45.0621H46.92V46.3138H46.1906V47.5655H53.5187V48.1914H54.248V51.3207H53.5187V52.5724H52.7893V53.1983H52.0485V54.45H51.3191V55.7017H50.5897V56.3276H49.1195V56.9535H35.9222ZM35.1928 60.0828V59.4569H38.8512V60.0828H38.1218V60.7086H36.6516V60.0828H35.1928ZM70.3857 36.9259V37.5517H75.5142V38.1776H80.6427V38.8034H83.5716V39.4293H77.7137V40.0552H75.5142V39.4293H52.7893V38.8034H53.5187V38.1776H54.248V36.9259H70.3857ZM28.5942 54.45V53.8241H27.8534V53.1983H24.1951V53.8241H23.4543V54.45H21.9955V55.0759H21.2547V55.7017H19.796V56.3276H19.0552V56.9535H17.5964V57.5793H16.1263V58.2052H15.3969V58.831H13.9267V59.4569H13.1973V60.0828H10.9978V60.7086H9.5276V60.0828H10.257V58.831H10.9978V55.7017H11.7272V54.45H12.4565V53.1983H13.1973V52.5724H13.9267V50.069H14.6561V48.8172H15.3969V46.9397H16.1263V45.0621H16.8556V43.8103H17.5964V42.5586H18.3258V41.9328H17.5964V40.681H16.8556V40.0552H16.1263V38.1776H15.3969V36.9259H14.6561V35.6741H13.9267V33.1707H12.4565V31.919H11.7272V30.6672H10.9978V28.1638H15.3969V27.5379H19.0552V26.9121H27.124V26.2862H27.8534V25.6603H28.5942V24.4086H29.3236V23.7828H30.053V21.9052H30.7937V21.2793H31.5231V20.6534H32.2525V19.4017H32.9933V18.15H33.7227V17.5241H34.4521V16.8983H35.1928V15.0207H35.9222V14.3948H36.6516V13.769H37.3924V13.1431H38.1218V11.2655H38.8512V10.6397H39.592V10.0138H40.3213V11.8914H41.0507V17.5241H41.7915V23.1569H42.5209V26.9121H48.3902V27.5379H51.3191V28.1638H54.248V28.7897H57.1884V30.0414H56.4476V31.2931H55.7182V31.919H54.248V33.1707H52.7893V33.7966H52.0485V34.4224H51.3191V35.0483H50.5897V35.6741H49.8489V36.3H49.1195V36.9259H48.3902V37.5517H47.6494V38.1776H46.92V38.8034H46.1906V39.4293H42.5209V40.0552H40.3213V41.3069H39.592V41.9328H38.8512V43.1845H38.1218V45.6879H37.3924V47.5655H36.6516V49.4431H35.9222V46.9397H36.6516V43.8103H37.3924V40.0552H38.1218V39.4293H38.8512V38.8034H39.592V38.1776H40.3213V37.5517H41.0507V36.9259H41.7915V36.3H42.5209V35.6741H43.2503V35.0483H43.9911V34.4224H44.7204V33.7966H45.4498V33.1707H46.1906V32.5448H43.9911V31.919H41.0507V31.2931H38.8512V29.4155H38.1218V26.9121H37.3924V21.2793H35.9222V22.531H35.1928V23.7828H34.4521V25.0345H33.7227V25.6603H32.9933V26.2862H32.2525V27.5379H31.5231V28.1638H30.7937V29.4155H30.053V30.6672H28.5942V31.2931H24.9245V31.919H21.2547V32.5448H20.5254V33.1707H21.2547V34.4224H21.9955V36.9259H22.7249V38.1776H23.4543V38.8034H24.1951V40.681H23.4543V41.9328H22.7249V43.1845H21.9955V45.6879H21.2547V46.9397H20.5254V48.1914H19.796V49.4431H19.0552V50.069H21.2547V49.4431H21.9955V48.8172H23.4543V48.1914H24.1951V47.5655H25.6539V46.9397H27.8534V46.3138H30.053V46.9397H31.5231V47.5655H32.2525V48.8172H33.7227V49.4431H34.4521V50.069H35.1928V51.3207H34.4521V51.9466H33.7227V53.1983H32.9933V56.9535H33.7227V58.2052H34.4521V58.831H33.7227V58.2052H32.9933V57.5793H32.2525V56.3276H30.7937V55.7017H30.053V54.45H28.5942ZM57.9178 63.2121H57.1884V64.4638H56.4476V66.3414H55.7182V67.5931H54.9888V68.8448H54.248V71.3483H53.5187V72.6H52.7893V73.2259H52.0485V74.4776H51.3191V76.981H50.5897V78.2328H49.8489V79.4845H49.1195V80.1104H48.3902V81.3507H41.7801V80.099H42.5095V78.8472H43.2275V77.5955H42.4981V78.8472H41.7801V79.4731H41.0393V80.099H40.3099V80.7248H39.5806V81.3507H30.7823V81.9766H30.0416V84.48H29.3122V85.7317H21.9841V84.48H22.7135V83.2283H23.4429V81.9766H24.1837V80.099H24.9131V78.8472H25.6425V77.5955H26.3832V76.3438H27.1126V73.8403H27.842V73.2145H28.5828V71.9628H29.3122V71.3483V70.7224H30.0416V68.8448H30.7823V67.5931H31.5117V66.3414H46.9086V66.9672H47.638V67.5931H46.9086V69.4707H46.1792V71.3483H46.9086V70.0966H47.638V68.8448H48.3788V66.3414H49.1082V65.7155H49.8375V64.4638H50.5783V63.2121H51.3077V61.9603H57.9064V63.2121H57.9178ZM60.1173 63.8379V63.2121H60.8467V61.9603H61.5875V60.7086H62.3169V60.0828H49.1195V61.3345H48.3902V61.9603H47.6494V61.3345H46.1906V60.7086H43.9911V60.0828H42.5209V59.4569H49.8489V58.831H51.3191V58.2052H52.7893V58.831H53.5187V59.4569H88.7115V58.831H89.4409V59.4569H104.838V63.2121H120.235V62.5862H124.634V63.2121H128.303V63.8379H74.7848V64.4638H73.3146V63.8379H60.1173ZM86.512 79.4845H85.7826V80.1104H85.0418V81.3621H84.3124V82.6138H83.583V83.8655H82.8422V84.4914H82.1129V85.1173H80.6427V85.7431H69.6449V84.4914H70.3857V82.6138H76.9844V81.9879H77.7137V81.3621H70.3857V80.7362H69.6449V78.2328H70.3857V75.7293H71.1151V74.4776H71.8445V73.8517H72.5852V71.9741H73.3146V70.7224H74.044V69.4707H74.7848V68.219H75.5142V66.3414H82.8422V66.9672H82.1129V68.219H81.3835V69.4707H80.6427V71.9741H79.9133V73.2259H79.1839V73.8517H78.4431V76.3552H77.7137V77.6069H76.9844V78.8586H76.2436V79.4845H78.4431V78.8586H79.1839V77.6069H79.9133V76.981H80.6427V74.4776H81.3835V73.2259H82.1129V72.6H82.8422V71.3483H83.583V68.8448H84.3124V67.5931H85.0418V66.3414H91.6404V68.8448H90.9111V70.0966H90.1817V71.3483H89.4409V72.6H88.7115V74.4776H87.9821V75.7293H87.2413V76.981H86.512V79.4845ZM104.108 78.8586V80.1104H103.379V80.7362H102.638V82.6138H101.909V83.8655H101.179V84.4914H99.7093V85.1173H98.9799V85.7431H87.9821V83.8655H88.7115V82.6138H95.3102V81.3621H87.9821V80.1104H87.2413V79.4845H87.9821V77.6069H88.7115V75.1035H89.4409V74.4776H90.1817V73.2259H90.9111V72.6H91.6404V70.0966H92.3812V68.8448H93.1106V67.5931H93.84V66.9672H94.5808V66.3414H109.978V68.219H109.237V69.4707H108.507V70.7224H107.778V73.2259H107.037V73.8517H106.308V75.1035H105.579V76.3552H104.838V78.8586H104.108ZM104.838 81.3621V80.1104H105.579V79.4845H106.308V78.2328H107.037V76.981H107.778V74.4776H108.507V73.2259H109.237V72.6H109.978V70.0966H110.707V68.8448H111.436V68.219H112.177V66.9672H112.907V66.3414H125.363V67.5931H126.093V66.3414H142.23V67.5931H142.219V68.8448H141.489V70.0966H140.76V71.3483H140.019V73.2259H139.29V73.8517H138.56V75.1035H137.82V76.3552H137.09V78.8586H136.361V80.1104H134.891V80.7362H134.161V81.3621H120.964V80.7362H120.223V78.2328H120.964V75.7293H121.693V74.4776H122.423V73.2259H123.164V72.6H123.893V70.0966H124.622V68.8448H118.024V70.7224H117.294V71.9741H116.565V73.2259H115.824V75.1035H115.095V76.3552H114.365V77.6069H113.625V78.8586H112.895V80.1104H112.166V81.3621H104.838ZM119.494 73.8517V75.1035H118.764V76.3552H118.024V76.981H117.294V75.7293H118.024V73.2259H118.764V72.6H119.494V71.3483H120.964V73.2259H120.223V73.8517H119.494ZM198.678 65.0897H197.948V66.3414H197.219V66.9672H196.478V69.4707H195.749V70.7224H195.019V71.9741H194.279V73.2259H193.549V75.1035H192.82V76.3552H192.079V77.6069H191.35V78.8586H190.62V81.3621H190.609V80.7362H189.88V81.3621H174.483V77.6069H173.753V78.8586H173.013V80.1104H172.283V81.3621H164.955V80.7362H165.684V80.1104H166.414V77.6069H167.155V76.3552H167.884V75.1035H168.613V73.8517H169.354V71.9741H170.084V70.7224H170.813V69.4707H171.554V68.8448H169.354V69.4707H168.613V70.7224H167.884V71.3483H167.155V72.6H166.414V74.4776H165.684V75.7293H164.955V76.981H164.214V79.4845H163.485V80.1104H162.756V81.3621H139.29V84.4914H134.161V85.1173H117.306V84.4914H110.707V83.8655H113.625V82.6138H114.365V81.3621H115.095V80.1104H118.024V82.6138H118.764V83.2397H119.494V83.8655H134.161V83.2397H135.62V82.6138H137.09V83.2397H137.82V83.8655H139.29V81.3621H138.56V80.7362H137.82V78.8586H138.56V77.6069H139.29V76.3552H140.019V73.8517H140.76V73.2259H141.489V71.9741H142.219V69.4707H142.96V68.219H143.689V67.5931H143.7V66.9672H144.43V66.3414H151.028V67.5931H150.288V70.0966H149.558V71.3483H148.829V72.6H148.099V74.4776H147.37V75.7293H146.641V76.981H145.911V77.6069H145.182V79.4845H148.111V76.981H148.84V75.7293H149.57V74.4776H150.299V72.6H151.028V71.3483H151.758V70.0966H152.487V68.8448H153.217V67.5931V66.9672H153.957V66.3414H161.274V66.9672H160.545V68.219H159.804V69.4707H159.074V70.7224H158.345V72.6V73.2259H157.616V73.8517H156.886V75.1035H156.157V77.6069H155.427V78.2328H154.698V79.4845H153.969V80.1104H153.239V80.7362H151.769V81.3621H156.168V79.4845H156.898V78.2328H157.627V76.981H158.356V74.4776H159.086V73.2259H159.815V72.6H160.556V71.3483H161.285V68.8448H162.015V67.5931H162.756V66.3414H178.882V68.219H178.152V69.4707H177.412V71.9741H176.682V73.2259H175.953V73.8517H175.212V75.1035H174.483V77.6069H175.212V76.3552H175.953V75.1035H176.682V73.8517H177.412V72.6H178.152V71.3483H178.882V70.0966H179.611V68.8448H180.352V66.9672H181.081V66.3414H190.62V65.0897H191.35V63.8379H192.079V62.5862H192.82V61.9603H198.678V65.0897Z" fill="#FF83DC"/>
<path d="M126.092 74.4774H128.292V75.1032H129.021V76.9808H128.292V78.8584H127.562V80.1101H128.292V79.4843H129.021V77.6067H129.762V76.9808H130.491V76.355H131.221V75.7291H131.962V74.4774H134.161V73.8515H137.09V73.2256H133.42V72.5998H132.691V70.7222H133.42V68.8446H134.161V68.2188H133.42H132.691V68.8446H131.962V70.7222H131.221V71.3481H130.491V71.9739H129.762V72.5998H129.021V73.2256H124.622V73.8515H126.092V74.4774Z" fill="#FF83DC"/>
<path d="M125.363 68.2186V67.5928H124.622V68.2186V68.8445H125.363V68.2186Z" fill="#FF83DC"/>
<path d="M61.5761 78.2325V76.9808H62.3055V74.4773H63.0348V73.8515H63.7756V73.2256H60.8353V74.4773H60.1059V75.729H59.3765V78.2325H58.6357V79.4842H60.8353V78.2325H61.5761Z" fill="#FF83DC"/>
<path d="M99.6978 70.0964H98.9684V71.3482H98.2277V72.5999H97.4983V73.2258H96.7689V75.7292H96.0281V76.9809H95.2987V78.2327H94.5693V79.4844H96.7689V78.2327H97.4983V76.9809H98.2277V75.7292H98.9684V75.1033H99.6978V73.2258H100.427V71.974H101.168V70.7223H101.897V69.4706H102.627V68.8447H99.6978V70.0964Z" fill="#FF83DC"/>
<path d="M43.2393 75.7177V76.3435H43.98V75.7177V75.0918H43.2393V75.7177Z" fill="#FF83DC"/>
<path d="M43.9795 74.4667V75.0925H44.7089V74.4667V73.8408H43.9795V74.4667Z" fill="#FF83DC"/>
<path d="M45.4384 73.2148H44.709V73.8407H45.4384V73.2148Z" fill="#FF83DC"/>
<path d="M45.4385 72.5888V73.2146H46.1793V72.5888V71.9629H45.4385V72.5888Z" fill="#FF83DC"/>
<path d="M37.3811 70.0964H36.6403V71.3482H35.9109V72.5999H35.1815V74.4775H34.4408V75.7292H33.7114V76.9809H32.982V78.2327H32.2412V79.4844H35.1815V76.9809H35.9109V75.7292H36.6403V74.4775H37.3811V73.2258H38.1105V71.3482H38.8399V70.7223H39.5807V69.4706H40.31V68.8447H37.3811V70.0964Z" fill="#FF83DC"/>
<path d="M65.2347 49.4434H65.9755V48.1917H66.7049V46.94H67.4343V45.0624H68.175V44.4365H65.9755V45.0624H65.2347V46.3141H64.5053V48.1917H63.7759V49.4434H63.0352V50.0693H65.2347V49.4434Z" fill="#FF83DC"/>
<path d="M98.2273 54.4389H98.9681H99.6975V53.8131V53.1872H100.427V52.5613V51.9469H101.168V51.321V50.6951H101.897V49.4434H102.626V46.94H103.367V46.3141H104.097V45.6882H104.826V44.4365H102.626V45.0624H101.897V46.3141H101.168V46.94H100.427V48.1917H99.6975V50.6838V50.6951H98.9681V51.321V51.9355H98.2273V52.5613V53.1872H97.4979V53.8131H96.7686V54.4389H97.4979H98.2273Z" fill="#FF83DC"/>
</g>
<defs>
<linearGradient id="paint0_linear_1148_4856" x1="121.334" y1="86.3691" x2="121.334" y2="98.2605" gradientUnits="userSpaceOnUse">
<stop stop-color="#75FFC5"/>
<stop offset="0.796925" stop-color="#A9DEF9"/>
</linearGradient>
<linearGradient id="paint1_linear_1148_4856" x1="166.795" y1="84.4912" x2="166.795" y2="86.3688" gradientUnits="userSpaceOnUse">
<stop stop-color="#75FFC5"/>
<stop offset="0.796925" stop-color="#A9DEF9"/>
</linearGradient>
<linearGradient id="paint2_linear_1148_4856" x1="167.531" y1="83.8652" x2="167.531" y2="84.4911" gradientUnits="userSpaceOnUse">
<stop stop-color="#75FFC5"/>
<stop offset="0.796925" stop-color="#A9DEF9"/>
</linearGradient>
<linearGradient id="paint3_linear_1148_4856" x1="125.004" y1="80.1104" x2="125.004" y2="85.1172" gradientUnits="userSpaceOnUse">
<stop stop-color="#75FFC5"/>
<stop offset="0.796925" stop-color="#A9DEF9"/>
</linearGradient>
<linearGradient id="paint4_linear_1148_4856" x1="115.111" y1="66.3408" x2="115.111" y2="81.3615" gradientUnits="userSpaceOnUse">
<stop stop-color="#75FFC5"/>
<stop offset="0.796925" stop-color="#A9DEF9"/>
</linearGradient>
<linearGradient id="paint5_linear_1148_4856" x1="167.53" y1="66.3408" x2="167.53" y2="81.3615" gradientUnits="userSpaceOnUse">
<stop stop-color="#75FFC5"/>
<stop offset="0.796925" stop-color="#A9DEF9"/>
</linearGradient>
<linearGradient id="paint6_linear_1148_4856" x1="119.141" y1="71.3486" x2="119.141" y2="76.9814" gradientUnits="userSpaceOnUse">
<stop stop-color="#75FFC5"/>
<stop offset="0.796925" stop-color="#A9DEF9"/>
</linearGradient>
<linearGradient id="paint7_linear_1148_4856" x1="131.232" y1="66.3408" x2="131.232" y2="81.3615" gradientUnits="userSpaceOnUse">
<stop stop-color="#75FFC5"/>
<stop offset="0.796925" stop-color="#A9DEF9"/>
</linearGradient>
<linearGradient id="paint8_linear_1148_4856" x1="149.552" y1="66.3408" x2="149.552" y2="81.3615" gradientUnits="userSpaceOnUse">
<stop stop-color="#75FFC5"/>
<stop offset="0.796925" stop-color="#A9DEF9"/>
</linearGradient>
<linearGradient id="paint9_linear_1148_4856" x1="98.6094" y1="66.3408" x2="98.6094" y2="85.7425" gradientUnits="userSpaceOnUse">
<stop stop-color="#75FFC5"/>
<stop offset="0.796925" stop-color="#A9DEF9"/>
</linearGradient>
<linearGradient id="paint10_linear_1148_4856" x1="80.6423" y1="66.3408" x2="80.6423" y2="85.7425" gradientUnits="userSpaceOnUse">
<stop stop-color="#75FFC5"/>
<stop offset="0.796925" stop-color="#A9DEF9"/>
</linearGradient>
<linearGradient id="paint11_linear_1148_4856" x1="62.3161" y1="66.3408" x2="62.3161" y2="81.3615" gradientUnits="userSpaceOnUse">
<stop stop-color="#75FFC5"/>
<stop offset="0.796925" stop-color="#A9DEF9"/>
</linearGradient>
<linearGradient id="paint12_linear_1148_4856" x1="186.626" y1="61.9492" x2="186.626" y2="81.3509" gradientUnits="userSpaceOnUse">
<stop stop-color="#75FFC5"/>
<stop offset="0.796925" stop-color="#A9DEF9"/>
</linearGradient>
<linearGradient id="paint13_linear_1148_4856" x1="39.9562" y1="61.96" x2="39.9562" y2="85.7427" gradientUnits="userSpaceOnUse">
<stop stop-color="#75FFC5"/>
<stop offset="0.796925" stop-color="#A9DEF9"/>
</linearGradient>
<linearGradient id="paint14_linear_1148_4856" x1="43.9906" y1="61.96" x2="43.9906" y2="63.8375" gradientUnits="userSpaceOnUse">
<stop stop-color="#75FFC5"/>
<stop offset="0.796925" stop-color="#A9DEF9"/>
</linearGradient>
<linearGradient id="paint15_linear_1148_4856" x1="85.4118" y1="58.2051" x2="85.4118" y2="64.4637" gradientUnits="userSpaceOnUse">
<stop stop-color="#75FFC5"/>
<stop offset="0.796925" stop-color="#A9DEF9"/>
</linearGradient>
<linearGradient id="paint16_linear_1148_4856" x1="37.0215" y1="59.457" x2="37.0215" y2="60.7088" gradientUnits="userSpaceOnUse">
<stop stop-color="#75FFC5"/>
<stop offset="0.796925" stop-color="#A9DEF9"/>
</linearGradient>
<linearGradient id="paint17_linear_1148_4856" x1="34.0874" y1="58.2051" x2="34.0874" y2="58.8309" gradientUnits="userSpaceOnUse">
<stop stop-color="#75FFC5"/>
<stop offset="0.796925" stop-color="#A9DEF9"/>
</linearGradient>
<linearGradient id="paint18_linear_1148_4856" x1="64.8811" y1="41.3066" x2="64.8811" y2="56.9532" gradientUnits="userSpaceOnUse">
<stop stop-color="#75FFC5"/>
<stop offset="0.796925" stop-color="#A9DEF9"/>
</linearGradient>
<linearGradient id="paint19_linear_1148_4856" x1="141.136" y1="49.4434" x2="141.136" y2="63.8382" gradientUnits="userSpaceOnUse">
<stop stop-color="#75FFC5"/>
<stop offset="0.796925" stop-color="#A9DEF9"/>
</linearGradient>
<linearGradient id="paint20_linear_1148_4856" x1="33.3577" y1="10.0137" x2="33.3577" y2="60.7085" gradientUnits="userSpaceOnUse">
<stop stop-color="#75FFC5"/>
<stop offset="0.796925" stop-color="#A9DEF9"/>
</linearGradient>
<linearGradient id="paint21_linear_1148_4856" x1="102.638" y1="37.5518" x2="102.638" y2="56.9535" gradientUnits="userSpaceOnUse">
<stop stop-color="#75FFC5"/>
<stop offset="0.796925" stop-color="#A9DEF9"/>
</linearGradient>
<linearGradient id="paint22_linear_1148_4856" x1="46.1901" y1="41.3066" x2="46.1901" y2="56.9532" gradientUnits="userSpaceOnUse">
<stop stop-color="#75FFC5"/>
<stop offset="0.796925" stop-color="#A9DEF9"/>
</linearGradient>
<linearGradient id="paint23_linear_1148_4856" x1="82.8481" y1="41.3066" x2="82.8481" y2="56.9532" gradientUnits="userSpaceOnUse">
<stop stop-color="#75FFC5"/>
<stop offset="0.796925" stop-color="#A9DEF9"/>
</linearGradient>
<linearGradient id="paint24_linear_1148_4856" x1="119.505" y1="41.3066" x2="119.505" y2="60.7084" gradientUnits="userSpaceOnUse">
<stop stop-color="#75FFC5"/>
<stop offset="0.796925" stop-color="#A9DEF9"/>
</linearGradient>
<linearGradient id="paint25_linear_1148_4856" x1="68.1859" y1="36.9258" x2="68.1859" y2="40.0551" gradientUnits="userSpaceOnUse">
<stop stop-color="#75FFC5"/>
<stop offset="0.796925" stop-color="#A9DEF9"/>
</linearGradient>
<clipPath id="clip0_1148_4856">
<rect width="204" height="99" fill="white"/>
</clipPath>
</defs>
</svg>
