<svg width="179" height="87" viewBox="0 0 179 87" fill="none" xmlns="http://www.w3.org/2000/svg">
<g clip-path="url(#clip0_155_374)">
<path d="M144.75 76.4501H144.1V77.0001H143.46V77.5501H142.17V78.1001H141.53V78.6501H140.24V79.2001H138.96V79.7501H137.67V80.3001H135.74V80.8501H133.81V81.4001H131.24V81.9501H103.57V81.4001H99.0701V80.8501H95.2101V80.3001H91.9901V79.7501H90.0601V79.2001H86.8501V78.6501H84.9201V78.1001H82.9901V77.5501H80.4101V77.0001H73.3401V75.9001H72.6901V76.4501H70.7601V77.0001H66.9001V77.5501H68.8301V78.1001H70.1201V78.6501H71.4101V79.2001H73.3401V79.7501H74.6201V80.3001H76.5501V80.8501H78.4801V81.4001H80.4101V81.9501H84.9201V82.5001H87.4901V83.0501H89.4201V83.6001H91.9901V84.1501H95.2101V84.7001H99.0701V85.2501H102.93V85.8001H108.72V86.3501H122.87V85.8001H127.38V85.2501H130.59V84.7001H132.52V84.1501H134.45V83.6001H136.38V83.0501H137.67V82.5001H138.96V81.9501H140.89V81.4001H141.53V80.8501H142.82V80.3001H143.46V79.7501H144.1V78.6501H144.75V78.1001H145.39V77.5501H146.03V75.9001H144.75V76.4501Z" fill="url(#paint0_linear_155_374)"/>
<path d="M146.03 74.8V75.35V75.9H146.68V75.35V74.8V74.25H146.03V74.8Z" fill="url(#paint1_linear_155_374)"/>
<path d="M147.32 73.7H146.68V74.25H147.32V73.7Z" fill="url(#paint2_linear_155_374)"/>
<path d="M122.23 73.7001V74.2501H117.73V74.8001H102.93V74.2501H97.1401V73.7001H99.7201V73.1501H99.7101V72.6001H100.36V71.5001H101V70.4001H103.57V72.6001H104.22V73.1501H104.86V73.7001H117.73V73.1501H119.01V72.6001H120.3V73.1501H120.94V73.7001H122.23Z" fill="url(#paint3_linear_155_374)"/>
<path d="M110.01 58.3V59.4001H109.37V59.9501H109.36V60.5H103.57V62.1501H102.93V63.25H102.29V64.35H101.64V66H101V67.1H100.36V68.2H99.71V69.3001H99.07V70.4001H98.43V71.5H92V70.4001H92.64V69.85H93.28V68.75H93.93V67.6501H94.57V65.45H95.21V64.35H95.86V63.8H96.5V61.6H97.14V60.5H97.79V59.9501H98.43V58.85H99.07V58.3H110.01Z" fill="url(#paint4_linear_155_374)"/>
<path d="M156.97 58.3V59.9501H156.33V61.05H155.69V63.25H155.04V64.35H154.4V64.9001H153.76V66H153.11V68.2H152.47V69.3001H151.83V70.4001H151.18V71.5H144.75V70.95H145.39V70.4001H146.03V68.2H146.68V67.1H147.32V66H147.96V64.9001H148.61V63.25H149.25V62.1501H149.9V61.05H150.54V60.5H148.61V61.05H147.96V62.1501H147.32V62.7001H146.68V63.8H146.03V65.45H145.39V66.5501H144.75V67.6501H144.1V69.85H143.46V70.4001H142.82V71.5H137.03V69.85H137.67V68.75H138.32V67.6501H138.96V65.45H139.6V64.35H140.25V63.8H140.89V62.7001H141.53V60.5H142.18V59.4001H142.82V58.3H156.97Z" fill="url(#paint5_linear_155_374)"/>
<path d="M106.15 62.7V64.3499H105.5V64.9H104.86V66H104.22V67.0999H103.57V67.65H102.93V66.55H103.57V64.3499H104.22V63.7999H104.86V62.7H106.15Z" fill="url(#paint6_linear_155_374)"/>
<path d="M124.8 58.3V60.5H124.16V61.6H123.52V62.7001H122.88V64.35H122.23V64.9001H121.59V66H120.95V67.1H120.3V69.3001H119.66V70.4001H118.37V70.95H117.73V71.5H106.15V70.95H105.5V68.75H106.15V66.5501H106.79V65.45H107.43V64.35H108.08V63.8H108.72V61.6H109.36V60.5H110.01V59.4001H110.65V58.3H124.8Z" fill="url(#paint7_linear_155_374)"/>
<path d="M141.52 58.3V58.85H140.88V59.9501H140.24V61.05H139.59V62.1501H138.95V64.35H138.31V64.9001H137.66V66H137.02V68.2H136.38V68.75H135.73V69.85H135.09V70.4001H134.45V70.95H133.16V71.5H121.58V70.95H120.93V69.3001H121.58V68.2H122.22V67.1H122.87V64.9001H123.51V64.35H124.15V63.25H124.79V61.05H125.44V59.9501H126.08V58.85H126.72V58.3H132.51V59.4001H131.87V61.6H131.23V62.7001H130.59V63.8H129.94V65.45H129.3V66.5501H128.66V67.6501H128.01V68.2H127.37V69.85H129.94V67.6501H130.59V66.5501H131.23V65.45H131.87V63.8H132.52V62.7001H133.16V61.6H133.8V60.5H134.45V59.4001H134.44V58.85H135.09V58.3H141.52Z" fill="url(#paint8_linear_155_374)"/>
<path d="M77.84 72.6V73.7H77.2V75.35H86.85V74.8001H87.49V74.25H88.78V73.7H89.42V72.6H90.06V70.95H90.71V70.4001H91.35V69.3001H91.99V67.1H92.64V66H93.28V64.9001H93.92V64.35H94.57V62.1501H95.21V61.05H95.85V59.9501H96.5V58.3H82.99V58.85H82.34V59.4001H81.7V60.5H81.06V61.6H80.41V63.8H79.77V64.35H79.13V65.45H78.48V66H77.84V68.2H77.2V69.85H76.55V70.4001H77.2V71.5H83.63V72.6H77.84ZM82.99 69.85V68.75H83.63V67.6501H84.27V66.5501H84.92V64.35H85.56V63.8H86.2V62.7001H86.85V61.6H87.49V60.5H90.06V61.05H89.42V62.1501H88.78V63.25H88.13V64.35H87.49V66H86.85V66.5501H86.2V67.6501H85.56V68.75H84.92V69.85H82.99Z" fill="url(#paint9_linear_155_374)"/>
<path d="M70.7601 74.8001H72.0501V74.25H72.6901V73.7H73.3401V72.6H73.9801V71.5H74.6201V70.4001H75.2701V69.85H75.9101V67.6501H76.5501V66.5501H77.2001V65.45H77.8401V63.8H78.4801V62.7001H79.1301V61.6H79.7701V60.5H80.4101V58.3H74.6201V59.4001H73.9801V60.5H73.3401V62.7001H72.6901V63.8H72.0501V64.35H71.4101V65.45H70.7601V67.6501H70.1201V68.2H69.4801V69.3001H68.8301V69.85H66.9001V69.3001H67.5501V68.2H68.1901V67.1H68.8301V64.9001H69.4801V64.35H70.1201V63.25H70.7601V61.05H71.4101V59.9501H72.0501V58.85H72.6901V58.3H66.2601V59.9501H65.6201V61.05H64.9701V62.1501H64.3301V63.25H63.6901V64.9001H63.0401V65.45H62.4001V66.5501H61.7601V68.75H61.1101V70.95H61.7601V71.5H68.1901V72.0501H67.5501V72.6H61.7601V74.25H61.1101V75.35H70.7601V74.8001Z" fill="url(#paint10_linear_155_374)"/>
<path d="M61.11 66H61.76V64.35H62.4V63.25H63.04V62.1501H63.69V59.9501H64.33V58.85H63.69V58.3H52.75V59.4001H52.11V60.5H57.9V61.05H57.25V61.6H50.18V62.1501H49.53V62.7001H48.25V63.8H47.6V64.9001H46.96V66H46.32V67.1H45.67V68.2H45.03V71.5H58.54V70.95H59.18V69.3001H59.83V68.2H60.47V67.1H61.11V66ZM55.97 64.9001H55.32V65.45H54.68V67.6501H54.04V68.75H53.39V69.85H51.46V68.75H52.11V66.5501H52.75V65.45H53.39V64.35H55.97V64.9001Z" fill="url(#paint11_linear_155_374)"/>
<path d="M173.7 54.4399H169.2V54.9899H168.56V56.0899H167.92V57.1899H167.28V58.2899H158.92V58.8399H158.28V60.4899H157.64V61.5899H157V62.6899H156.36V63.7899H155.72V64.8899H155.08V65.9899H154.44V67.0899H153.8V68.1899H153.16V71.4899H166.67V70.9399H167.31V69.2899H167.95V68.1899H168.59V67.0899H169.23V65.9899H169.87V64.3399H170.51V63.2399H171.15V62.1399H171.79V61.0399H172.43V58.8399H173.07V58.2899H173.71V57.1899H174.35V54.4399H173.71H173.7ZM159.55 69.2899V68.7399H160.19V66.5399H160.83V65.4399H161.47V64.3399H162.11V63.7899H162.75V61.5899H163.39V60.4899H165.96V61.0399H165.32V63.2399H164.68V64.3399H164.04V64.8899H163.4V65.4399H162.76V67.6399H162.12V68.7399H161.48V69.8399H159.55V69.2899Z" fill="url(#paint12_linear_155_374)"/>
<path d="M45.03 65.4499H45.67V64.3499H46.32V63.7999H46.96V62.7H47.6V60.5H48.25V59.4H48.89V58.2999H49.53V56.65H50.18V55.5499H50.82V54.45H45.03V55.5499H44.39V56.65H43.7401V57.75H43.1V58.2999H42.46V60.5H41.8101V61.5999H41.17V62.7H40.53V61.0499H41.17V59.4H41.8101V58.8499H41.17V58.2999H27.66V59.4H27.0201V60.5H26.3701V62.15H25.73V63.25H25.09V64.3499H24.4401V64.9H23.8V67.0999H23.16V68.1999H22.51V69.3H21.8701V70.4H21.23V72.05H20.58V73.15H19.9401V74.25H19.3V75.3499H25.73V74.25H26.3701V72.05H27.0201V71.5H34.7401V70.9499H35.3801V70.4H36.0201V69.8499H36.67V69.3H37.3101V68.1999H37.9501V69.3H37.3101V70.4H36.67V71.5H42.46V70.4H43.1V69.8499H43.7401V68.75H44.39V67.65H45.03V65.4499ZM35.3801 61.0499H34.7401V62.15H34.09V62.7H33.4501V64.3499H32.8101V65.4499H32.16V66.55H31.5201V67.65H30.88V69.8499H28.3V68.75H28.9501V67.65H29.59V66.55H30.23V65.4499H30.88V63.7999H31.5201V62.7H32.16V61.5999H32.8101V60.5H35.3801V61.0499ZM40.53 64.3499H39.8801V64.9H39.2401V66H38.6V67.0999H37.9501V66H38.6V64.9H39.2401V64.3499H39.8801V63.25H40.53V64.3499Z" fill="url(#paint13_linear_155_374)"/>
<path d="M40.5302 55.5499H39.2402V55H37.9502V54.45H36.6702V56.0999H40.5302V55.5499Z" fill="url(#paint14_linear_155_374)"/>
<path d="M65.6201 56.6501V56.1001H112.58V55.5501H109.36V55.0001H105.5V55.5501H91.9901V52.2501H78.4801V51.7001H77.8401V52.2501H46.9601V51.7001H46.3201V51.1501H45.0301V51.7001H43.7401V52.2501H37.3101V52.8001H38.6001V53.3501H40.5301V53.9001H41.8101V54.4501H42.4601V53.9001H43.1001V52.8001H54.6801V53.3501H54.0401V54.4501H53.3901V55.5501H52.7501V56.1001H64.3301V56.6501H65.6201Z" fill="url(#paint15_linear_155_374)"/>
<path d="M33.4501 53.35V52.8H34.0901V52.25H30.8801V52.8H32.1601V53.35H33.4501Z" fill="url(#paint16_linear_155_374)"/>
<path d="M30.2301 51.1501H29.5901V51.7001H30.2301V51.1501Z" fill="url(#paint17_linear_155_374)"/>
<path d="M62.4001 46.75V45.6501H63.0401V44.55H63.6901V42.35H64.3301V41.8H64.9701V41.25H65.6201V40.1501H66.2601V36.3H54.0401V36.85H52.7501V37.4001H52.1101V39.05H51.4601V40.1501H50.8201V41.25H50.1801V41.8H49.5301V44H48.8901V45.1H48.2501V46.2001H47.6001V50.05H60.4701V49.5H61.1101V48.4001H61.7601V47.85H53.3901V46.75H62.4001ZM55.3201 43.4501H55.9701V42.35H56.6101V40.7001H57.2501V39.6H57.9001V39.05H59.8301V39.6H59.1801V41.25H58.5401V42.35H57.9001V43.4501H57.2501V44H55.3201V43.4501Z" fill="url(#paint18_linear_155_374)"/>
<path d="M114.51 44V43.45H113.87V44H113.22V45.65H112.58V46.75H111.94V47.2999H113.22V47.8499H114.51V48.4H115.8V48.95H117.73V49.5H118.37V50.0499H120.3V50.5999H120.94V51.15H122.87V51.7H123.52V52.25H124.8V52.7999H126.73V53.3499H127.38V53.9H128.66V54.45H129.31V55H129.95V55.5499H130.59V56.0999H135.74V55.5499H135.1V55H134.45V54.45H133.81V53.9H133.17V53.3499H131.88V52.7999H130.59V52.25H129.95V51.7H129.31V51.15H128.02V50.5999H127.38V50.0499H126.73V49.5H125.45V48.95H124.8V48.4H124.16V47.8499H122.87V47.2999H122.23V46.75H120.3V46.2H119.01V45.65H117.73V45.0999H116.44V44.5499H115.8V44H114.51Z" fill="url(#paint19_linear_155_374)"/>
<path d="M19.3001 47.85H20.5801V47.3H21.2301V46.75H24.4401V47.3H25.0901V47.85H26.3701V48.9501H27.0201V49.5H28.3001V50.6H28.9501V51.1501H29.5901V50.6V50.05H28.9501V46.75H29.5901V45.6501H30.2301V45.1H30.8801V44H31.5201V43.4501H32.1601V41.8H32.8101V40.1501H33.4501V37.9501H34.0901V36.85H34.7401V36.3H35.3801V35.2001H37.3101V34.6501H40.5301V34.1H41.1701V33.55H41.8101V33H42.4601V32.4501H43.1001V31.9H43.7401V31.35H44.3901V30.8H45.0301V30.25H45.6701V29.7001H46.3201V29.15H47.6001V28.05H48.8901V27.5H49.5301V26.4H50.1801V25.3H47.6001V24.75H45.0301V24.2H42.4601V23.65H37.3101V20.35H36.6701V15.4H36.0201V10.45H35.3801V8.80005H34.7401V9.35005H34.0901V9.90005H33.4501V11.55H32.8101V12.1H32.1601V12.65H31.5201V13.2H30.8801V14.85H30.2301V15.4H29.5901V15.95H28.9501V17.05H28.3001V18.15H27.6601V18.7H27.0201V19.25H26.3701V20.9H25.7301V21.45H25.0901V22.55H24.4401V23.1H23.8001V23.65H16.7201V24.2H13.5101V24.75H9.65011V26.9501H10.2901V28.05H10.9301V29.15H12.2201V31.35H12.8601V32.4501H13.5101V33.55H14.1501V35.2001H14.7901V35.75H15.4401V36.85H16.0801V37.4001H15.4401V38.5H14.7901V39.6H14.1501V41.25H13.5101V42.9001H12.8601V44H12.2201V46.2001H11.5801V46.75H10.9301V47.85H10.2901V48.9501H9.65011V51.7001H9.00011V52.8H8.36011V53.35H9.65011V52.8H11.5801V52.25H12.2201V51.7001H13.5101V51.1501H14.1501V50.6H15.4401V50.05H16.7201V49.5H17.3701V48.9501H18.6501V48.4001H19.3001V47.85Z" fill="url(#paint20_linear_155_374)"/>
<path d="M79.7701 46.2V46.75H79.1201V49.5H79.7701V50.05H91.9901V49.5H92.6301V48.95H93.2801V47.85H93.9201V46.75H94.5601V45.65H94.5701V45.1H95.2101V44H95.8501V42.9H96.5001V41.25H97.1401V40.15H97.7801V39.05H98.4301V37.95H99.0701V35.75H100.36V34.1H101V33H94.5701V35.2H93.9201V35.75H93.2801V36.3H85.5601V36.85H84.9201V37.4H84.2701V38.5H83.6301V39.6H82.9901V41.25H82.3401V41.8H81.7001V42.9H81.0501V44H80.4101V46.2H79.7701ZM84.9101 47.3H85.5601V46.75H86.2001V45.65H86.8501V44.55H87.4901V42.35H88.1301V41.25H88.7801V40.7H89.4201V39.6H90.0601V39.05H91.9901V40.15H91.3501V40.7H90.7101V41.25H90.0601V43.45H89.4201V44.55H88.7801V45.65H88.1301V46.75H87.4901V47.85H84.9101V47.3Z" fill="url(#paint21_linear_155_374)"/>
<path d="M43.1001 49.5H44.3901V48.9501H45.0301V47.85H45.6701V46.75H46.3201V46.2001H46.9601V45.1H47.6001V42.35H46.9601V41.8H40.5301V40.7001H41.1701V39.6H41.8101V39.05H43.7401V40.1501H43.1001V41.25H49.5301V39.05H50.1801V36.85H49.5301V36.3H37.9501V36.85H37.3101V37.4001H36.6701V37.9501H36.0201V38.5H35.3801V40.7001H34.7401V41.25H34.0901V44H34.7401V44.55H41.1701V45.1H40.5301V46.75H39.8801V47.85H37.3101V47.3H37.9501V46.2001H32.1601V46.75H31.5201V47.3H30.8801V49.5H31.5201V50.05H43.1001V49.5Z" fill="url(#paint22_linear_155_374)"/>
<path d="M68.8301 36.3V38.5H68.1901V39.6H67.5501V40.7001H66.9001V41.25H66.2601V43.4501H65.6201V44.55H64.9701V45.6501H64.3301V46.75H63.6901V47.85H63.0401V48.9501H62.4001V50.05H68.8301V48.4001H69.4801V47.3H70.1201V46.75H70.7601V44.55H71.4101V43.4501H72.0501V42.35H72.6901V41.25H73.3401V39.6H75.9101V41.25H75.2701V41.8H74.6201V42.9001H73.9801V44H73.3401V46.2001H72.6901V46.75H72.0501V47.85H71.4101V48.4001H70.7601V50.05H77.2001V48.9501H77.8401V46.75H78.4801V46.2001H79.1301V45.1H79.7701V44H80.4101V41.8H81.0601V41.25H81.7001V40.1501H82.3401V39.05H82.9901V36.85H82.3401V36.3H68.8301Z" fill="url(#paint23_linear_155_374)"/>
<path d="M101 36.85H100.36V37.4001V37.9501H99.7101V38.5H99.0701V40.7001H98.4301V41.25H97.7801V41.8V42.35H97.1401V42.9001V43.4501H96.5001V44V44.55V45.1V45.6501H95.8501V46.2001V46.75H95.2101V47.3H94.5701V47.85V48.4001V48.9501V49.5H95.2101V50.05H95.8501H96.5001H97.1401H97.7801H98.4301H99.0701H99.7101H100.36H101H101.64V50.6V51.1501H101H100.36H99.7101H99.0701H98.4301H97.7801H97.1401H96.5001H95.8501V51.7001V52.25H95.2101V52.8H94.5701V53.35H95.2101H95.8501H96.5001H97.1401H97.7801H98.4301H99.0701H99.7101H100.36H101H101.64H102.29H102.93H103.57H104.22H104.86V52.8H105.5H106.15H106.79V52.25H107.43V51.7001V51.1501H108.08V50.6V50.05H108.72V49.5V48.9501V48.4001H109.36V47.85V47.3H110.01V46.75H110.65V46.2001V45.6501V45.1V44.55H111.29V44V43.4501H111.94V42.9001V42.35H112.58V41.8V41.25H113.22V40.7001V40.1501V39.6H113.87V39.05V38.5H114.51V37.9501V37.4001H115.15V36.85V36.3H114.51H113.87H113.22H112.58H111.94H111.29H110.65H110.01H109.36H108.72V36.85V37.4001V37.9501V38.5H108.08V39.05V39.6H107.43V40.1501H106.79V40.7001V41.25H106.15V41.8V42.35V42.9001H105.5V43.4501V44H104.86V44.55V45.1H104.22V45.6501V46.2001H103.57V46.75V47.3V47.85H102.93H102.29H101.64V47.3V46.75V46.2001H102.29V45.6501V45.1H102.93V44.55V44H103.57V43.4501V42.9001V42.35V41.8H104.22V41.25H104.86V40.7001V40.1501H105.5V39.6V39.05H106.15V38.5V37.9501V37.4001V36.85H106.79V36.3H106.15H105.5H104.86H104.22H103.57H102.93H102.29H101.64H101V36.85Z" fill="url(#paint24_linear_155_374)"/>
<path d="M47.6001 32.45V33.5499H46.9601V34.0999H46.3201V34.65H66.2601V35.2H68.1901V34.65H73.3401V34.0999H70.7601V33.5499H66.2601V33H61.7601V32.45H47.6001Z" fill="url(#paint25_linear_155_374)"/>
<path d="M164.69 60.5H164.04H163.4V61.05V61.6H162.76V62.15V62.7V63.25V63.8H162.11V64.35H161.47V64.9V65.45H160.83V66V66.55H160.18V67.1V67.65V68.2V68.75H159.54V69.3V69.85H160.18H160.83H161.47V69.3V68.75H162.11V68.2V67.65H162.76V67.1V66.55V66V65.45H163.4V64.9H164.04V64.35H164.69V63.8V63.25H165.33V62.7V62.15V61.6V61.05H165.97V60.5H165.33H164.69Z" fill="#FF5A8E"/>
<path d="M167.26 52.8V54.45H166.61V55.55H165.97V56.1H159.54V56.65H156.96V56.1H130.59V55.55H129.95V55H129.31V54.45H128.66V53.9H127.38V53.35H126.73V52.8H124.8V52.25H123.52V51.7H122.87V51.15H120.94V50.6H120.3V50.05H118.37V49.5H117.73V48.95H115.8V48.4H114.51V47.85H113.22V47.3H111.94V46.75H112.58V45.65H113.22V44H113.87V42.9H114.51V41.8H115.15V41.25H115.8V39.05H116.44V37.95H117.08V36.85H117.73V35.2H118.37V34.65H102.93V33.55H103.57V31.9H104.22V31.35H93.28V32.45H92.64V33.55H91.99V34.65H82.98V34.1H80.41V33.55H77.84V33H74.62V32.45H70.76V31.9H66.9V31.35H58.54V30.8H50.18V30.25H50.82V29.7H52.11V29.15H52.75V28.6H53.39V28.05H54.04V27.5H54.68V26.95H55.32V26.4H55.97V25.85H56.61V24.75H57.9V24.2H58.54V23.65H55.32V23.1H52.11V22.55H49.53V22H47.6V21.45H45.03V20.9H42.46V20.35H40.53V19.25H39.88V14.3H39.24V9.35H38.6V4.4H37.95V0H36.67V1.1H36.02V1.65H35.38V3.3H34.74V3.85H34.09V4.4H33.45V6.05H32.16V7.15H31.52V7.7H30.88V9.35H30.23V10.45H29.59V11H28.95V11.55H28.3V12.65H27.66V13.2H27.02V13.75H26.37V15.4H25.73V15.95H25.09V17.05H24.44V17.6H23.8V18.7H23.16V19.25H22.51V19.8H21.23V20.35H18.65V20.9H14.79V21.45H12.22V22H8.36V22.55H5.14V23.1H1.93V23.65H2.57V24.75H3.21V26.4H3.86V27.5H4.5V28.6H5.14V29.7H5.79V30.8H6.43V31.9H7.07V34.1H7.72V35.2H9V36.3H9.65V38.5H10.29V41.25H9.65V42.9H9V44H8.36V45.1H7.72V46.2H7.07V48.4H6.43V49.5H5.79V50.6H5.14V52.8H4.5V53.35H3.86V55H3.21V56.1H2.57V58.3H1.93V58.85H1.28V59.95H0.64V61.05H0V62.15H1.93V61.6H2.57V61.05H3.86V60.5H5.14V59.95H5.79V59.4H6.43V58.85H7.07V58.3H9.65V57.75H10.29V57.2H11.58V56.65H12.22V56.1H13.51V55.55H14.15V55H15.44V54.45H16.72V53.9H17.37V53.35H18.65V52.8H23.16V53.35H23.8V54.45H24.44V55H25.73V55.55H26.37V57.75H25.73V58.3H25.09V59.4H24.44V60.5H23.8V62.69H23.15V63.79H22.5V64.34H21.86V65.44H21.22V67.64H20.57V68.74H19.93V69.84H19.29V71.49H18.64V72.59H18V73.69H17.36V74.79H16.71V76.44H16.07V76.99H27.01V75.89H27.65V75.34H28.29V73.69H43.73V73.14H45.02V73.69H50.17V71.49H45.03V68.2H45.67V67.1H46.32V66H46.96V64.9H47.6V63.8H48.25V62.7H49.53V62.15H50.18V61.6H57.25V61.05H57.89V60.5H52.11V59.4H52.75V58.3H63.69V58.85H64.33V59.95H63.69V62.15H63.04V63.25H62.4V64.35H61.76V66H61.11V67.1H60.47V68.2H59.83V69.3H59.18V70.95H58.54V71.5H50.18V73.7H59.18V74.8H58.54V75.9H57.25V77H70.76V76.45H72.69V75.9H73.34V77H80.41V77.55H82.99V78.1H84.92V78.65H86.85V79.2H90.06V79.75H91.99V80.3H95.21V80.85H99.07V81.4H103.57V81.95H131.24V81.4H133.81V80.85H135.74V80.3H137.67V79.75H138.96V79.2H140.24V78.65H141.53V78.1H142.17V77.55H143.46V77H144.1V76.45H144.75V75.9H146.03V74.25H146.68V73.7H152.46V73.15H153.1V73.7H167.9V72.6H168.54V71.5H169.19V70.4H169.83V68.75H170.47V67.65H171.12V66.55H171.76V65.45H172.4V63.8H173.05V62.7H173.69V61.6H174.33V59.4H174.98V58.3H175.62V57.75H176.26V57.2H176.91V55H177.55V53.9H178.19V52.8H167.26ZM106.79 36.3V36.85H106.15V39.05H105.5V40.15H104.86V41.25H104.22V41.8H103.57V44H102.93V45.1H102.29V46.2H101.64V47.85H103.57V46.2H104.22V45.1H104.86V44H105.5V42.9H106.15V41.25H106.79V40.15H107.43V39.6H108.08V38.5H108.72V36.3H115.15V37.4H114.51V38.5H113.87V39.6H113.22V41.25H112.58V42.35H111.94V43.45H111.29V44.55H110.65V46.75H110.01V47.3H109.36V48.4H108.72V50.05H108.08V51.15H107.43V52.25H106.79V52.8H104.86V53.35H94.57V52.79H95.21V52.24H95.85V51.14H101.64V50.04H95.21V49.5H94.57V47.3H95.21V46.75H95.85V45.65H96.5V43.45H97.14V42.35H97.78V41.25H98.43V40.7H99.07V38.5H99.71V37.95H100.36V36.85H101V36.3H106.79ZM82.34 36.3V36.85H82.99V39.05H82.34V40.15H81.7V41.25H81.06V41.8H80.41V44H81.06V42.9H81.7V41.8H82.34V41.25H82.99V39.6H83.63V38.5H84.27V37.4H84.92V36.85H85.56V36.3H93.28V35.75H93.92V35.2H94.57V33H101V34.1H100.36V35.75H99.07V37.95H98.43V39.05H97.78V40.15H97.14V41.25H96.5V42.9H95.85V44H95.21V45.1H94.57V46.75H93.92V47.85H93.28V48.95H92.64V49.5H91.99V50.05H79.77V49.5H79.13V46.75H79.77V46.2H80.41V44H79.77V45.1H79.13V46.2H78.48V46.75H77.84V48.95H77.2V50.05H70.76V48.4H71.41V47.85H72.05V46.75H72.69V46.2H73.34V44H73.98V42.9H74.62V41.8H75.27V41.25H75.91V39.6H73.34V41.25H72.69V42.35H72.05V43.45H71.41V44.55H70.76V46.75H70.12V47.3H69.48V48.4H68.83V50.05H62.4V48.95H63.04V47.85H63.69V46.75H64.33V45.65H64.97V44.55H65.62V43.45H66.26V41.25H66.9V40.7H67.55V39.6H68.19V38.5H68.83V36.3H82.34ZM61.76 47.85V48.4H61.11V49.5H60.47V50.05H47.6V46.2H48.25V45.1H48.89V44H49.53V41.8H50.18V41.25H50.82V40.15H51.46V39.05H52.11V37.4H52.75V36.85H54.04V36.3H66.26V40.15H65.62V41.25H64.97V41.8H64.33V42.35H63.69V44.55H63.04V45.65H62.4V46.75H53.39V47.85H61.76ZM39.24 55V55.55H40.53V56.1H36.67V54.45H37.95V55H39.24ZM31.52 50.05V49.5H30.88V47.3H31.52V46.75H32.16V46.2H37.95V47.3H37.31V47.85H39.88V46.75H40.53V45.1H41.17V44.55H34.74V44H34.09V41.25H34.74V40.7H35.38V38.5H36.02V37.95H36.67V37.4H37.31V36.85H37.95V36.3H49.53V36.85H50.18V39.05H49.53V41.25H43.1V40.15H43.74V39.05H41.81V39.6H41.17V40.7H40.53V41.8H46.96V42.35H47.6V45.1H46.96V46.2H46.32V46.75H45.67V47.85H45.03V48.95H44.39V49.5H43.1V50.05H31.52ZM30.88 52.8V52.25H34.09V52.8H33.45V53.35H32.16V52.8H30.88ZM61.76 32.45V33H66.26V33.55H70.76V34.1H73.33V34.65H68.19V35.2H66.26V34.65H46.32V34.1H46.96V33.55H47.6V32.45H61.76ZM25.09 47.85V47.3H24.44V46.75H21.23V47.3H20.58V47.85H19.3V48.4H18.65V48.95H17.37V49.5H16.72V50.05H15.44V50.6H14.15V51.15H13.51V51.7H12.22V52.25H11.58V52.8H9.65V53.35H8.36V52.8H9V51.7H9.65V48.95H10.29V47.85H10.93V46.75H11.58V46.2H12.22V44H12.86V42.9H13.51V41.25H14.15V39.6H14.79V38.5H15.44V37.4H16.08V36.85H15.44V35.75H14.79V35.2H14.15V33.55H13.51V32.45H12.86V31.35H12.22V29.15H10.93V28.05H10.29V26.95H9.65V24.75H13.51V24.2H16.72V23.65H23.8V23.1H24.44V22.55H25.09V21.45H25.73V20.9H26.37V19.25H27.02V18.7H27.66V18.15H28.3V17.05H28.95V15.95H29.59V15.4H30.23V14.85H30.88V13.2H31.52V12.65H32.16V12.1H32.81V11.55H33.45V9.9H34.09V9.35H34.74V8.8H35.38V10.45H36.02V15.4H36.67V20.35H37.31V23.65H42.46V24.2H45.03V24.75H47.6V25.3H50.18V26.4H49.53V27.5H48.89V28.05H47.6V29.15H46.32V29.7H45.67V30.25H45.03V30.8H44.39V31.35H43.74V31.9H43.1V32.45H42.46V33H41.81V33.55H41.17V34.1H40.53V34.65H37.31V35.2H35.38V36.3H34.74V36.85H34.09V37.95H33.45V40.15H32.81V41.8H32.16V43.45H31.52V41.25H32.16V38.5H32.81V35.2H33.45V34.65H34.09V34.1H34.74V33.55H35.38V33H36.02V32.45H36.67V31.9H37.31V31.35H37.95V30.8H38.6V30.25H39.24V29.7H39.88V29.15H40.53V28.6H38.6V28.05H36.02V27.5H34.09V25.85H33.45V23.65H32.81V18.7H31.52V19.8H30.88V20.9H30.23V22H29.59V22.55H28.95V23.1H28.3V24.2H27.66V24.75H27.02V25.85H26.37V26.95H25.09V27.5H21.87V28.05H18.65V28.6H18.01V29.15H18.65V30.25H19.3V32.45H19.94V33.55H20.58V34.1H21.23V35.75H20.58V36.85H19.94V37.95H19.3V40.15H18.65V41.25H18.01V42.35H17.37V43.45H16.72V44H18.65V43.45H19.3V42.9H20.58V42.35H21.23V41.8H22.51V41.25H24.44V40.7H26.37V41.25H27.66V41.8H28.3V42.9H29.59V43.45H30.23V44H30.88V45.1H30.23V45.65H29.59V46.75H28.95V50.05H29.59V51.15H30.23V51.7H29.59V51.15H28.95V50.6H28.3V49.5H27.02V48.95H26.37V47.85H25.09ZM50.82 55.55H50.18V56.65H49.53V58.3H48.89V59.4H48.25V60.5H47.6V62.7H46.96V63.8H46.32V64.35H45.67V65.45H45.03V67.65H44.39V68.75H43.74V69.85H43.1V70.4H42.46V71.49H36.66V70.39H37.3V69.29H37.93V68.19H37.29V69.29H36.66V69.84H36.01V70.39H35.37V70.94H34.73V71.49H27.01V72.04H26.36V74.24H25.72V75.34H19.29V74.24H19.93V73.14H20.57V72.04H21.22V70.39H21.86V69.29H22.5V68.19H23.15V67.09H23.79V64.89H24.43V64.34H25.08V63.24H25.72V62.7V62.15H26.36V60.5H27.01V59.4H27.65V58.3H41.16V58.85H41.8V59.4H41.16V61.05H40.52V62.7H41.16V61.6H41.8V60.5H42.45V58.3H43.09V57.75H43.73V56.65H44.38V55.55H45.02V54.45H50.81V55.55H50.82ZM52.75 56.1V55.55H53.39V54.45H54.04V53.35H54.68V52.8H43.1V53.9H42.46V54.45H41.81V53.9H40.53V53.35H38.6V52.8H37.31V52.25H43.74V51.7H45.03V51.15H46.32V51.7H46.96V52.25H77.84V51.7H78.48V52.25H91.99V55.55H105.5V55H109.36V55.55H112.58V56.1H65.62V56.65H64.33V56.1H52.75ZM75.91 69.85H75.27V70.4H74.62V71.5H73.98V72.6H73.34V73.7H72.69V74.25H72.05V74.8H70.76V75.35H61.11V74.25H61.76V72.6H67.55V72.05H68.19V71.5H61.76V70.95H61.11V68.75H61.76V66.55H62.4V65.45H63.04V64.9H63.69V63.25H64.33V62.15H64.97V61.05H65.62V59.95H66.26V58.3H72.69V58.85H72.05V59.95H71.41V61.05H70.76V63.25H70.12V64.35H69.48V64.9H68.83V67.1H68.19V68.2H67.55V69.3H66.9V69.85H68.83V69.3H69.48V68.2H70.12V67.65H70.76V65.45H71.41V64.35H72.05V63.8H72.69V62.7H73.34V60.5H73.98V59.4H74.62V58.3H80.41V60.5H79.77V61.6H79.13V62.7H78.48V63.8H77.84V65.45H77.2V66.55H76.55V67.65H75.91V69.85ZM91.35 69.3V70.4H90.71V70.95H90.06V72.6H89.42V73.7H88.78V74.25H87.49V74.8H86.85V75.35H77.2V73.7H77.84V72.6H83.63V71.5H77.2V70.4H76.55V69.85H77.2V68.2H77.84V66H78.48V65.45H79.13V64.35H79.77V63.8H80.41V61.6H81.06V60.5H81.7V59.4H82.34V58.85H82.99V58.3H96.5V59.95H95.85V61.05H95.21V62.15H94.57V64.35H93.92V64.9H93.28V66H92.64V67.1H91.99V69.3H91.35ZM91.99 71.5V70.4H92.64V69.85H93.28V68.75H93.92V67.65H94.57V65.45H95.21V64.35H95.85V63.8H96.5V61.6H97.14V60.5H97.78V59.95H98.43V58.85H99.07V58.3H110V59.4H110.64V58.3H124.8V59.4H124.79V60.5H124.15V61.6H123.51V62.7H122.86V64.35H122.22V64.9H121.58V66H120.93V67.1H120.29V69.3H119.65V70.4H118.36V70.95H117.72V71.5H106.14V70.95H105.49V68.75H106.14V66.55H106.78V65.45H107.42V64.35H108.07V63.8H108.71V61.6H109.35V60.5H103.56V62.15H102.92V63.25H102.28V64.35H101.63V66H100.99V67.1H100.35V68.2H99.7V69.3H99.06V70.4H98.42V71.5H91.99ZM104.85 64.9V66H104.21V67.1H103.56V67.65H102.92V66.55H103.56V64.35H104.21V63.8H104.85V62.7H106.14V64.35H105.49V64.9H104.85ZM174.33 57.2H173.69V58.3H173.05V58.85H172.4V61.05H171.76V62.15H171.12V63.25H170.47V64.35H169.83V66H169.19V67.1H168.54V68.2H167.9V69.3H167.26V71.5H167.25V70.95H166.61V71.5H153.1V68.2H152.46V69.3H151.81V70.4H151.17V71.5H144.74V70.95H145.38V70.4H146.02V68.2H146.67V67.1H147.31V66H147.95V64.9H148.6V63.25H149.24V62.15H149.88V61.05H150.53V60.5H148.6V61.05H147.95V62.15H147.31V62.7H146.67V63.8H146.02V65.45H145.38V66.55H144.74V67.65H144.09V69.85H143.45V70.4H142.81V71.5H122.22V74.25H117.72V74.8H102.93V74.25H97.14V73.7H99.7V72.6H100.35V71.5H100.99V70.4H103.56V72.6H104.21V73.15H104.85V73.7H117.72V73.15H119V72.6H120.29V73.15H120.93V73.7H122.22V71.5H121.58V70.95H120.93V69.3H121.58V68.2H122.22V67.1H122.86V64.9H123.51V64.35H124.15V63.25H124.79V61.05H125.44V59.95H126.08V59.4H126.09V58.85H126.73V58.3H132.52V59.4H131.87V61.6H131.23V62.7H130.59V63.8H129.95V65.45H129.31V66.55H128.67V67.65H128.03V68.2H127.39V69.85H129.96V67.65H130.6V66.55H131.24V65.45H131.88V63.8H132.52V62.7H133.16V61.6H133.8V60.5H134.44V59.4V58.85H135.09V58.3H141.51V58.85H140.87V59.95H140.22V61.05H139.58V62.15H138.94V63.8V64.35H138.3V64.9H137.66V66H137.02V68.2H136.38V68.75H135.74V69.85H135.1V70.4H134.46V70.95H133.17V71.5H137.03V69.85H137.67V68.75H138.31V67.65H138.95V65.45H139.59V64.35H140.23V63.8H140.88V62.7H141.52V60.5H142.16V59.4H142.81V58.3H156.96V59.95H156.32V61.05H155.67V63.25H155.03V64.35H154.39V64.9H153.74V66H153.1V68.2H153.74V67.1H154.39V66H155.03V64.9H155.67V63.8H156.32V62.7H156.96V61.6H157.6V60.5H158.25V58.85H158.89V58.3H167.26V57.2H167.9V56.1H168.54V55H169.19V54.45H174.33V57.2Z" fill="#FF5A8E"/>
<path d="M110.64 65.4499H112.57V66H113.21V67.65H112.57V69.3H111.93V70.4H112.57V69.8499H113.21V68.1999H113.86V67.65H114.5V67.0999H115.14V66.55H115.79V65.4499H117.72V64.9H120.29V64.3499H117.07V63.7999H116.43V62.15H117.07V60.5H117.72V59.95H117.07H116.43V60.5H115.79V62.15H115.14V62.7H114.5V63.25H113.86V63.7999H113.21V64.3499H109.35V64.9H110.64V65.4499Z" fill="#FF5A8E"/>
<path d="M110 59.9499V59.3999H109.35V59.9499V60.4999H110V59.9499Z" fill="#FF5A8E"/>
<path d="M54.0299 68.7501V67.6501H54.6699V65.4501H55.31V64.9001H55.9599V64.3501H53.38V65.4501H52.74V66.5501H52.0999V68.7501H51.45V69.8501H53.38V68.7501H54.0299Z" fill="#FF5A8E"/>
<path d="M87.48 61.6H86.84V62.7H86.19V63.8H85.55V64.35H84.91V66.55H84.26V67.65H83.62V68.75H82.98V69.85H84.91V68.75H85.55V67.65H86.19V66.55H86.84V66H87.48V64.35H88.12V63.25H88.77V62.15H89.41V61.05H90.05V60.5H87.48V61.6Z" fill="#FF5A8E"/>
<path d="M37.9399 66.54V67.09H38.5899V66.54V65.99H37.9399V66.54Z" fill="#FF5A8E"/>
<path d="M38.5901 65.4399V65.9899H39.2301V65.4399V64.8899H38.5901V65.4399Z" fill="#FF5A8E"/>
<path d="M39.87 64.3401H39.23V64.8901H39.87V64.3401Z" fill="#FF5A8E"/>
<path d="M39.8701 63.79V64.34H40.5201V63.79V63.24H39.8701V63.79Z" fill="#FF5A8E"/>
<path d="M32.8 61.6H32.15V62.7H31.51V63.8H30.87V65.45H30.22V66.55H29.58V67.65H28.94V68.75H28.29V69.85H30.87V67.65H31.51V66.55H32.15V65.45H32.8V64.35H33.44V62.7H34.08V62.15H34.73V61.05H35.37V60.5H32.8V61.6Z" fill="#FF5A8E"/>
<path d="M57.2401 43.4501H57.8901V42.35H58.5301V41.25H59.1701V39.6H59.8201V39.05H57.8901V39.6H57.2401V40.7001H56.6001V42.35H55.9601V43.4501H55.3101V44H57.2401V43.4501Z" fill="#FF5A8E"/>
<path d="M86.1899 47.84H86.8399H87.4799V47.2901V46.7401H88.1199V46.19V45.6501H88.7699V45.1V44.55H89.4099V43.4501H90.0499V41.25H90.6999V40.7001H91.3399V40.1501H91.9799V39.05H90.0499V39.6H89.4099V40.7001H88.7699V41.25H88.1199V42.35H87.4799V44.5401V44.55H86.8399V45.1V45.64H86.1899V46.19V46.7401H85.5499V47.2901H84.9099V47.84H85.5499H86.1899Z" fill="#FF5A8E"/>
</g>
<defs>
<linearGradient id="paint0_linear_155_374" x1="106.465" y1="75.9001" x2="106.465" y2="86.3501" gradientUnits="userSpaceOnUse">
<stop stop-color="#29FDA4"/>
<stop offset="1" stop-color="#A9DEF9"/>
</linearGradient>
<linearGradient id="paint1_linear_155_374" x1="146.355" y1="74.25" x2="146.355" y2="75.9" gradientUnits="userSpaceOnUse">
<stop stop-color="#29FDA4"/>
<stop offset="1" stop-color="#A9DEF9"/>
</linearGradient>
<linearGradient id="paint2_linear_155_374" x1="147" y1="73.7" x2="147" y2="74.25" gradientUnits="userSpaceOnUse">
<stop stop-color="#29FDA4"/>
<stop offset="1" stop-color="#A9DEF9"/>
</linearGradient>
<linearGradient id="paint3_linear_155_374" x1="109.685" y1="70.4001" x2="109.685" y2="74.8001" gradientUnits="userSpaceOnUse">
<stop stop-color="#29FDA4"/>
<stop offset="1" stop-color="#A9DEF9"/>
</linearGradient>
<linearGradient id="paint4_linear_155_374" x1="101.005" y1="58.3" x2="101.005" y2="71.5" gradientUnits="userSpaceOnUse">
<stop stop-color="#29FDA4"/>
<stop offset="1" stop-color="#A9DEF9"/>
</linearGradient>
<linearGradient id="paint5_linear_155_374" x1="147" y1="58.3" x2="147" y2="71.5" gradientUnits="userSpaceOnUse">
<stop stop-color="#29FDA4"/>
<stop offset="1" stop-color="#A9DEF9"/>
</linearGradient>
<linearGradient id="paint6_linear_155_374" x1="104.54" y1="62.7" x2="104.54" y2="67.65" gradientUnits="userSpaceOnUse">
<stop stop-color="#29FDA4"/>
<stop offset="1" stop-color="#A9DEF9"/>
</linearGradient>
<linearGradient id="paint7_linear_155_374" x1="115.15" y1="58.3" x2="115.15" y2="71.5" gradientUnits="userSpaceOnUse">
<stop stop-color="#29FDA4"/>
<stop offset="1" stop-color="#A9DEF9"/>
</linearGradient>
<linearGradient id="paint8_linear_155_374" x1="131.225" y1="58.3" x2="131.225" y2="71.5" gradientUnits="userSpaceOnUse">
<stop stop-color="#29FDA4"/>
<stop offset="1" stop-color="#A9DEF9"/>
</linearGradient>
<linearGradient id="paint9_linear_155_374" x1="86.525" y1="58.3" x2="86.525" y2="75.35" gradientUnits="userSpaceOnUse">
<stop stop-color="#29FDA4"/>
<stop offset="1" stop-color="#A9DEF9"/>
</linearGradient>
<linearGradient id="paint10_linear_155_374" x1="70.7601" y1="58.3" x2="70.7601" y2="75.35" gradientUnits="userSpaceOnUse">
<stop stop-color="#29FDA4"/>
<stop offset="1" stop-color="#A9DEF9"/>
</linearGradient>
<linearGradient id="paint11_linear_155_374" x1="54.68" y1="58.3" x2="54.68" y2="71.5" gradientUnits="userSpaceOnUse">
<stop stop-color="#29FDA4"/>
<stop offset="1" stop-color="#A9DEF9"/>
</linearGradient>
<linearGradient id="paint12_linear_155_374" x1="163.755" y1="54.4399" x2="163.755" y2="71.4899" gradientUnits="userSpaceOnUse">
<stop stop-color="#29FDA4"/>
<stop offset="1" stop-color="#A9DEF9"/>
</linearGradient>
<linearGradient id="paint13_linear_155_374" x1="35.06" y1="54.45" x2="35.06" y2="75.3499" gradientUnits="userSpaceOnUse">
<stop stop-color="#29FDA4"/>
<stop offset="1" stop-color="#A9DEF9"/>
</linearGradient>
<linearGradient id="paint14_linear_155_374" x1="38.6002" y1="54.45" x2="38.6002" y2="56.0999" gradientUnits="userSpaceOnUse">
<stop stop-color="#29FDA4"/>
<stop offset="1" stop-color="#A9DEF9"/>
</linearGradient>
<linearGradient id="paint15_linear_155_374" x1="74.9451" y1="51.1501" x2="74.9451" y2="56.6501" gradientUnits="userSpaceOnUse">
<stop stop-color="#29FDA4"/>
<stop offset="1" stop-color="#A9DEF9"/>
</linearGradient>
<linearGradient id="paint16_linear_155_374" x1="32.4851" y1="52.25" x2="32.4851" y2="53.35" gradientUnits="userSpaceOnUse">
<stop stop-color="#29FDA4"/>
<stop offset="1" stop-color="#A9DEF9"/>
</linearGradient>
<linearGradient id="paint17_linear_155_374" x1="29.9101" y1="51.1501" x2="29.9101" y2="51.7001" gradientUnits="userSpaceOnUse">
<stop stop-color="#29FDA4"/>
<stop offset="1" stop-color="#A9DEF9"/>
</linearGradient>
<linearGradient id="paint18_linear_155_374" x1="56.9301" y1="36.3" x2="56.9301" y2="50.05" gradientUnits="userSpaceOnUse">
<stop stop-color="#29FDA4"/>
<stop offset="1" stop-color="#A9DEF9"/>
</linearGradient>
<linearGradient id="paint19_linear_155_374" x1="123.84" y1="43.45" x2="123.84" y2="56.0999" gradientUnits="userSpaceOnUse">
<stop stop-color="#29FDA4"/>
<stop offset="1" stop-color="#A9DEF9"/>
</linearGradient>
<linearGradient id="paint20_linear_155_374" x1="29.2701" y1="8.80005" x2="29.2701" y2="53.35" gradientUnits="userSpaceOnUse">
<stop stop-color="#29FDA4"/>
<stop offset="1" stop-color="#A9DEF9"/>
</linearGradient>
<linearGradient id="paint21_linear_155_374" x1="90.0601" y1="33" x2="90.0601" y2="50.05" gradientUnits="userSpaceOnUse">
<stop stop-color="#29FDA4"/>
<stop offset="1" stop-color="#A9DEF9"/>
</linearGradient>
<linearGradient id="paint22_linear_155_374" x1="40.5301" y1="36.3" x2="40.5301" y2="50.05" gradientUnits="userSpaceOnUse">
<stop stop-color="#29FDA4"/>
<stop offset="1" stop-color="#A9DEF9"/>
</linearGradient>
<linearGradient id="paint23_linear_155_374" x1="72.6951" y1="36.3" x2="72.6951" y2="50.05" gradientUnits="userSpaceOnUse">
<stop stop-color="#29FDA4"/>
<stop offset="1" stop-color="#A9DEF9"/>
</linearGradient>
<linearGradient id="paint24_linear_155_374" x1="104.86" y1="36.3" x2="104.86" y2="53.35" gradientUnits="userSpaceOnUse">
<stop stop-color="#29FDA4"/>
<stop offset="1" stop-color="#A9DEF9"/>
</linearGradient>
<linearGradient id="paint25_linear_155_374" x1="59.8301" y1="32.45" x2="59.8301" y2="35.2" gradientUnits="userSpaceOnUse">
<stop stop-color="#29FDA4"/>
<stop offset="1" stop-color="#A9DEF9"/>
</linearGradient>
<clipPath id="clip0_155_374">
<rect width="179" height="87" fill="white"/>
</clipPath>
</defs>
</svg>
